M48
; DRILL file {KiCad 9.0.4} date 2025-12-08T23:22:43+0100
; FORMAT={-:-/ absolute / metric / decimal}
; #@! TF.CreationDate,2025-12-08T23:22:43+01:00
; #@! TF.GenerationSoftware,Kicad,Pcbnew,9.0.4
; #@! TF.FileFunction,Plated,1,2,PTH
FMAT,2
METRIC
; #@! TA.AperFunction,Plated,PTH,ViaDrill
T1C0.300
; #@! TA.AperFunction,Plated,PTH,ComponentDrill
T2C0.750
; #@! TA.AperFunction,Plated,PTH,ComponentDrill
T3C0.800
; #@! TA.AperFunction,Plated,PTH,ComponentDrill
T4C1.000
; #@! TA.AperFunction,Plated,PTH,ComponentDrill
T5C1.016
; #@! TA.AperFunction,Plated,PTH,ComponentDrill
T6C1.100
; #@! TA.AperFunction,Plated,PTH,ComponentDrill
T7C1.170
; #@! TA.AperFunction,Plated,PTH,ComponentDrill
T8C1.400
; #@! TA.AperFunction,Plated,PTH,ViaDrill
T9C3.200
%
G90
G05
T1
X84.5Y-77.0
X93.0Y-69.5
X101.0Y-54.0
X105.0Y-69.5
X111.5Y-66.5
X120.0Y-78.0
X122.5Y-85.5
X123.0Y-105.5
X123.0Y-111.5
X138.5Y-113.5
X141.0Y-60.5
T2
X126.952Y-62.222
X128.222Y-62.222
X129.492Y-62.222
T3
X35.847Y-64.5
X37.5Y-83.0
X37.5Y-93.16
X39.347Y-64.5
X45.25Y-61.0
X45.25Y-100.8
X62.65Y-61.0
X62.65Y-100.8
X70.5Y-96.0
X73.0Y-96.0
X78.5Y-84.0
X80.54Y-90.5
X80.54Y-109.1
X81.0Y-84.0
X83.04Y-90.5
X83.04Y-109.1
X91.0Y-90.5
X91.0Y-109.1
X91.34Y-33.0
X93.54Y-90.5
X93.54Y-109.1
X101.5Y-33.0
X113.42Y-82.0
X123.58Y-82.0
X128.278Y-68.928
X128.278Y-79.088
X129.0Y-41.0
X129.0Y-45.0
X130.0Y-88.0
X133.5Y-88.0
X134.0Y-41.0
X134.0Y-45.0
T4
X53.19Y-33.0
X55.73Y-33.0
X58.27Y-33.0
X67.15Y-33.0
X69.69Y-33.0
X72.23Y-33.0
X80.42Y-33.0
X82.96Y-33.0
X85.5Y-33.0
X101.84Y-111.5
X104.38Y-111.5
X106.92Y-111.5
X107.88Y-33.0
X109.46Y-111.5
X110.42Y-33.0
X112.0Y-111.5
X112.96Y-33.0
X114.54Y-111.5
X115.5Y-33.0
X117.08Y-111.5
X119.62Y-111.5
X122.92Y-33.0
X125.46Y-33.0
X126.65Y-110.96
X128.0Y-33.0
X129.19Y-110.96
X130.54Y-33.0
X131.73Y-110.96
X134.27Y-110.96
X136.81Y-110.96
X139.35Y-110.96
X141.89Y-110.96
X144.43Y-110.96
X144.5Y-34.88
X144.5Y-37.42
X144.5Y-39.96
X144.5Y-42.5
X144.5Y-45.04
X144.5Y-51.46
X144.5Y-54.0
X144.5Y-56.54
X144.5Y-59.08
X144.5Y-65.46
X144.5Y-68.0
X144.5Y-74.5
X144.5Y-77.04
X144.5Y-79.58
T5
X69.18Y-72.02
X69.18Y-74.56
X71.72Y-72.02
X71.72Y-74.56
X74.26Y-72.02
X74.26Y-74.56
X76.8Y-72.02
X76.8Y-74.56
X79.34Y-72.02
X79.34Y-74.56
X81.88Y-39.0
X81.88Y-41.54
X81.88Y-72.02
X81.88Y-74.56
X84.42Y-39.0
X84.42Y-41.54
X84.42Y-72.02
X84.42Y-74.56
X86.96Y-39.0
X86.96Y-41.54
X86.96Y-72.02
X86.96Y-74.56
X89.5Y-39.0
X89.5Y-41.54
X89.5Y-72.02
X89.5Y-74.56
X92.04Y-39.0
X92.04Y-41.54
X92.04Y-72.02
X92.04Y-74.56
X94.58Y-39.0
X94.58Y-41.54
X94.58Y-72.02
X94.58Y-74.56
X97.12Y-39.0
X97.12Y-41.54
X97.12Y-72.02
X97.12Y-74.56
X99.66Y-39.0
X99.66Y-41.54
X99.66Y-72.02
X99.66Y-74.56
X102.2Y-39.0
X102.2Y-41.54
X102.2Y-72.02
X102.2Y-74.56
X104.74Y-39.0
X104.74Y-41.54
X104.74Y-72.02
X104.74Y-74.56
X107.28Y-39.0
X107.28Y-41.54
X107.28Y-72.02
X107.28Y-74.56
X109.82Y-39.0
X109.82Y-41.54
X109.82Y-72.02
X109.82Y-74.56
X112.36Y-39.0
X112.36Y-41.54
X112.36Y-72.02
X112.36Y-74.56
X114.9Y-39.0
X114.9Y-41.54
X114.9Y-72.02
X114.9Y-74.56
X117.44Y-39.0
X117.44Y-41.54
X117.44Y-44.08
X117.44Y-46.62
X117.44Y-49.16
X117.44Y-56.78
X117.44Y-59.32
X117.44Y-61.86
X117.44Y-72.02
X117.44Y-74.56
X119.98Y-39.0
X119.98Y-41.54
X119.98Y-44.08
X119.98Y-46.62
X119.98Y-49.16
X119.98Y-56.78
X119.98Y-59.32
X119.98Y-61.86
X119.98Y-72.02
X119.98Y-74.56
T6
X28.46Y-74.95
X31.0Y-74.95
X33.54Y-74.95
T7
X24.0Y-51.5
X24.0Y-56.5
X41.8Y-51.5
X41.8Y-56.5
T8
X30.0Y-41.29
X30.0Y-46.37
X30.5Y-80.0
X30.5Y-85.08
X30.5Y-90.0
X30.5Y-95.08
X30.5Y-100.04
X30.5Y-105.12
X30.5Y-110.0
X30.5Y-115.08
X39.0Y-108.4
X44.08Y-108.4
X49.0Y-108.5
X54.08Y-108.5
X59.04Y-108.5
X64.12Y-108.5
X69.04Y-108.5
X74.12Y-108.5
T9
X38.0Y-33.5
X38.5Y-101.0
X93.5Y-82.0
X137.5Y-34.0
X145.0Y-90.0
M30
