%TF.GenerationSoftware,KiCad,Pcbnew,9.0.4*%
%TF.CreationDate,2025-12-08T23:22:33+01:00*%
%TF.ProjectId,van-obc,76616e2d-6f62-4632-9e6b-696361645f70,rev?*%
%TF.SameCoordinates,Original*%
%TF.FileFunction,Soldermask,Bot*%
%TF.FilePolarity,Negative*%
%FSLAX46Y46*%
G04 Gerber Fmt 4.6, Leading zero omitted, Abs format (unit mm)*
G04 Created by KiCad (PCBNEW 9.0.4) date 2025-12-08 23:22:33*
%MOMM*%
%LPD*%
G01*
G04 APERTURE LIST*
G04 Aperture macros list*
%AMRoundRect*
0 Rectangle with rounded corners*
0 $1 Rounding radius*
0 $2 $3 $4 $5 $6 $7 $8 $9 X,Y pos of 4 corners*
0 Add a 4 corners polygon primitive as box body*
4,1,4,$2,$3,$4,$5,$6,$7,$8,$9,$2,$3,0*
0 Add four circle primitives for the rounded corners*
1,1,$1+$1,$2,$3*
1,1,$1+$1,$4,$5*
1,1,$1+$1,$6,$7*
1,1,$1+$1,$8,$9*
0 Add four rect primitives between the rounded corners*
20,1,$1+$1,$2,$3,$4,$5,0*
20,1,$1+$1,$4,$5,$6,$7,0*
20,1,$1+$1,$6,$7,$8,$9,0*
20,1,$1+$1,$8,$9,$2,$3,0*%
G04 Aperture macros list end*
%ADD10C,1.600000*%
%ADD11RoundRect,0.249999X-0.790001X-1.550001X0.790001X-1.550001X0.790001X1.550001X-0.790001X1.550001X0*%
%ADD12O,2.080000X3.600000*%
%ADD13R,1.050000X1.500000*%
%ADD14O,1.050000X1.500000*%
%ADD15C,3.200000*%
%ADD16O,1.727200X1.727200*%
%ADD17R,1.727200X1.727200*%
%ADD18RoundRect,0.249999X-1.550001X0.790001X-1.550001X-0.790001X1.550001X-0.790001X1.550001X0.790001X0*%
%ADD19O,3.600000X2.080000*%
%ADD20R,1.700000X1.700000*%
%ADD21C,1.700000*%
%ADD22R,1.270000X2.540000*%
%ADD23RoundRect,0.190500X-0.444500X1.079500X-0.444500X-1.079500X0.444500X-1.079500X0.444500X1.079500X0*%
%ADD24R,2.540000X2.540000*%
%ADD25RoundRect,0.250000X-0.550000X-0.550000X0.550000X-0.550000X0.550000X0.550000X-0.550000X0.550000X0*%
%ADD26R,2.000000X2.000000*%
%ADD27C,2.000000*%
%ADD28R,1.905000X2.000000*%
%ADD29O,1.905000X2.000000*%
%ADD30RoundRect,0.550000X-0.550000X-0.550000X0.550000X-0.550000X0.550000X0.550000X-0.550000X0.550000X0*%
%ADD31C,2.200000*%
G04 APERTURE END LIST*
D10*
%TO.C,R6*%
X113420000Y-82000000D03*
X123580000Y-82000000D03*
%TD*%
D11*
%TO.C,J14*%
X39000000Y-108400000D03*
D12*
X44080000Y-108400000D03*
%TD*%
D13*
%TO.C,Q2*%
X126951961Y-62221961D03*
D14*
X128221961Y-62221961D03*
X129491961Y-62221961D03*
%TD*%
D11*
%TO.C,J15*%
X49000000Y-108500000D03*
D12*
X54080000Y-108500000D03*
%TD*%
D15*
%TO.C,A1*%
X80813200Y-46112000D03*
X118837000Y-52970000D03*
D16*
X76800000Y-72020000D03*
X76800000Y-74560000D03*
X74260000Y-72020000D03*
X119980000Y-56780000D03*
X74260000Y-74560000D03*
X81880000Y-39000000D03*
X81880000Y-41540000D03*
X84420000Y-39000000D03*
X84420000Y-41540000D03*
X86960000Y-39000000D03*
X86960000Y-41540000D03*
X89500000Y-39000000D03*
X89500000Y-41540000D03*
X92040000Y-39000000D03*
X92040000Y-41540000D03*
X94580000Y-39000000D03*
X94580000Y-41540000D03*
X97120000Y-39000000D03*
X97120000Y-41540000D03*
X99660000Y-39000000D03*
X99660000Y-41540000D03*
X79340000Y-72020000D03*
X81880000Y-72020000D03*
X81880000Y-74560000D03*
X84420000Y-72020000D03*
X84420000Y-74560000D03*
X86960000Y-72020000D03*
X86960000Y-74560000D03*
X89500000Y-72020000D03*
X89500000Y-74560000D03*
X92040000Y-72020000D03*
X92040000Y-74560000D03*
X94580000Y-72020000D03*
X94580000Y-74560000D03*
X97120000Y-72020000D03*
X97120000Y-74560000D03*
X99660000Y-72020000D03*
X99660000Y-74560000D03*
X102200000Y-72020000D03*
X102200000Y-74560000D03*
X104740000Y-72020000D03*
X104740000Y-74560000D03*
X107280000Y-72020000D03*
X107280000Y-74560000D03*
X109820000Y-72020000D03*
X109820000Y-74560000D03*
X112360000Y-72020000D03*
X112360000Y-74560000D03*
X114900000Y-72020000D03*
X114900000Y-74560000D03*
X117440000Y-72020000D03*
X117440000Y-74560000D03*
X119980000Y-72020000D03*
X119980000Y-74560000D03*
X102200000Y-39000000D03*
X102200000Y-41540000D03*
X104740000Y-39000000D03*
X104740000Y-41540000D03*
X107280000Y-39000000D03*
X107280000Y-41540000D03*
X109820000Y-39000000D03*
X109820000Y-41540000D03*
X112360000Y-39000000D03*
X112360000Y-41540000D03*
X114900000Y-39000000D03*
X114900000Y-41540000D03*
X117440000Y-39000000D03*
X117440000Y-41540000D03*
X119980000Y-39000000D03*
X119980000Y-41540000D03*
X119980000Y-44080000D03*
X117440000Y-44080000D03*
X119980000Y-46620000D03*
X117440000Y-46620000D03*
X119980000Y-49160000D03*
X117440000Y-49160000D03*
D17*
X71720000Y-72020000D03*
X71720000Y-74560000D03*
X119980000Y-61860000D03*
D16*
X117440000Y-56780000D03*
X119980000Y-59320000D03*
X79340000Y-74560000D03*
X117440000Y-61860000D03*
X117440000Y-59320000D03*
X69180000Y-72020000D03*
X69180000Y-74560000D03*
%TD*%
D18*
%TO.C,J11*%
X30500000Y-90000000D03*
D19*
X30500000Y-95080000D03*
%TD*%
D20*
%TO.C,J2*%
X144500000Y-34880000D03*
D21*
X144500000Y-37420000D03*
X144500000Y-39960000D03*
X144500000Y-42500000D03*
X144500000Y-45040000D03*
%TD*%
D22*
%TO.C,U2*%
X91000000Y-90500000D03*
X83040000Y-90500000D03*
D23*
X91000000Y-109100000D03*
D22*
X83040000Y-109100000D03*
D24*
X93540000Y-90500000D03*
X80540000Y-90500000D03*
X93540000Y-109100000D03*
X80540000Y-109100000D03*
%TD*%
D25*
%TO.C,C1*%
X35847349Y-64500000D03*
D10*
X39347349Y-64500000D03*
%TD*%
D18*
%TO.C,J10*%
X30500000Y-80000000D03*
D19*
X30500000Y-85080000D03*
%TD*%
D26*
%TO.C,u3*%
X119620000Y-111500000D03*
D27*
X117080000Y-111500000D03*
X114540000Y-111500000D03*
X112000000Y-111500000D03*
X109460000Y-111500000D03*
X106920000Y-111500000D03*
X104380000Y-111500000D03*
X101840000Y-111500000D03*
%TD*%
D28*
%TO.C,Q1*%
X28460000Y-74950000D03*
D29*
X31000000Y-74950000D03*
X33540000Y-74950000D03*
%TD*%
D10*
%TO.C,C4*%
X129000000Y-45000000D03*
X134000000Y-45000000D03*
%TD*%
D20*
%TO.C,J9*%
X80420000Y-33000000D03*
D21*
X82960000Y-33000000D03*
X85500000Y-33000000D03*
%TD*%
D18*
%TO.C,J13*%
X30500000Y-110000000D03*
D19*
X30500000Y-115080000D03*
%TD*%
D10*
%TO.C,R1*%
X37500000Y-83000000D03*
X37500000Y-93160000D03*
%TD*%
D24*
%TO.C,U1*%
X62650000Y-100800000D03*
X45250000Y-100800000D03*
X62650000Y-61000000D03*
X45250000Y-61000000D03*
%TD*%
D20*
%TO.C,J7*%
X53190000Y-33000000D03*
D21*
X55730000Y-33000000D03*
X58270000Y-33000000D03*
%TD*%
D11*
%TO.C,J16*%
X59040000Y-108500000D03*
D12*
X64120000Y-108500000D03*
%TD*%
D18*
%TO.C,J12*%
X30500000Y-100040000D03*
D19*
X30500000Y-105120000D03*
%TD*%
D10*
%TO.C,R5*%
X128278039Y-79088039D03*
X128278039Y-68928039D03*
%TD*%
%TO.C,R4*%
X91340000Y-33000000D03*
X101500000Y-33000000D03*
%TD*%
D20*
%TO.C,J1*%
X144500000Y-51460000D03*
D21*
X144500000Y-54000000D03*
X144500000Y-56540000D03*
X144500000Y-59080000D03*
%TD*%
D20*
%TO.C,J8*%
X67150000Y-33000000D03*
D21*
X69690000Y-33000000D03*
X72230000Y-33000000D03*
%TD*%
D25*
%TO.C,C6*%
X130000000Y-88000000D03*
D10*
X133500000Y-88000000D03*
%TD*%
%TO.C,C5*%
X129000000Y-41000000D03*
X134000000Y-41000000D03*
%TD*%
D11*
%TO.C,J17*%
X69040000Y-108500000D03*
D12*
X74120000Y-108500000D03*
%TD*%
D20*
%TO.C,J6*%
X122920000Y-33000000D03*
D21*
X125460000Y-33000000D03*
X128000000Y-33000000D03*
X130540000Y-33000000D03*
%TD*%
D25*
%TO.C,C2*%
X78500000Y-84000000D03*
D27*
X81000000Y-84000000D03*
%TD*%
D20*
%TO.C,J5*%
X107880000Y-33000000D03*
D21*
X110420000Y-33000000D03*
X112960000Y-33000000D03*
X115500000Y-33000000D03*
%TD*%
D20*
%TO.C,J3*%
X144500000Y-65460000D03*
D21*
X144500000Y-68000000D03*
%TD*%
D26*
%TO.C,u4*%
X144430000Y-110960000D03*
D27*
X141890000Y-110960000D03*
X139350000Y-110960000D03*
X136810000Y-110960000D03*
X134270000Y-110960000D03*
X131730000Y-110960000D03*
X129190000Y-110960000D03*
X126650000Y-110960000D03*
%TD*%
D18*
%TO.C,J_11*%
X30000000Y-41290000D03*
D19*
X30000000Y-46370000D03*
%TD*%
D30*
%TO.C,F1*%
X24000000Y-51500000D03*
X24000000Y-56500000D03*
D31*
X41800000Y-51500000D03*
X41800000Y-56500000D03*
%TD*%
D20*
%TO.C,J4*%
X144500000Y-74500000D03*
D21*
X144500000Y-77040000D03*
X144500000Y-79580000D03*
%TD*%
D25*
%TO.C,C3*%
X70500000Y-96000000D03*
D10*
X73000000Y-96000000D03*
%TD*%
M02*
