%TF.GenerationSoftware,KiCad,Pcbnew,9.0.4*%
%TF.CreationDate,2025-12-08T23:22:33+01:00*%
%TF.ProjectId,van-obc,76616e2d-6f62-4632-9e6b-696361645f70,rev?*%
%TF.SameCoordinates,Original*%
%TF.FileFunction,Legend,Top*%
%TF.FilePolarity,Positive*%
%FSLAX46Y46*%
G04 Gerber Fmt 4.6, Leading zero omitted, Abs format (unit mm)*
G04 Created by KiCad (PCBNEW 9.0.4) date 2025-12-08 23:22:33*
%MOMM*%
%LPD*%
G01*
G04 APERTURE LIST*
%ADD10C,0.100000*%
%ADD11C,0.200000*%
%ADD12C,0.150000*%
%ADD13C,0.120000*%
G04 APERTURE END LIST*
D10*
X75232455Y-98705752D02*
X75232455Y-99372419D01*
X74994360Y-98324800D02*
X74756265Y-99039085D01*
X74756265Y-99039085D02*
X75375312Y-99039085D01*
X75661027Y-98372419D02*
X76327693Y-98372419D01*
X76327693Y-98372419D02*
X75899122Y-99372419D01*
X76708646Y-98705752D02*
X76708646Y-99705752D01*
X77184836Y-99229561D02*
X77232455Y-99324800D01*
X77232455Y-99324800D02*
X77327693Y-99372419D01*
X76708646Y-99229561D02*
X76756265Y-99324800D01*
X76756265Y-99324800D02*
X76851503Y-99372419D01*
X76851503Y-99372419D02*
X77041979Y-99372419D01*
X77041979Y-99372419D02*
X77137217Y-99324800D01*
X77137217Y-99324800D02*
X77184836Y-99229561D01*
X77184836Y-99229561D02*
X77184836Y-98705752D01*
X78089598Y-98848609D02*
X77756265Y-98848609D01*
X77756265Y-99372419D02*
X77756265Y-98372419D01*
X77756265Y-98372419D02*
X78232455Y-98372419D01*
X33013884Y-40931466D02*
X33775789Y-40931466D01*
X33394836Y-41312419D02*
X33394836Y-40550514D01*
X34775788Y-41312419D02*
X34204360Y-41312419D01*
X34490074Y-41312419D02*
X34490074Y-40312419D01*
X34490074Y-40312419D02*
X34394836Y-40455276D01*
X34394836Y-40455276D02*
X34299598Y-40550514D01*
X34299598Y-40550514D02*
X34204360Y-40598133D01*
X35156741Y-40407657D02*
X35204360Y-40360038D01*
X35204360Y-40360038D02*
X35299598Y-40312419D01*
X35299598Y-40312419D02*
X35537693Y-40312419D01*
X35537693Y-40312419D02*
X35632931Y-40360038D01*
X35632931Y-40360038D02*
X35680550Y-40407657D01*
X35680550Y-40407657D02*
X35728169Y-40502895D01*
X35728169Y-40502895D02*
X35728169Y-40598133D01*
X35728169Y-40598133D02*
X35680550Y-40740990D01*
X35680550Y-40740990D02*
X35109122Y-41312419D01*
X35109122Y-41312419D02*
X35728169Y-41312419D01*
X36013884Y-40312419D02*
X36347217Y-41312419D01*
X36347217Y-41312419D02*
X36680550Y-40312419D01*
X106137217Y-35848609D02*
X106280074Y-35896228D01*
X106280074Y-35896228D02*
X106327693Y-35943847D01*
X106327693Y-35943847D02*
X106375312Y-36039085D01*
X106375312Y-36039085D02*
X106375312Y-36181942D01*
X106375312Y-36181942D02*
X106327693Y-36277180D01*
X106327693Y-36277180D02*
X106280074Y-36324800D01*
X106280074Y-36324800D02*
X106184836Y-36372419D01*
X106184836Y-36372419D02*
X105803884Y-36372419D01*
X105803884Y-36372419D02*
X105803884Y-35372419D01*
X105803884Y-35372419D02*
X106137217Y-35372419D01*
X106137217Y-35372419D02*
X106232455Y-35420038D01*
X106232455Y-35420038D02*
X106280074Y-35467657D01*
X106280074Y-35467657D02*
X106327693Y-35562895D01*
X106327693Y-35562895D02*
X106327693Y-35658133D01*
X106327693Y-35658133D02*
X106280074Y-35753371D01*
X106280074Y-35753371D02*
X106232455Y-35800990D01*
X106232455Y-35800990D02*
X106137217Y-35848609D01*
X106137217Y-35848609D02*
X105803884Y-35848609D01*
X106803884Y-36372419D02*
X106803884Y-35372419D01*
X106803884Y-35372419D02*
X107137217Y-36086704D01*
X107137217Y-36086704D02*
X107470550Y-35372419D01*
X107470550Y-35372419D02*
X107470550Y-36372419D01*
X107946741Y-35848609D02*
X108280074Y-35848609D01*
X108422931Y-36372419D02*
X107946741Y-36372419D01*
X107946741Y-36372419D02*
X107946741Y-35372419D01*
X107946741Y-35372419D02*
X108422931Y-35372419D01*
X128303884Y-36372419D02*
X128303884Y-35372419D01*
X128303884Y-35372419D02*
X128637217Y-36086704D01*
X128637217Y-36086704D02*
X128970550Y-35372419D01*
X128970550Y-35372419D02*
X128970550Y-36372419D01*
X129446741Y-36372419D02*
X129446741Y-35372419D01*
X129446741Y-35372419D02*
X129827693Y-35372419D01*
X129827693Y-35372419D02*
X129922931Y-35420038D01*
X129922931Y-35420038D02*
X129970550Y-35467657D01*
X129970550Y-35467657D02*
X130018169Y-35562895D01*
X130018169Y-35562895D02*
X130018169Y-35705752D01*
X130018169Y-35705752D02*
X129970550Y-35800990D01*
X129970550Y-35800990D02*
X129922931Y-35848609D01*
X129922931Y-35848609D02*
X129827693Y-35896228D01*
X129827693Y-35896228D02*
X129446741Y-35896228D01*
X130446741Y-35372419D02*
X130446741Y-36181942D01*
X130446741Y-36181942D02*
X130494360Y-36277180D01*
X130494360Y-36277180D02*
X130541979Y-36324800D01*
X130541979Y-36324800D02*
X130637217Y-36372419D01*
X130637217Y-36372419D02*
X130827693Y-36372419D01*
X130827693Y-36372419D02*
X130922931Y-36324800D01*
X130922931Y-36324800D02*
X130970550Y-36277180D01*
X130970550Y-36277180D02*
X131018169Y-36181942D01*
X131018169Y-36181942D02*
X131018169Y-35372419D01*
X130827693Y-95872419D02*
X130256265Y-95872419D01*
X130541979Y-95872419D02*
X130541979Y-94872419D01*
X130541979Y-94872419D02*
X130446741Y-95015276D01*
X130446741Y-95015276D02*
X130351503Y-95110514D01*
X130351503Y-95110514D02*
X130256265Y-95158133D01*
X131446741Y-94872419D02*
X131541979Y-94872419D01*
X131541979Y-94872419D02*
X131637217Y-94920038D01*
X131637217Y-94920038D02*
X131684836Y-94967657D01*
X131684836Y-94967657D02*
X131732455Y-95062895D01*
X131732455Y-95062895D02*
X131780074Y-95253371D01*
X131780074Y-95253371D02*
X131780074Y-95491466D01*
X131780074Y-95491466D02*
X131732455Y-95681942D01*
X131732455Y-95681942D02*
X131684836Y-95777180D01*
X131684836Y-95777180D02*
X131637217Y-95824800D01*
X131637217Y-95824800D02*
X131541979Y-95872419D01*
X131541979Y-95872419D02*
X131446741Y-95872419D01*
X131446741Y-95872419D02*
X131351503Y-95824800D01*
X131351503Y-95824800D02*
X131303884Y-95777180D01*
X131303884Y-95777180D02*
X131256265Y-95681942D01*
X131256265Y-95681942D02*
X131208646Y-95491466D01*
X131208646Y-95491466D02*
X131208646Y-95253371D01*
X131208646Y-95253371D02*
X131256265Y-95062895D01*
X131256265Y-95062895D02*
X131303884Y-94967657D01*
X131303884Y-94967657D02*
X131351503Y-94920038D01*
X131351503Y-94920038D02*
X131446741Y-94872419D01*
X132208646Y-95872419D02*
X132208646Y-95205752D01*
X132208646Y-95300990D02*
X132256265Y-95253371D01*
X132256265Y-95253371D02*
X132351503Y-95205752D01*
X132351503Y-95205752D02*
X132494360Y-95205752D01*
X132494360Y-95205752D02*
X132589598Y-95253371D01*
X132589598Y-95253371D02*
X132637217Y-95348609D01*
X132637217Y-95348609D02*
X132637217Y-95872419D01*
X132637217Y-95348609D02*
X132684836Y-95253371D01*
X132684836Y-95253371D02*
X132780074Y-95205752D01*
X132780074Y-95205752D02*
X132922931Y-95205752D01*
X132922931Y-95205752D02*
X133018170Y-95253371D01*
X133018170Y-95253371D02*
X133065789Y-95348609D01*
X133065789Y-95348609D02*
X133065789Y-95872419D01*
X133494360Y-95872419D02*
X133732455Y-95872419D01*
X133732455Y-95872419D02*
X133732455Y-95681942D01*
X133732455Y-95681942D02*
X133637217Y-95634323D01*
X133637217Y-95634323D02*
X133541979Y-95539085D01*
X133541979Y-95539085D02*
X133494360Y-95396228D01*
X133494360Y-95396228D02*
X133494360Y-95158133D01*
X133494360Y-95158133D02*
X133541979Y-95015276D01*
X133541979Y-95015276D02*
X133637217Y-94920038D01*
X133637217Y-94920038D02*
X133780074Y-94872419D01*
X133780074Y-94872419D02*
X133970550Y-94872419D01*
X133970550Y-94872419D02*
X134113407Y-94920038D01*
X134113407Y-94920038D02*
X134208645Y-95015276D01*
X134208645Y-95015276D02*
X134256264Y-95158133D01*
X134256264Y-95158133D02*
X134256264Y-95396228D01*
X134256264Y-95396228D02*
X134208645Y-95539085D01*
X134208645Y-95539085D02*
X134113407Y-95634323D01*
X134113407Y-95634323D02*
X134018169Y-95681942D01*
X134018169Y-95681942D02*
X134018169Y-95872419D01*
X134018169Y-95872419D02*
X134256264Y-95872419D01*
X135399121Y-94824800D02*
X134541979Y-96110514D01*
X136208645Y-94872419D02*
X135732455Y-94872419D01*
X135732455Y-94872419D02*
X135684836Y-95348609D01*
X135684836Y-95348609D02*
X135732455Y-95300990D01*
X135732455Y-95300990D02*
X135827693Y-95253371D01*
X135827693Y-95253371D02*
X136065788Y-95253371D01*
X136065788Y-95253371D02*
X136161026Y-95300990D01*
X136161026Y-95300990D02*
X136208645Y-95348609D01*
X136208645Y-95348609D02*
X136256264Y-95443847D01*
X136256264Y-95443847D02*
X136256264Y-95681942D01*
X136256264Y-95681942D02*
X136208645Y-95777180D01*
X136208645Y-95777180D02*
X136161026Y-95824800D01*
X136161026Y-95824800D02*
X136065788Y-95872419D01*
X136065788Y-95872419D02*
X135827693Y-95872419D01*
X135827693Y-95872419D02*
X135732455Y-95824800D01*
X135732455Y-95824800D02*
X135684836Y-95777180D01*
X136589598Y-94872419D02*
X136827693Y-95872419D01*
X136827693Y-95872419D02*
X137018169Y-95158133D01*
X137018169Y-95158133D02*
X137208645Y-95872419D01*
X137208645Y-95872419D02*
X137446741Y-94872419D01*
D11*
X58369673Y-104976266D02*
X59131578Y-104976266D01*
X58750625Y-105357219D02*
X58750625Y-104595314D01*
D10*
X104756265Y-94967657D02*
X104803884Y-94920038D01*
X104803884Y-94920038D02*
X104899122Y-94872419D01*
X104899122Y-94872419D02*
X105137217Y-94872419D01*
X105137217Y-94872419D02*
X105232455Y-94920038D01*
X105232455Y-94920038D02*
X105280074Y-94967657D01*
X105280074Y-94967657D02*
X105327693Y-95062895D01*
X105327693Y-95062895D02*
X105327693Y-95158133D01*
X105327693Y-95158133D02*
X105280074Y-95300990D01*
X105280074Y-95300990D02*
X104708646Y-95872419D01*
X104708646Y-95872419D02*
X105327693Y-95872419D01*
X105756265Y-95872419D02*
X105756265Y-95205752D01*
X105756265Y-95300990D02*
X105803884Y-95253371D01*
X105803884Y-95253371D02*
X105899122Y-95205752D01*
X105899122Y-95205752D02*
X106041979Y-95205752D01*
X106041979Y-95205752D02*
X106137217Y-95253371D01*
X106137217Y-95253371D02*
X106184836Y-95348609D01*
X106184836Y-95348609D02*
X106184836Y-95872419D01*
X106184836Y-95348609D02*
X106232455Y-95253371D01*
X106232455Y-95253371D02*
X106327693Y-95205752D01*
X106327693Y-95205752D02*
X106470550Y-95205752D01*
X106470550Y-95205752D02*
X106565789Y-95253371D01*
X106565789Y-95253371D02*
X106613408Y-95348609D01*
X106613408Y-95348609D02*
X106613408Y-95872419D01*
X107041979Y-95872419D02*
X107280074Y-95872419D01*
X107280074Y-95872419D02*
X107280074Y-95681942D01*
X107280074Y-95681942D02*
X107184836Y-95634323D01*
X107184836Y-95634323D02*
X107089598Y-95539085D01*
X107089598Y-95539085D02*
X107041979Y-95396228D01*
X107041979Y-95396228D02*
X107041979Y-95158133D01*
X107041979Y-95158133D02*
X107089598Y-95015276D01*
X107089598Y-95015276D02*
X107184836Y-94920038D01*
X107184836Y-94920038D02*
X107327693Y-94872419D01*
X107327693Y-94872419D02*
X107518169Y-94872419D01*
X107518169Y-94872419D02*
X107661026Y-94920038D01*
X107661026Y-94920038D02*
X107756264Y-95015276D01*
X107756264Y-95015276D02*
X107803883Y-95158133D01*
X107803883Y-95158133D02*
X107803883Y-95396228D01*
X107803883Y-95396228D02*
X107756264Y-95539085D01*
X107756264Y-95539085D02*
X107661026Y-95634323D01*
X107661026Y-95634323D02*
X107565788Y-95681942D01*
X107565788Y-95681942D02*
X107565788Y-95872419D01*
X107565788Y-95872419D02*
X107803883Y-95872419D01*
X108946740Y-94824800D02*
X108089598Y-96110514D01*
X109756264Y-94872419D02*
X109280074Y-94872419D01*
X109280074Y-94872419D02*
X109232455Y-95348609D01*
X109232455Y-95348609D02*
X109280074Y-95300990D01*
X109280074Y-95300990D02*
X109375312Y-95253371D01*
X109375312Y-95253371D02*
X109613407Y-95253371D01*
X109613407Y-95253371D02*
X109708645Y-95300990D01*
X109708645Y-95300990D02*
X109756264Y-95348609D01*
X109756264Y-95348609D02*
X109803883Y-95443847D01*
X109803883Y-95443847D02*
X109803883Y-95681942D01*
X109803883Y-95681942D02*
X109756264Y-95777180D01*
X109756264Y-95777180D02*
X109708645Y-95824800D01*
X109708645Y-95824800D02*
X109613407Y-95872419D01*
X109613407Y-95872419D02*
X109375312Y-95872419D01*
X109375312Y-95872419D02*
X109280074Y-95824800D01*
X109280074Y-95824800D02*
X109232455Y-95777180D01*
X110137217Y-94872419D02*
X110375312Y-95872419D01*
X110375312Y-95872419D02*
X110565788Y-95158133D01*
X110565788Y-95158133D02*
X110756264Y-95872419D01*
X110756264Y-95872419D02*
X110994360Y-94872419D01*
X115232455Y-84205752D02*
X115232455Y-84872419D01*
X114994360Y-83824800D02*
X114756265Y-84539085D01*
X114756265Y-84539085D02*
X115375312Y-84539085D01*
X115661027Y-83872419D02*
X116327693Y-83872419D01*
X116327693Y-83872419D02*
X115899122Y-84872419D01*
X116899122Y-83872419D02*
X116994360Y-83872419D01*
X116994360Y-83872419D02*
X117089598Y-83920038D01*
X117089598Y-83920038D02*
X117137217Y-83967657D01*
X117137217Y-83967657D02*
X117184836Y-84062895D01*
X117184836Y-84062895D02*
X117232455Y-84253371D01*
X117232455Y-84253371D02*
X117232455Y-84491466D01*
X117232455Y-84491466D02*
X117184836Y-84681942D01*
X117184836Y-84681942D02*
X117137217Y-84777180D01*
X117137217Y-84777180D02*
X117089598Y-84824800D01*
X117089598Y-84824800D02*
X116994360Y-84872419D01*
X116994360Y-84872419D02*
X116899122Y-84872419D01*
X116899122Y-84872419D02*
X116803884Y-84824800D01*
X116803884Y-84824800D02*
X116756265Y-84777180D01*
X116756265Y-84777180D02*
X116708646Y-84681942D01*
X116708646Y-84681942D02*
X116661027Y-84491466D01*
X116661027Y-84491466D02*
X116661027Y-84253371D01*
X116661027Y-84253371D02*
X116708646Y-84062895D01*
X116708646Y-84062895D02*
X116756265Y-83967657D01*
X116756265Y-83967657D02*
X116803884Y-83920038D01*
X116803884Y-83920038D02*
X116899122Y-83872419D01*
X118375313Y-84872419D02*
X118613408Y-84872419D01*
X118613408Y-84872419D02*
X118613408Y-84681942D01*
X118613408Y-84681942D02*
X118518170Y-84634323D01*
X118518170Y-84634323D02*
X118422932Y-84539085D01*
X118422932Y-84539085D02*
X118375313Y-84396228D01*
X118375313Y-84396228D02*
X118375313Y-84158133D01*
X118375313Y-84158133D02*
X118422932Y-84015276D01*
X118422932Y-84015276D02*
X118518170Y-83920038D01*
X118518170Y-83920038D02*
X118661027Y-83872419D01*
X118661027Y-83872419D02*
X118851503Y-83872419D01*
X118851503Y-83872419D02*
X118994360Y-83920038D01*
X118994360Y-83920038D02*
X119089598Y-84015276D01*
X119089598Y-84015276D02*
X119137217Y-84158133D01*
X119137217Y-84158133D02*
X119137217Y-84396228D01*
X119137217Y-84396228D02*
X119089598Y-84539085D01*
X119089598Y-84539085D02*
X118994360Y-84634323D01*
X118994360Y-84634323D02*
X118899122Y-84681942D01*
X118899122Y-84681942D02*
X118899122Y-84872419D01*
X118899122Y-84872419D02*
X119137217Y-84872419D01*
X54303884Y-35872419D02*
X54303884Y-34872419D01*
X54303884Y-34872419D02*
X54637217Y-35586704D01*
X54637217Y-35586704D02*
X54970550Y-34872419D01*
X54970550Y-34872419D02*
X54970550Y-35872419D01*
X56113407Y-35967657D02*
X56018169Y-35920038D01*
X56018169Y-35920038D02*
X55922931Y-35824800D01*
X55922931Y-35824800D02*
X55780074Y-35681942D01*
X55780074Y-35681942D02*
X55684836Y-35634323D01*
X55684836Y-35634323D02*
X55589598Y-35634323D01*
X55637217Y-35872419D02*
X55541979Y-35824800D01*
X55541979Y-35824800D02*
X55446741Y-35729561D01*
X55446741Y-35729561D02*
X55399122Y-35539085D01*
X55399122Y-35539085D02*
X55399122Y-35205752D01*
X55399122Y-35205752D02*
X55446741Y-35015276D01*
X55446741Y-35015276D02*
X55541979Y-34920038D01*
X55541979Y-34920038D02*
X55637217Y-34872419D01*
X55637217Y-34872419D02*
X55827693Y-34872419D01*
X55827693Y-34872419D02*
X55922931Y-34920038D01*
X55922931Y-34920038D02*
X56018169Y-35015276D01*
X56018169Y-35015276D02*
X56065788Y-35205752D01*
X56065788Y-35205752D02*
X56065788Y-35539085D01*
X56065788Y-35539085D02*
X56018169Y-35729561D01*
X56018169Y-35729561D02*
X55922931Y-35824800D01*
X55922931Y-35824800D02*
X55827693Y-35872419D01*
X55827693Y-35872419D02*
X55637217Y-35872419D01*
X56446741Y-34967657D02*
X56494360Y-34920038D01*
X56494360Y-34920038D02*
X56589598Y-34872419D01*
X56589598Y-34872419D02*
X56827693Y-34872419D01*
X56827693Y-34872419D02*
X56922931Y-34920038D01*
X56922931Y-34920038D02*
X56970550Y-34967657D01*
X56970550Y-34967657D02*
X57018169Y-35062895D01*
X57018169Y-35062895D02*
X57018169Y-35158133D01*
X57018169Y-35158133D02*
X56970550Y-35300990D01*
X56970550Y-35300990D02*
X56399122Y-35872419D01*
X56399122Y-35872419D02*
X57018169Y-35872419D01*
D11*
X48369673Y-104976266D02*
X49131578Y-104976266D01*
X48750625Y-105357219D02*
X48750625Y-104595314D01*
D10*
X35827693Y-95872419D02*
X35256265Y-95872419D01*
X35541979Y-95872419D02*
X35541979Y-94872419D01*
X35541979Y-94872419D02*
X35446741Y-95015276D01*
X35446741Y-95015276D02*
X35351503Y-95110514D01*
X35351503Y-95110514D02*
X35256265Y-95158133D01*
X36446741Y-94872419D02*
X36541979Y-94872419D01*
X36541979Y-94872419D02*
X36637217Y-94920038D01*
X36637217Y-94920038D02*
X36684836Y-94967657D01*
X36684836Y-94967657D02*
X36732455Y-95062895D01*
X36732455Y-95062895D02*
X36780074Y-95253371D01*
X36780074Y-95253371D02*
X36780074Y-95491466D01*
X36780074Y-95491466D02*
X36732455Y-95681942D01*
X36732455Y-95681942D02*
X36684836Y-95777180D01*
X36684836Y-95777180D02*
X36637217Y-95824800D01*
X36637217Y-95824800D02*
X36541979Y-95872419D01*
X36541979Y-95872419D02*
X36446741Y-95872419D01*
X36446741Y-95872419D02*
X36351503Y-95824800D01*
X36351503Y-95824800D02*
X36303884Y-95777180D01*
X36303884Y-95777180D02*
X36256265Y-95681942D01*
X36256265Y-95681942D02*
X36208646Y-95491466D01*
X36208646Y-95491466D02*
X36208646Y-95253371D01*
X36208646Y-95253371D02*
X36256265Y-95062895D01*
X36256265Y-95062895D02*
X36303884Y-94967657D01*
X36303884Y-94967657D02*
X36351503Y-94920038D01*
X36351503Y-94920038D02*
X36446741Y-94872419D01*
X37399122Y-94872419D02*
X37494360Y-94872419D01*
X37494360Y-94872419D02*
X37589598Y-94920038D01*
X37589598Y-94920038D02*
X37637217Y-94967657D01*
X37637217Y-94967657D02*
X37684836Y-95062895D01*
X37684836Y-95062895D02*
X37732455Y-95253371D01*
X37732455Y-95253371D02*
X37732455Y-95491466D01*
X37732455Y-95491466D02*
X37684836Y-95681942D01*
X37684836Y-95681942D02*
X37637217Y-95777180D01*
X37637217Y-95777180D02*
X37589598Y-95824800D01*
X37589598Y-95824800D02*
X37494360Y-95872419D01*
X37494360Y-95872419D02*
X37399122Y-95872419D01*
X37399122Y-95872419D02*
X37303884Y-95824800D01*
X37303884Y-95824800D02*
X37256265Y-95777180D01*
X37256265Y-95777180D02*
X37208646Y-95681942D01*
X37208646Y-95681942D02*
X37161027Y-95491466D01*
X37161027Y-95491466D02*
X37161027Y-95253371D01*
X37161027Y-95253371D02*
X37208646Y-95062895D01*
X37208646Y-95062895D02*
X37256265Y-94967657D01*
X37256265Y-94967657D02*
X37303884Y-94920038D01*
X37303884Y-94920038D02*
X37399122Y-94872419D01*
X38161027Y-95872419D02*
X38161027Y-94872419D01*
X38256265Y-95491466D02*
X38541979Y-95872419D01*
X38541979Y-95205752D02*
X38161027Y-95586704D01*
X38922932Y-95872419D02*
X39161027Y-95872419D01*
X39161027Y-95872419D02*
X39161027Y-95681942D01*
X39161027Y-95681942D02*
X39065789Y-95634323D01*
X39065789Y-95634323D02*
X38970551Y-95539085D01*
X38970551Y-95539085D02*
X38922932Y-95396228D01*
X38922932Y-95396228D02*
X38922932Y-95158133D01*
X38922932Y-95158133D02*
X38970551Y-95015276D01*
X38970551Y-95015276D02*
X39065789Y-94920038D01*
X39065789Y-94920038D02*
X39208646Y-94872419D01*
X39208646Y-94872419D02*
X39399122Y-94872419D01*
X39399122Y-94872419D02*
X39541979Y-94920038D01*
X39541979Y-94920038D02*
X39637217Y-95015276D01*
X39637217Y-95015276D02*
X39684836Y-95158133D01*
X39684836Y-95158133D02*
X39684836Y-95396228D01*
X39684836Y-95396228D02*
X39637217Y-95539085D01*
X39637217Y-95539085D02*
X39541979Y-95634323D01*
X39541979Y-95634323D02*
X39446741Y-95681942D01*
X39446741Y-95681942D02*
X39446741Y-95872419D01*
X39446741Y-95872419D02*
X39684836Y-95872419D01*
X139280074Y-79872419D02*
X138803884Y-79872419D01*
X138803884Y-79872419D02*
X138803884Y-78872419D01*
X139613408Y-79348609D02*
X139946741Y-79348609D01*
X140089598Y-79872419D02*
X139613408Y-79872419D01*
X139613408Y-79872419D02*
X139613408Y-78872419D01*
X139613408Y-78872419D02*
X140089598Y-78872419D01*
X140518170Y-79872419D02*
X140518170Y-78872419D01*
X140518170Y-78872419D02*
X140756265Y-78872419D01*
X140756265Y-78872419D02*
X140899122Y-78920038D01*
X140899122Y-78920038D02*
X140994360Y-79015276D01*
X140994360Y-79015276D02*
X141041979Y-79110514D01*
X141041979Y-79110514D02*
X141089598Y-79300990D01*
X141089598Y-79300990D02*
X141089598Y-79443847D01*
X141089598Y-79443847D02*
X141041979Y-79634323D01*
X141041979Y-79634323D02*
X140994360Y-79729561D01*
X140994360Y-79729561D02*
X140899122Y-79824800D01*
X140899122Y-79824800D02*
X140756265Y-79872419D01*
X140756265Y-79872419D02*
X140518170Y-79872419D01*
X141470551Y-79824800D02*
X141613408Y-79872419D01*
X141613408Y-79872419D02*
X141851503Y-79872419D01*
X141851503Y-79872419D02*
X141946741Y-79824800D01*
X141946741Y-79824800D02*
X141994360Y-79777180D01*
X141994360Y-79777180D02*
X142041979Y-79681942D01*
X142041979Y-79681942D02*
X142041979Y-79586704D01*
X142041979Y-79586704D02*
X141994360Y-79491466D01*
X141994360Y-79491466D02*
X141946741Y-79443847D01*
X141946741Y-79443847D02*
X141851503Y-79396228D01*
X141851503Y-79396228D02*
X141661027Y-79348609D01*
X141661027Y-79348609D02*
X141565789Y-79300990D01*
X141565789Y-79300990D02*
X141518170Y-79253371D01*
X141518170Y-79253371D02*
X141470551Y-79158133D01*
X141470551Y-79158133D02*
X141470551Y-79062895D01*
X141470551Y-79062895D02*
X141518170Y-78967657D01*
X141518170Y-78967657D02*
X141565789Y-78920038D01*
X141565789Y-78920038D02*
X141661027Y-78872419D01*
X141661027Y-78872419D02*
X141899122Y-78872419D01*
X141899122Y-78872419D02*
X142041979Y-78920038D01*
D11*
X38369673Y-104976266D02*
X39131578Y-104976266D01*
X38750625Y-105357219D02*
X38750625Y-104595314D01*
D10*
X94232455Y-35205752D02*
X94232455Y-35872419D01*
X93994360Y-34824800D02*
X93756265Y-35539085D01*
X93756265Y-35539085D02*
X94375312Y-35539085D01*
X94756265Y-35777180D02*
X94803884Y-35824800D01*
X94803884Y-35824800D02*
X94756265Y-35872419D01*
X94756265Y-35872419D02*
X94708646Y-35824800D01*
X94708646Y-35824800D02*
X94756265Y-35777180D01*
X94756265Y-35777180D02*
X94756265Y-35872419D01*
X95137217Y-34872419D02*
X95803883Y-34872419D01*
X95803883Y-34872419D02*
X95375312Y-35872419D01*
X96184836Y-35872419D02*
X96184836Y-34872419D01*
X96756264Y-35872419D02*
X96327693Y-35300990D01*
X96756264Y-34872419D02*
X96184836Y-35443847D01*
D11*
X33779673Y-99826266D02*
X34541578Y-99826266D01*
X34160625Y-100207219D02*
X34160625Y-99445314D01*
D10*
X123827693Y-41872419D02*
X123256265Y-41872419D01*
X123541979Y-41872419D02*
X123541979Y-40872419D01*
X123541979Y-40872419D02*
X123446741Y-41015276D01*
X123446741Y-41015276D02*
X123351503Y-41110514D01*
X123351503Y-41110514D02*
X123256265Y-41158133D01*
X124446741Y-40872419D02*
X124541979Y-40872419D01*
X124541979Y-40872419D02*
X124637217Y-40920038D01*
X124637217Y-40920038D02*
X124684836Y-40967657D01*
X124684836Y-40967657D02*
X124732455Y-41062895D01*
X124732455Y-41062895D02*
X124780074Y-41253371D01*
X124780074Y-41253371D02*
X124780074Y-41491466D01*
X124780074Y-41491466D02*
X124732455Y-41681942D01*
X124732455Y-41681942D02*
X124684836Y-41777180D01*
X124684836Y-41777180D02*
X124637217Y-41824800D01*
X124637217Y-41824800D02*
X124541979Y-41872419D01*
X124541979Y-41872419D02*
X124446741Y-41872419D01*
X124446741Y-41872419D02*
X124351503Y-41824800D01*
X124351503Y-41824800D02*
X124303884Y-41777180D01*
X124303884Y-41777180D02*
X124256265Y-41681942D01*
X124256265Y-41681942D02*
X124208646Y-41491466D01*
X124208646Y-41491466D02*
X124208646Y-41253371D01*
X124208646Y-41253371D02*
X124256265Y-41062895D01*
X124256265Y-41062895D02*
X124303884Y-40967657D01*
X124303884Y-40967657D02*
X124351503Y-40920038D01*
X124351503Y-40920038D02*
X124446741Y-40872419D01*
X125399122Y-40872419D02*
X125494360Y-40872419D01*
X125494360Y-40872419D02*
X125589598Y-40920038D01*
X125589598Y-40920038D02*
X125637217Y-40967657D01*
X125637217Y-40967657D02*
X125684836Y-41062895D01*
X125684836Y-41062895D02*
X125732455Y-41253371D01*
X125732455Y-41253371D02*
X125732455Y-41491466D01*
X125732455Y-41491466D02*
X125684836Y-41681942D01*
X125684836Y-41681942D02*
X125637217Y-41777180D01*
X125637217Y-41777180D02*
X125589598Y-41824800D01*
X125589598Y-41824800D02*
X125494360Y-41872419D01*
X125494360Y-41872419D02*
X125399122Y-41872419D01*
X125399122Y-41872419D02*
X125303884Y-41824800D01*
X125303884Y-41824800D02*
X125256265Y-41777180D01*
X125256265Y-41777180D02*
X125208646Y-41681942D01*
X125208646Y-41681942D02*
X125161027Y-41491466D01*
X125161027Y-41491466D02*
X125161027Y-41253371D01*
X125161027Y-41253371D02*
X125208646Y-41062895D01*
X125208646Y-41062895D02*
X125256265Y-40967657D01*
X125256265Y-40967657D02*
X125303884Y-40920038D01*
X125303884Y-40920038D02*
X125399122Y-40872419D01*
X126161027Y-41205752D02*
X126161027Y-41872419D01*
X126161027Y-41300990D02*
X126208646Y-41253371D01*
X126208646Y-41253371D02*
X126303884Y-41205752D01*
X126303884Y-41205752D02*
X126446741Y-41205752D01*
X126446741Y-41205752D02*
X126541979Y-41253371D01*
X126541979Y-41253371D02*
X126589598Y-41348609D01*
X126589598Y-41348609D02*
X126589598Y-41872419D01*
X127399122Y-41348609D02*
X127065789Y-41348609D01*
X127065789Y-41872419D02*
X127065789Y-40872419D01*
X127065789Y-40872419D02*
X127541979Y-40872419D01*
X36803884Y-75872419D02*
X36803884Y-74872419D01*
X37851502Y-75872419D02*
X37518169Y-75396228D01*
X37280074Y-75872419D02*
X37280074Y-74872419D01*
X37280074Y-74872419D02*
X37661026Y-74872419D01*
X37661026Y-74872419D02*
X37756264Y-74920038D01*
X37756264Y-74920038D02*
X37803883Y-74967657D01*
X37803883Y-74967657D02*
X37851502Y-75062895D01*
X37851502Y-75062895D02*
X37851502Y-75205752D01*
X37851502Y-75205752D02*
X37803883Y-75300990D01*
X37803883Y-75300990D02*
X37756264Y-75348609D01*
X37756264Y-75348609D02*
X37661026Y-75396228D01*
X37661026Y-75396228D02*
X37280074Y-75396228D01*
X38613407Y-75348609D02*
X38280074Y-75348609D01*
X38280074Y-75872419D02*
X38280074Y-74872419D01*
X38280074Y-74872419D02*
X38756264Y-74872419D01*
X39565788Y-75205752D02*
X39565788Y-75872419D01*
X39327693Y-74824800D02*
X39089598Y-75539085D01*
X39089598Y-75539085D02*
X39708645Y-75539085D01*
X40137217Y-75872419D02*
X40327693Y-75872419D01*
X40327693Y-75872419D02*
X40422931Y-75824800D01*
X40422931Y-75824800D02*
X40470550Y-75777180D01*
X40470550Y-75777180D02*
X40565788Y-75634323D01*
X40565788Y-75634323D02*
X40613407Y-75443847D01*
X40613407Y-75443847D02*
X40613407Y-75062895D01*
X40613407Y-75062895D02*
X40565788Y-74967657D01*
X40565788Y-74967657D02*
X40518169Y-74920038D01*
X40518169Y-74920038D02*
X40422931Y-74872419D01*
X40422931Y-74872419D02*
X40232455Y-74872419D01*
X40232455Y-74872419D02*
X40137217Y-74920038D01*
X40137217Y-74920038D02*
X40089598Y-74967657D01*
X40089598Y-74967657D02*
X40041979Y-75062895D01*
X40041979Y-75062895D02*
X40041979Y-75300990D01*
X40041979Y-75300990D02*
X40089598Y-75396228D01*
X40089598Y-75396228D02*
X40137217Y-75443847D01*
X40137217Y-75443847D02*
X40232455Y-75491466D01*
X40232455Y-75491466D02*
X40422931Y-75491466D01*
X40422931Y-75491466D02*
X40518169Y-75443847D01*
X40518169Y-75443847D02*
X40565788Y-75396228D01*
X40565788Y-75396228D02*
X40613407Y-75300990D01*
X41232455Y-74872419D02*
X41327693Y-74872419D01*
X41327693Y-74872419D02*
X41422931Y-74920038D01*
X41422931Y-74920038D02*
X41470550Y-74967657D01*
X41470550Y-74967657D02*
X41518169Y-75062895D01*
X41518169Y-75062895D02*
X41565788Y-75253371D01*
X41565788Y-75253371D02*
X41565788Y-75491466D01*
X41565788Y-75491466D02*
X41518169Y-75681942D01*
X41518169Y-75681942D02*
X41470550Y-75777180D01*
X41470550Y-75777180D02*
X41422931Y-75824800D01*
X41422931Y-75824800D02*
X41327693Y-75872419D01*
X41327693Y-75872419D02*
X41232455Y-75872419D01*
X41232455Y-75872419D02*
X41137217Y-75824800D01*
X41137217Y-75824800D02*
X41089598Y-75777180D01*
X41089598Y-75777180D02*
X41041979Y-75681942D01*
X41041979Y-75681942D02*
X40994360Y-75491466D01*
X40994360Y-75491466D02*
X40994360Y-75253371D01*
X40994360Y-75253371D02*
X41041979Y-75062895D01*
X41041979Y-75062895D02*
X41089598Y-74967657D01*
X41089598Y-74967657D02*
X41137217Y-74920038D01*
X41137217Y-74920038D02*
X41232455Y-74872419D01*
X42470550Y-74872419D02*
X41994360Y-74872419D01*
X41994360Y-74872419D02*
X41946741Y-75348609D01*
X41946741Y-75348609D02*
X41994360Y-75300990D01*
X41994360Y-75300990D02*
X42089598Y-75253371D01*
X42089598Y-75253371D02*
X42327693Y-75253371D01*
X42327693Y-75253371D02*
X42422931Y-75300990D01*
X42422931Y-75300990D02*
X42470550Y-75348609D01*
X42470550Y-75348609D02*
X42518169Y-75443847D01*
X42518169Y-75443847D02*
X42518169Y-75681942D01*
X42518169Y-75681942D02*
X42470550Y-75777180D01*
X42470550Y-75777180D02*
X42422931Y-75824800D01*
X42422931Y-75824800D02*
X42327693Y-75872419D01*
X42327693Y-75872419D02*
X42089598Y-75872419D01*
X42089598Y-75872419D02*
X41994360Y-75824800D01*
X41994360Y-75824800D02*
X41946741Y-75777180D01*
X52780074Y-58372419D02*
X52303884Y-58372419D01*
X52303884Y-58372419D02*
X52303884Y-57372419D01*
X53113408Y-58372419D02*
X53113408Y-57372419D01*
X53113408Y-57372419D02*
X53446741Y-58086704D01*
X53446741Y-58086704D02*
X53780074Y-57372419D01*
X53780074Y-57372419D02*
X53780074Y-58372419D01*
X54208646Y-57467657D02*
X54256265Y-57420038D01*
X54256265Y-57420038D02*
X54351503Y-57372419D01*
X54351503Y-57372419D02*
X54589598Y-57372419D01*
X54589598Y-57372419D02*
X54684836Y-57420038D01*
X54684836Y-57420038D02*
X54732455Y-57467657D01*
X54732455Y-57467657D02*
X54780074Y-57562895D01*
X54780074Y-57562895D02*
X54780074Y-57658133D01*
X54780074Y-57658133D02*
X54732455Y-57800990D01*
X54732455Y-57800990D02*
X54161027Y-58372419D01*
X54161027Y-58372419D02*
X54780074Y-58372419D01*
X55684836Y-57372419D02*
X55208646Y-57372419D01*
X55208646Y-57372419D02*
X55161027Y-57848609D01*
X55161027Y-57848609D02*
X55208646Y-57800990D01*
X55208646Y-57800990D02*
X55303884Y-57753371D01*
X55303884Y-57753371D02*
X55541979Y-57753371D01*
X55541979Y-57753371D02*
X55637217Y-57800990D01*
X55637217Y-57800990D02*
X55684836Y-57848609D01*
X55684836Y-57848609D02*
X55732455Y-57943847D01*
X55732455Y-57943847D02*
X55732455Y-58181942D01*
X55732455Y-58181942D02*
X55684836Y-58277180D01*
X55684836Y-58277180D02*
X55637217Y-58324800D01*
X55637217Y-58324800D02*
X55541979Y-58372419D01*
X55541979Y-58372419D02*
X55303884Y-58372419D01*
X55303884Y-58372419D02*
X55208646Y-58324800D01*
X55208646Y-58324800D02*
X55161027Y-58277180D01*
X56208646Y-58372419D02*
X56399122Y-58372419D01*
X56399122Y-58372419D02*
X56494360Y-58324800D01*
X56494360Y-58324800D02*
X56541979Y-58277180D01*
X56541979Y-58277180D02*
X56637217Y-58134323D01*
X56637217Y-58134323D02*
X56684836Y-57943847D01*
X56684836Y-57943847D02*
X56684836Y-57562895D01*
X56684836Y-57562895D02*
X56637217Y-57467657D01*
X56637217Y-57467657D02*
X56589598Y-57420038D01*
X56589598Y-57420038D02*
X56494360Y-57372419D01*
X56494360Y-57372419D02*
X56303884Y-57372419D01*
X56303884Y-57372419D02*
X56208646Y-57420038D01*
X56208646Y-57420038D02*
X56161027Y-57467657D01*
X56161027Y-57467657D02*
X56113408Y-57562895D01*
X56113408Y-57562895D02*
X56113408Y-57800990D01*
X56113408Y-57800990D02*
X56161027Y-57896228D01*
X56161027Y-57896228D02*
X56208646Y-57943847D01*
X56208646Y-57943847D02*
X56303884Y-57991466D01*
X56303884Y-57991466D02*
X56494360Y-57991466D01*
X56494360Y-57991466D02*
X56589598Y-57943847D01*
X56589598Y-57943847D02*
X56637217Y-57896228D01*
X56637217Y-57896228D02*
X56684836Y-57800990D01*
X57541979Y-57372419D02*
X57351503Y-57372419D01*
X57351503Y-57372419D02*
X57256265Y-57420038D01*
X57256265Y-57420038D02*
X57208646Y-57467657D01*
X57208646Y-57467657D02*
X57113408Y-57610514D01*
X57113408Y-57610514D02*
X57065789Y-57800990D01*
X57065789Y-57800990D02*
X57065789Y-58181942D01*
X57065789Y-58181942D02*
X57113408Y-58277180D01*
X57113408Y-58277180D02*
X57161027Y-58324800D01*
X57161027Y-58324800D02*
X57256265Y-58372419D01*
X57256265Y-58372419D02*
X57446741Y-58372419D01*
X57446741Y-58372419D02*
X57541979Y-58324800D01*
X57541979Y-58324800D02*
X57589598Y-58277180D01*
X57589598Y-58277180D02*
X57637217Y-58181942D01*
X57637217Y-58181942D02*
X57637217Y-57943847D01*
X57637217Y-57943847D02*
X57589598Y-57848609D01*
X57589598Y-57848609D02*
X57541979Y-57800990D01*
X57541979Y-57800990D02*
X57446741Y-57753371D01*
X57446741Y-57753371D02*
X57256265Y-57753371D01*
X57256265Y-57753371D02*
X57161027Y-57800990D01*
X57161027Y-57800990D02*
X57113408Y-57848609D01*
X57113408Y-57848609D02*
X57065789Y-57943847D01*
X136457693Y-86526419D02*
X135886265Y-86526419D01*
X136171979Y-86526419D02*
X136171979Y-85526419D01*
X136171979Y-85526419D02*
X136076741Y-85669276D01*
X136076741Y-85669276D02*
X135981503Y-85764514D01*
X135981503Y-85764514D02*
X135886265Y-85812133D01*
X137076741Y-85526419D02*
X137171979Y-85526419D01*
X137171979Y-85526419D02*
X137267217Y-85574038D01*
X137267217Y-85574038D02*
X137314836Y-85621657D01*
X137314836Y-85621657D02*
X137362455Y-85716895D01*
X137362455Y-85716895D02*
X137410074Y-85907371D01*
X137410074Y-85907371D02*
X137410074Y-86145466D01*
X137410074Y-86145466D02*
X137362455Y-86335942D01*
X137362455Y-86335942D02*
X137314836Y-86431180D01*
X137314836Y-86431180D02*
X137267217Y-86478800D01*
X137267217Y-86478800D02*
X137171979Y-86526419D01*
X137171979Y-86526419D02*
X137076741Y-86526419D01*
X137076741Y-86526419D02*
X136981503Y-86478800D01*
X136981503Y-86478800D02*
X136933884Y-86431180D01*
X136933884Y-86431180D02*
X136886265Y-86335942D01*
X136886265Y-86335942D02*
X136838646Y-86145466D01*
X136838646Y-86145466D02*
X136838646Y-85907371D01*
X136838646Y-85907371D02*
X136886265Y-85716895D01*
X136886265Y-85716895D02*
X136933884Y-85621657D01*
X136933884Y-85621657D02*
X136981503Y-85574038D01*
X136981503Y-85574038D02*
X137076741Y-85526419D01*
X138029122Y-85526419D02*
X138124360Y-85526419D01*
X138124360Y-85526419D02*
X138219598Y-85574038D01*
X138219598Y-85574038D02*
X138267217Y-85621657D01*
X138267217Y-85621657D02*
X138314836Y-85716895D01*
X138314836Y-85716895D02*
X138362455Y-85907371D01*
X138362455Y-85907371D02*
X138362455Y-86145466D01*
X138362455Y-86145466D02*
X138314836Y-86335942D01*
X138314836Y-86335942D02*
X138267217Y-86431180D01*
X138267217Y-86431180D02*
X138219598Y-86478800D01*
X138219598Y-86478800D02*
X138124360Y-86526419D01*
X138124360Y-86526419D02*
X138029122Y-86526419D01*
X138029122Y-86526419D02*
X137933884Y-86478800D01*
X137933884Y-86478800D02*
X137886265Y-86431180D01*
X137886265Y-86431180D02*
X137838646Y-86335942D01*
X137838646Y-86335942D02*
X137791027Y-86145466D01*
X137791027Y-86145466D02*
X137791027Y-85907371D01*
X137791027Y-85907371D02*
X137838646Y-85716895D01*
X137838646Y-85716895D02*
X137886265Y-85621657D01*
X137886265Y-85621657D02*
X137933884Y-85574038D01*
X137933884Y-85574038D02*
X138029122Y-85526419D01*
X138981503Y-85526419D02*
X139076741Y-85526419D01*
X139076741Y-85526419D02*
X139171979Y-85574038D01*
X139171979Y-85574038D02*
X139219598Y-85621657D01*
X139219598Y-85621657D02*
X139267217Y-85716895D01*
X139267217Y-85716895D02*
X139314836Y-85907371D01*
X139314836Y-85907371D02*
X139314836Y-86145466D01*
X139314836Y-86145466D02*
X139267217Y-86335942D01*
X139267217Y-86335942D02*
X139219598Y-86431180D01*
X139219598Y-86431180D02*
X139171979Y-86478800D01*
X139171979Y-86478800D02*
X139076741Y-86526419D01*
X139076741Y-86526419D02*
X138981503Y-86526419D01*
X138981503Y-86526419D02*
X138886265Y-86478800D01*
X138886265Y-86478800D02*
X138838646Y-86431180D01*
X138838646Y-86431180D02*
X138791027Y-86335942D01*
X138791027Y-86335942D02*
X138743408Y-86145466D01*
X138743408Y-86145466D02*
X138743408Y-85907371D01*
X138743408Y-85907371D02*
X138791027Y-85716895D01*
X138791027Y-85716895D02*
X138838646Y-85621657D01*
X138838646Y-85621657D02*
X138886265Y-85574038D01*
X138886265Y-85574038D02*
X138981503Y-85526419D01*
X139743408Y-85859752D02*
X139743408Y-86859752D01*
X140219598Y-86383561D02*
X140267217Y-86478800D01*
X140267217Y-86478800D02*
X140362455Y-86526419D01*
X139743408Y-86383561D02*
X139791027Y-86478800D01*
X139791027Y-86478800D02*
X139886265Y-86526419D01*
X139886265Y-86526419D02*
X140076741Y-86526419D01*
X140076741Y-86526419D02*
X140171979Y-86478800D01*
X140171979Y-86478800D02*
X140219598Y-86383561D01*
X140219598Y-86383561D02*
X140219598Y-85859752D01*
X141124360Y-86002609D02*
X140791027Y-86002609D01*
X140791027Y-86526419D02*
X140791027Y-85526419D01*
X140791027Y-85526419D02*
X141267217Y-85526419D01*
X23324800Y-67743734D02*
X23372419Y-67600877D01*
X23372419Y-67600877D02*
X23372419Y-67362782D01*
X23372419Y-67362782D02*
X23324800Y-67267544D01*
X23324800Y-67267544D02*
X23277180Y-67219925D01*
X23277180Y-67219925D02*
X23181942Y-67172306D01*
X23181942Y-67172306D02*
X23086704Y-67172306D01*
X23086704Y-67172306D02*
X22991466Y-67219925D01*
X22991466Y-67219925D02*
X22943847Y-67267544D01*
X22943847Y-67267544D02*
X22896228Y-67362782D01*
X22896228Y-67362782D02*
X22848609Y-67553258D01*
X22848609Y-67553258D02*
X22800990Y-67648496D01*
X22800990Y-67648496D02*
X22753371Y-67696115D01*
X22753371Y-67696115D02*
X22658133Y-67743734D01*
X22658133Y-67743734D02*
X22562895Y-67743734D01*
X22562895Y-67743734D02*
X22467657Y-67696115D01*
X22467657Y-67696115D02*
X22420038Y-67648496D01*
X22420038Y-67648496D02*
X22372419Y-67553258D01*
X22372419Y-67553258D02*
X22372419Y-67315163D01*
X22372419Y-67315163D02*
X22420038Y-67172306D01*
X23372419Y-66743734D02*
X22372419Y-66743734D01*
X22372419Y-66743734D02*
X23086704Y-66410401D01*
X23086704Y-66410401D02*
X22372419Y-66077068D01*
X22372419Y-66077068D02*
X23372419Y-66077068D01*
X22848609Y-65267544D02*
X22896228Y-65124687D01*
X22896228Y-65124687D02*
X22943847Y-65077068D01*
X22943847Y-65077068D02*
X23039085Y-65029449D01*
X23039085Y-65029449D02*
X23181942Y-65029449D01*
X23181942Y-65029449D02*
X23277180Y-65077068D01*
X23277180Y-65077068D02*
X23324800Y-65124687D01*
X23324800Y-65124687D02*
X23372419Y-65219925D01*
X23372419Y-65219925D02*
X23372419Y-65600877D01*
X23372419Y-65600877D02*
X22372419Y-65600877D01*
X22372419Y-65600877D02*
X22372419Y-65267544D01*
X22372419Y-65267544D02*
X22420038Y-65172306D01*
X22420038Y-65172306D02*
X22467657Y-65124687D01*
X22467657Y-65124687D02*
X22562895Y-65077068D01*
X22562895Y-65077068D02*
X22658133Y-65077068D01*
X22658133Y-65077068D02*
X22753371Y-65124687D01*
X22753371Y-65124687D02*
X22800990Y-65172306D01*
X22800990Y-65172306D02*
X22848609Y-65267544D01*
X22848609Y-65267544D02*
X22848609Y-65600877D01*
X22372419Y-64315163D02*
X23086704Y-64315163D01*
X23086704Y-64315163D02*
X23229561Y-64362782D01*
X23229561Y-64362782D02*
X23324800Y-64458020D01*
X23324800Y-64458020D02*
X23372419Y-64600877D01*
X23372419Y-64600877D02*
X23372419Y-64696115D01*
X23372419Y-63315163D02*
X23372419Y-63886591D01*
X23372419Y-63600877D02*
X22372419Y-63600877D01*
X22372419Y-63600877D02*
X22515276Y-63696115D01*
X22515276Y-63696115D02*
X22610514Y-63791353D01*
X22610514Y-63791353D02*
X22658133Y-63886591D01*
X22800990Y-62743734D02*
X22753371Y-62838972D01*
X22753371Y-62838972D02*
X22705752Y-62886591D01*
X22705752Y-62886591D02*
X22610514Y-62934210D01*
X22610514Y-62934210D02*
X22562895Y-62934210D01*
X22562895Y-62934210D02*
X22467657Y-62886591D01*
X22467657Y-62886591D02*
X22420038Y-62838972D01*
X22420038Y-62838972D02*
X22372419Y-62743734D01*
X22372419Y-62743734D02*
X22372419Y-62553258D01*
X22372419Y-62553258D02*
X22420038Y-62458020D01*
X22420038Y-62458020D02*
X22467657Y-62410401D01*
X22467657Y-62410401D02*
X22562895Y-62362782D01*
X22562895Y-62362782D02*
X22610514Y-62362782D01*
X22610514Y-62362782D02*
X22705752Y-62410401D01*
X22705752Y-62410401D02*
X22753371Y-62458020D01*
X22753371Y-62458020D02*
X22800990Y-62553258D01*
X22800990Y-62553258D02*
X22800990Y-62743734D01*
X22800990Y-62743734D02*
X22848609Y-62838972D01*
X22848609Y-62838972D02*
X22896228Y-62886591D01*
X22896228Y-62886591D02*
X22991466Y-62934210D01*
X22991466Y-62934210D02*
X23181942Y-62934210D01*
X23181942Y-62934210D02*
X23277180Y-62886591D01*
X23277180Y-62886591D02*
X23324800Y-62838972D01*
X23324800Y-62838972D02*
X23372419Y-62743734D01*
X23372419Y-62743734D02*
X23372419Y-62553258D01*
X23372419Y-62553258D02*
X23324800Y-62458020D01*
X23324800Y-62458020D02*
X23277180Y-62410401D01*
X23277180Y-62410401D02*
X23181942Y-62362782D01*
X23181942Y-62362782D02*
X22991466Y-62362782D01*
X22991466Y-62362782D02*
X22896228Y-62410401D01*
X22896228Y-62410401D02*
X22848609Y-62458020D01*
X22848609Y-62458020D02*
X22800990Y-62553258D01*
X23277180Y-61362782D02*
X23324800Y-61410401D01*
X23324800Y-61410401D02*
X23372419Y-61553258D01*
X23372419Y-61553258D02*
X23372419Y-61648496D01*
X23372419Y-61648496D02*
X23324800Y-61791353D01*
X23324800Y-61791353D02*
X23229561Y-61886591D01*
X23229561Y-61886591D02*
X23134323Y-61934210D01*
X23134323Y-61934210D02*
X22943847Y-61981829D01*
X22943847Y-61981829D02*
X22800990Y-61981829D01*
X22800990Y-61981829D02*
X22610514Y-61934210D01*
X22610514Y-61934210D02*
X22515276Y-61886591D01*
X22515276Y-61886591D02*
X22420038Y-61791353D01*
X22420038Y-61791353D02*
X22372419Y-61648496D01*
X22372419Y-61648496D02*
X22372419Y-61553258D01*
X22372419Y-61553258D02*
X22420038Y-61410401D01*
X22420038Y-61410401D02*
X22467657Y-61362782D01*
X23086704Y-60981829D02*
X23086704Y-60505639D01*
X23372419Y-61077067D02*
X22372419Y-60743734D01*
X22372419Y-60743734D02*
X23372419Y-60410401D01*
X84303884Y-112372419D02*
X84303884Y-111372419D01*
X84303884Y-111372419D02*
X84637217Y-112086704D01*
X84637217Y-112086704D02*
X84970550Y-111372419D01*
X84970550Y-111372419D02*
X84970550Y-112372419D01*
X85446741Y-112372419D02*
X85446741Y-111372419D01*
X85446741Y-111372419D02*
X85827693Y-111372419D01*
X85827693Y-111372419D02*
X85922931Y-111420038D01*
X85922931Y-111420038D02*
X85970550Y-111467657D01*
X85970550Y-111467657D02*
X86018169Y-111562895D01*
X86018169Y-111562895D02*
X86018169Y-111705752D01*
X86018169Y-111705752D02*
X85970550Y-111800990D01*
X85970550Y-111800990D02*
X85922931Y-111848609D01*
X85922931Y-111848609D02*
X85827693Y-111896228D01*
X85827693Y-111896228D02*
X85446741Y-111896228D01*
X86970550Y-112372419D02*
X86399122Y-112372419D01*
X86684836Y-112372419D02*
X86684836Y-111372419D01*
X86684836Y-111372419D02*
X86589598Y-111515276D01*
X86589598Y-111515276D02*
X86494360Y-111610514D01*
X86494360Y-111610514D02*
X86399122Y-111658133D01*
X87875312Y-111372419D02*
X87399122Y-111372419D01*
X87399122Y-111372419D02*
X87351503Y-111848609D01*
X87351503Y-111848609D02*
X87399122Y-111800990D01*
X87399122Y-111800990D02*
X87494360Y-111753371D01*
X87494360Y-111753371D02*
X87732455Y-111753371D01*
X87732455Y-111753371D02*
X87827693Y-111800990D01*
X87827693Y-111800990D02*
X87875312Y-111848609D01*
X87875312Y-111848609D02*
X87922931Y-111943847D01*
X87922931Y-111943847D02*
X87922931Y-112181942D01*
X87922931Y-112181942D02*
X87875312Y-112277180D01*
X87875312Y-112277180D02*
X87827693Y-112324800D01*
X87827693Y-112324800D02*
X87732455Y-112372419D01*
X87732455Y-112372419D02*
X87494360Y-112372419D01*
X87494360Y-112372419D02*
X87399122Y-112324800D01*
X87399122Y-112324800D02*
X87351503Y-112277180D01*
X88494360Y-111800990D02*
X88399122Y-111753371D01*
X88399122Y-111753371D02*
X88351503Y-111705752D01*
X88351503Y-111705752D02*
X88303884Y-111610514D01*
X88303884Y-111610514D02*
X88303884Y-111562895D01*
X88303884Y-111562895D02*
X88351503Y-111467657D01*
X88351503Y-111467657D02*
X88399122Y-111420038D01*
X88399122Y-111420038D02*
X88494360Y-111372419D01*
X88494360Y-111372419D02*
X88684836Y-111372419D01*
X88684836Y-111372419D02*
X88780074Y-111420038D01*
X88780074Y-111420038D02*
X88827693Y-111467657D01*
X88827693Y-111467657D02*
X88875312Y-111562895D01*
X88875312Y-111562895D02*
X88875312Y-111610514D01*
X88875312Y-111610514D02*
X88827693Y-111705752D01*
X88827693Y-111705752D02*
X88780074Y-111753371D01*
X88780074Y-111753371D02*
X88684836Y-111800990D01*
X88684836Y-111800990D02*
X88494360Y-111800990D01*
X88494360Y-111800990D02*
X88399122Y-111848609D01*
X88399122Y-111848609D02*
X88351503Y-111896228D01*
X88351503Y-111896228D02*
X88303884Y-111991466D01*
X88303884Y-111991466D02*
X88303884Y-112181942D01*
X88303884Y-112181942D02*
X88351503Y-112277180D01*
X88351503Y-112277180D02*
X88399122Y-112324800D01*
X88399122Y-112324800D02*
X88494360Y-112372419D01*
X88494360Y-112372419D02*
X88684836Y-112372419D01*
X88684836Y-112372419D02*
X88780074Y-112324800D01*
X88780074Y-112324800D02*
X88827693Y-112277180D01*
X88827693Y-112277180D02*
X88875312Y-112181942D01*
X88875312Y-112181942D02*
X88875312Y-111991466D01*
X88875312Y-111991466D02*
X88827693Y-111896228D01*
X88827693Y-111896228D02*
X88780074Y-111848609D01*
X88780074Y-111848609D02*
X88684836Y-111800990D01*
X89732455Y-111705752D02*
X89732455Y-112372419D01*
X89494360Y-111324800D02*
X89256265Y-112039085D01*
X89256265Y-112039085D02*
X89875312Y-112039085D01*
D11*
X33779673Y-89826266D02*
X34541578Y-89826266D01*
X34160625Y-90207219D02*
X34160625Y-89445314D01*
D10*
X33637217Y-43348609D02*
X33780074Y-43396228D01*
X33780074Y-43396228D02*
X33827693Y-43443847D01*
X33827693Y-43443847D02*
X33875312Y-43539085D01*
X33875312Y-43539085D02*
X33875312Y-43681942D01*
X33875312Y-43681942D02*
X33827693Y-43777180D01*
X33827693Y-43777180D02*
X33780074Y-43824800D01*
X33780074Y-43824800D02*
X33684836Y-43872419D01*
X33684836Y-43872419D02*
X33303884Y-43872419D01*
X33303884Y-43872419D02*
X33303884Y-42872419D01*
X33303884Y-42872419D02*
X33637217Y-42872419D01*
X33637217Y-42872419D02*
X33732455Y-42920038D01*
X33732455Y-42920038D02*
X33780074Y-42967657D01*
X33780074Y-42967657D02*
X33827693Y-43062895D01*
X33827693Y-43062895D02*
X33827693Y-43158133D01*
X33827693Y-43158133D02*
X33780074Y-43253371D01*
X33780074Y-43253371D02*
X33732455Y-43300990D01*
X33732455Y-43300990D02*
X33637217Y-43348609D01*
X33637217Y-43348609D02*
X33303884Y-43348609D01*
X34256265Y-43586704D02*
X34732455Y-43586704D01*
X34161027Y-43872419D02*
X34494360Y-42872419D01*
X34494360Y-42872419D02*
X34827693Y-43872419D01*
X35018170Y-42872419D02*
X35589598Y-42872419D01*
X35303884Y-43872419D02*
X35303884Y-42872419D01*
X35780075Y-42872419D02*
X36351503Y-42872419D01*
X36065789Y-43872419D02*
X36065789Y-42872419D01*
X36684837Y-43348609D02*
X37018170Y-43348609D01*
X37161027Y-43872419D02*
X36684837Y-43872419D01*
X36684837Y-43872419D02*
X36684837Y-42872419D01*
X36684837Y-42872419D02*
X37161027Y-42872419D01*
X38161027Y-43872419D02*
X37827694Y-43396228D01*
X37589599Y-43872419D02*
X37589599Y-42872419D01*
X37589599Y-42872419D02*
X37970551Y-42872419D01*
X37970551Y-42872419D02*
X38065789Y-42920038D01*
X38065789Y-42920038D02*
X38113408Y-42967657D01*
X38113408Y-42967657D02*
X38161027Y-43062895D01*
X38161027Y-43062895D02*
X38161027Y-43205752D01*
X38161027Y-43205752D02*
X38113408Y-43300990D01*
X38113408Y-43300990D02*
X38065789Y-43348609D01*
X38065789Y-43348609D02*
X37970551Y-43396228D01*
X37970551Y-43396228D02*
X37589599Y-43396228D01*
X38589599Y-43872419D02*
X38589599Y-42872419D01*
X39065789Y-43348609D02*
X39399122Y-43348609D01*
X39541979Y-43872419D02*
X39065789Y-43872419D01*
X39065789Y-43872419D02*
X39065789Y-42872419D01*
X39065789Y-42872419D02*
X39541979Y-42872419D01*
X129303884Y-65372419D02*
X129303884Y-64372419D01*
X129303884Y-64372419D02*
X129684836Y-64372419D01*
X129684836Y-64372419D02*
X129780074Y-64420038D01*
X129780074Y-64420038D02*
X129827693Y-64467657D01*
X129827693Y-64467657D02*
X129875312Y-64562895D01*
X129875312Y-64562895D02*
X129875312Y-64705752D01*
X129875312Y-64705752D02*
X129827693Y-64800990D01*
X129827693Y-64800990D02*
X129780074Y-64848609D01*
X129780074Y-64848609D02*
X129684836Y-64896228D01*
X129684836Y-64896228D02*
X129303884Y-64896228D01*
X130303884Y-65372419D02*
X130303884Y-64372419D01*
X130303884Y-64372419D02*
X130875312Y-65372419D01*
X130875312Y-65372419D02*
X130875312Y-64372419D01*
X131303884Y-64467657D02*
X131351503Y-64420038D01*
X131351503Y-64420038D02*
X131446741Y-64372419D01*
X131446741Y-64372419D02*
X131684836Y-64372419D01*
X131684836Y-64372419D02*
X131780074Y-64420038D01*
X131780074Y-64420038D02*
X131827693Y-64467657D01*
X131827693Y-64467657D02*
X131875312Y-64562895D01*
X131875312Y-64562895D02*
X131875312Y-64658133D01*
X131875312Y-64658133D02*
X131827693Y-64800990D01*
X131827693Y-64800990D02*
X131256265Y-65372419D01*
X131256265Y-65372419D02*
X131875312Y-65372419D01*
X132256265Y-64467657D02*
X132303884Y-64420038D01*
X132303884Y-64420038D02*
X132399122Y-64372419D01*
X132399122Y-64372419D02*
X132637217Y-64372419D01*
X132637217Y-64372419D02*
X132732455Y-64420038D01*
X132732455Y-64420038D02*
X132780074Y-64467657D01*
X132780074Y-64467657D02*
X132827693Y-64562895D01*
X132827693Y-64562895D02*
X132827693Y-64658133D01*
X132827693Y-64658133D02*
X132780074Y-64800990D01*
X132780074Y-64800990D02*
X132208646Y-65372419D01*
X132208646Y-65372419D02*
X132827693Y-65372419D01*
X133208646Y-64467657D02*
X133256265Y-64420038D01*
X133256265Y-64420038D02*
X133351503Y-64372419D01*
X133351503Y-64372419D02*
X133589598Y-64372419D01*
X133589598Y-64372419D02*
X133684836Y-64420038D01*
X133684836Y-64420038D02*
X133732455Y-64467657D01*
X133732455Y-64467657D02*
X133780074Y-64562895D01*
X133780074Y-64562895D02*
X133780074Y-64658133D01*
X133780074Y-64658133D02*
X133732455Y-64800990D01*
X133732455Y-64800990D02*
X133161027Y-65372419D01*
X133161027Y-65372419D02*
X133780074Y-65372419D01*
X134161027Y-64467657D02*
X134208646Y-64420038D01*
X134208646Y-64420038D02*
X134303884Y-64372419D01*
X134303884Y-64372419D02*
X134541979Y-64372419D01*
X134541979Y-64372419D02*
X134637217Y-64420038D01*
X134637217Y-64420038D02*
X134684836Y-64467657D01*
X134684836Y-64467657D02*
X134732455Y-64562895D01*
X134732455Y-64562895D02*
X134732455Y-64658133D01*
X134732455Y-64658133D02*
X134684836Y-64800990D01*
X134684836Y-64800990D02*
X134113408Y-65372419D01*
X134113408Y-65372419D02*
X134732455Y-65372419D01*
X135113408Y-65086704D02*
X135589598Y-65086704D01*
X135018170Y-65372419D02*
X135351503Y-64372419D01*
X135351503Y-64372419D02*
X135684836Y-65372419D01*
X130827693Y-75372419D02*
X130256265Y-75372419D01*
X130541979Y-75372419D02*
X130541979Y-74372419D01*
X130541979Y-74372419D02*
X130446741Y-74515276D01*
X130446741Y-74515276D02*
X130351503Y-74610514D01*
X130351503Y-74610514D02*
X130256265Y-74658133D01*
X131256265Y-75372419D02*
X131256265Y-74372419D01*
X131351503Y-74991466D02*
X131637217Y-75372419D01*
X131637217Y-74705752D02*
X131256265Y-75086704D01*
X132018170Y-75372419D02*
X132256265Y-75372419D01*
X132256265Y-75372419D02*
X132256265Y-75181942D01*
X132256265Y-75181942D02*
X132161027Y-75134323D01*
X132161027Y-75134323D02*
X132065789Y-75039085D01*
X132065789Y-75039085D02*
X132018170Y-74896228D01*
X132018170Y-74896228D02*
X132018170Y-74658133D01*
X132018170Y-74658133D02*
X132065789Y-74515276D01*
X132065789Y-74515276D02*
X132161027Y-74420038D01*
X132161027Y-74420038D02*
X132303884Y-74372419D01*
X132303884Y-74372419D02*
X132494360Y-74372419D01*
X132494360Y-74372419D02*
X132637217Y-74420038D01*
X132637217Y-74420038D02*
X132732455Y-74515276D01*
X132732455Y-74515276D02*
X132780074Y-74658133D01*
X132780074Y-74658133D02*
X132780074Y-74896228D01*
X132780074Y-74896228D02*
X132732455Y-75039085D01*
X132732455Y-75039085D02*
X132637217Y-75134323D01*
X132637217Y-75134323D02*
X132541979Y-75181942D01*
X132541979Y-75181942D02*
X132541979Y-75372419D01*
X132541979Y-75372419D02*
X132780074Y-75372419D01*
D11*
X68369673Y-104976266D02*
X69131578Y-104976266D01*
X68750625Y-105357219D02*
X68750625Y-104595314D01*
D10*
X140280074Y-55372419D02*
X139803884Y-55372419D01*
X139803884Y-55372419D02*
X139803884Y-54372419D01*
X141184836Y-55277180D02*
X141137217Y-55324800D01*
X141137217Y-55324800D02*
X140994360Y-55372419D01*
X140994360Y-55372419D02*
X140899122Y-55372419D01*
X140899122Y-55372419D02*
X140756265Y-55324800D01*
X140756265Y-55324800D02*
X140661027Y-55229561D01*
X140661027Y-55229561D02*
X140613408Y-55134323D01*
X140613408Y-55134323D02*
X140565789Y-54943847D01*
X140565789Y-54943847D02*
X140565789Y-54800990D01*
X140565789Y-54800990D02*
X140613408Y-54610514D01*
X140613408Y-54610514D02*
X140661027Y-54515276D01*
X140661027Y-54515276D02*
X140756265Y-54420038D01*
X140756265Y-54420038D02*
X140899122Y-54372419D01*
X140899122Y-54372419D02*
X140994360Y-54372419D01*
X140994360Y-54372419D02*
X141137217Y-54420038D01*
X141137217Y-54420038D02*
X141184836Y-54467657D01*
X141613408Y-55372419D02*
X141613408Y-54372419D01*
X141613408Y-54372419D02*
X141851503Y-54372419D01*
X141851503Y-54372419D02*
X141994360Y-54420038D01*
X141994360Y-54420038D02*
X142089598Y-54515276D01*
X142089598Y-54515276D02*
X142137217Y-54610514D01*
X142137217Y-54610514D02*
X142184836Y-54800990D01*
X142184836Y-54800990D02*
X142184836Y-54943847D01*
X142184836Y-54943847D02*
X142137217Y-55134323D01*
X142137217Y-55134323D02*
X142089598Y-55229561D01*
X142089598Y-55229561D02*
X141994360Y-55324800D01*
X141994360Y-55324800D02*
X141851503Y-55372419D01*
X141851503Y-55372419D02*
X141613408Y-55372419D01*
X123827693Y-45942419D02*
X123256265Y-45942419D01*
X123541979Y-45942419D02*
X123541979Y-44942419D01*
X123541979Y-44942419D02*
X123446741Y-45085276D01*
X123446741Y-45085276D02*
X123351503Y-45180514D01*
X123351503Y-45180514D02*
X123256265Y-45228133D01*
X124446741Y-44942419D02*
X124541979Y-44942419D01*
X124541979Y-44942419D02*
X124637217Y-44990038D01*
X124637217Y-44990038D02*
X124684836Y-45037657D01*
X124684836Y-45037657D02*
X124732455Y-45132895D01*
X124732455Y-45132895D02*
X124780074Y-45323371D01*
X124780074Y-45323371D02*
X124780074Y-45561466D01*
X124780074Y-45561466D02*
X124732455Y-45751942D01*
X124732455Y-45751942D02*
X124684836Y-45847180D01*
X124684836Y-45847180D02*
X124637217Y-45894800D01*
X124637217Y-45894800D02*
X124541979Y-45942419D01*
X124541979Y-45942419D02*
X124446741Y-45942419D01*
X124446741Y-45942419D02*
X124351503Y-45894800D01*
X124351503Y-45894800D02*
X124303884Y-45847180D01*
X124303884Y-45847180D02*
X124256265Y-45751942D01*
X124256265Y-45751942D02*
X124208646Y-45561466D01*
X124208646Y-45561466D02*
X124208646Y-45323371D01*
X124208646Y-45323371D02*
X124256265Y-45132895D01*
X124256265Y-45132895D02*
X124303884Y-45037657D01*
X124303884Y-45037657D02*
X124351503Y-44990038D01*
X124351503Y-44990038D02*
X124446741Y-44942419D01*
X125399122Y-44942419D02*
X125494360Y-44942419D01*
X125494360Y-44942419D02*
X125589598Y-44990038D01*
X125589598Y-44990038D02*
X125637217Y-45037657D01*
X125637217Y-45037657D02*
X125684836Y-45132895D01*
X125684836Y-45132895D02*
X125732455Y-45323371D01*
X125732455Y-45323371D02*
X125732455Y-45561466D01*
X125732455Y-45561466D02*
X125684836Y-45751942D01*
X125684836Y-45751942D02*
X125637217Y-45847180D01*
X125637217Y-45847180D02*
X125589598Y-45894800D01*
X125589598Y-45894800D02*
X125494360Y-45942419D01*
X125494360Y-45942419D02*
X125399122Y-45942419D01*
X125399122Y-45942419D02*
X125303884Y-45894800D01*
X125303884Y-45894800D02*
X125256265Y-45847180D01*
X125256265Y-45847180D02*
X125208646Y-45751942D01*
X125208646Y-45751942D02*
X125161027Y-45561466D01*
X125161027Y-45561466D02*
X125161027Y-45323371D01*
X125161027Y-45323371D02*
X125208646Y-45132895D01*
X125208646Y-45132895D02*
X125256265Y-45037657D01*
X125256265Y-45037657D02*
X125303884Y-44990038D01*
X125303884Y-44990038D02*
X125399122Y-44942419D01*
X126161027Y-45275752D02*
X126161027Y-45942419D01*
X126161027Y-45370990D02*
X126208646Y-45323371D01*
X126208646Y-45323371D02*
X126303884Y-45275752D01*
X126303884Y-45275752D02*
X126446741Y-45275752D01*
X126446741Y-45275752D02*
X126541979Y-45323371D01*
X126541979Y-45323371D02*
X126589598Y-45418609D01*
X126589598Y-45418609D02*
X126589598Y-45942419D01*
X127399122Y-45418609D02*
X127065789Y-45418609D01*
X127065789Y-45942419D02*
X127065789Y-44942419D01*
X127065789Y-44942419D02*
X127541979Y-44942419D01*
X135803884Y-40348609D02*
X136137217Y-40348609D01*
X136280074Y-40872419D02*
X135803884Y-40872419D01*
X135803884Y-40872419D02*
X135803884Y-39872419D01*
X135803884Y-39872419D02*
X136280074Y-39872419D01*
X136708646Y-40872419D02*
X136708646Y-39872419D01*
X136708646Y-39872419D02*
X137280074Y-40872419D01*
X137280074Y-40872419D02*
X137280074Y-39872419D01*
X138327693Y-40777180D02*
X138280074Y-40824800D01*
X138280074Y-40824800D02*
X138137217Y-40872419D01*
X138137217Y-40872419D02*
X138041979Y-40872419D01*
X138041979Y-40872419D02*
X137899122Y-40824800D01*
X137899122Y-40824800D02*
X137803884Y-40729561D01*
X137803884Y-40729561D02*
X137756265Y-40634323D01*
X137756265Y-40634323D02*
X137708646Y-40443847D01*
X137708646Y-40443847D02*
X137708646Y-40300990D01*
X137708646Y-40300990D02*
X137756265Y-40110514D01*
X137756265Y-40110514D02*
X137803884Y-40015276D01*
X137803884Y-40015276D02*
X137899122Y-39920038D01*
X137899122Y-39920038D02*
X138041979Y-39872419D01*
X138041979Y-39872419D02*
X138137217Y-39872419D01*
X138137217Y-39872419D02*
X138280074Y-39920038D01*
X138280074Y-39920038D02*
X138327693Y-39967657D01*
X138946741Y-39872419D02*
X139137217Y-39872419D01*
X139137217Y-39872419D02*
X139232455Y-39920038D01*
X139232455Y-39920038D02*
X139327693Y-40015276D01*
X139327693Y-40015276D02*
X139375312Y-40205752D01*
X139375312Y-40205752D02*
X139375312Y-40539085D01*
X139375312Y-40539085D02*
X139327693Y-40729561D01*
X139327693Y-40729561D02*
X139232455Y-40824800D01*
X139232455Y-40824800D02*
X139137217Y-40872419D01*
X139137217Y-40872419D02*
X138946741Y-40872419D01*
X138946741Y-40872419D02*
X138851503Y-40824800D01*
X138851503Y-40824800D02*
X138756265Y-40729561D01*
X138756265Y-40729561D02*
X138708646Y-40539085D01*
X138708646Y-40539085D02*
X138708646Y-40205752D01*
X138708646Y-40205752D02*
X138756265Y-40015276D01*
X138756265Y-40015276D02*
X138851503Y-39920038D01*
X138851503Y-39920038D02*
X138946741Y-39872419D01*
X139803884Y-40872419D02*
X139803884Y-39872419D01*
X139803884Y-39872419D02*
X140041979Y-39872419D01*
X140041979Y-39872419D02*
X140184836Y-39920038D01*
X140184836Y-39920038D02*
X140280074Y-40015276D01*
X140280074Y-40015276D02*
X140327693Y-40110514D01*
X140327693Y-40110514D02*
X140375312Y-40300990D01*
X140375312Y-40300990D02*
X140375312Y-40443847D01*
X140375312Y-40443847D02*
X140327693Y-40634323D01*
X140327693Y-40634323D02*
X140280074Y-40729561D01*
X140280074Y-40729561D02*
X140184836Y-40824800D01*
X140184836Y-40824800D02*
X140041979Y-40872419D01*
X140041979Y-40872419D02*
X139803884Y-40872419D01*
X140803884Y-40348609D02*
X141137217Y-40348609D01*
X141280074Y-40872419D02*
X140803884Y-40872419D01*
X140803884Y-40872419D02*
X140803884Y-39872419D01*
X140803884Y-39872419D02*
X141280074Y-39872419D01*
X142280074Y-40872419D02*
X141946741Y-40396228D01*
X141708646Y-40872419D02*
X141708646Y-39872419D01*
X141708646Y-39872419D02*
X142089598Y-39872419D01*
X142089598Y-39872419D02*
X142184836Y-39920038D01*
X142184836Y-39920038D02*
X142232455Y-39967657D01*
X142232455Y-39967657D02*
X142280074Y-40062895D01*
X142280074Y-40062895D02*
X142280074Y-40205752D01*
X142280074Y-40205752D02*
X142232455Y-40300990D01*
X142232455Y-40300990D02*
X142184836Y-40348609D01*
X142184836Y-40348609D02*
X142089598Y-40396228D01*
X142089598Y-40396228D02*
X141708646Y-40396228D01*
X79803884Y-35872419D02*
X79803884Y-34872419D01*
X79803884Y-34872419D02*
X80041979Y-34872419D01*
X80041979Y-34872419D02*
X80184836Y-34920038D01*
X80184836Y-34920038D02*
X80280074Y-35015276D01*
X80280074Y-35015276D02*
X80327693Y-35110514D01*
X80327693Y-35110514D02*
X80375312Y-35300990D01*
X80375312Y-35300990D02*
X80375312Y-35443847D01*
X80375312Y-35443847D02*
X80327693Y-35634323D01*
X80327693Y-35634323D02*
X80280074Y-35729561D01*
X80280074Y-35729561D02*
X80184836Y-35824800D01*
X80184836Y-35824800D02*
X80041979Y-35872419D01*
X80041979Y-35872419D02*
X79803884Y-35872419D01*
X80756265Y-35824800D02*
X80899122Y-35872419D01*
X80899122Y-35872419D02*
X81137217Y-35872419D01*
X81137217Y-35872419D02*
X81232455Y-35824800D01*
X81232455Y-35824800D02*
X81280074Y-35777180D01*
X81280074Y-35777180D02*
X81327693Y-35681942D01*
X81327693Y-35681942D02*
X81327693Y-35586704D01*
X81327693Y-35586704D02*
X81280074Y-35491466D01*
X81280074Y-35491466D02*
X81232455Y-35443847D01*
X81232455Y-35443847D02*
X81137217Y-35396228D01*
X81137217Y-35396228D02*
X80946741Y-35348609D01*
X80946741Y-35348609D02*
X80851503Y-35300990D01*
X80851503Y-35300990D02*
X80803884Y-35253371D01*
X80803884Y-35253371D02*
X80756265Y-35158133D01*
X80756265Y-35158133D02*
X80756265Y-35062895D01*
X80756265Y-35062895D02*
X80803884Y-34967657D01*
X80803884Y-34967657D02*
X80851503Y-34920038D01*
X80851503Y-34920038D02*
X80946741Y-34872419D01*
X80946741Y-34872419D02*
X81184836Y-34872419D01*
X81184836Y-34872419D02*
X81327693Y-34920038D01*
X82280074Y-35872419D02*
X81708646Y-35872419D01*
X81994360Y-35872419D02*
X81994360Y-34872419D01*
X81994360Y-34872419D02*
X81899122Y-35015276D01*
X81899122Y-35015276D02*
X81803884Y-35110514D01*
X81803884Y-35110514D02*
X81708646Y-35158133D01*
X82851503Y-35300990D02*
X82756265Y-35253371D01*
X82756265Y-35253371D02*
X82708646Y-35205752D01*
X82708646Y-35205752D02*
X82661027Y-35110514D01*
X82661027Y-35110514D02*
X82661027Y-35062895D01*
X82661027Y-35062895D02*
X82708646Y-34967657D01*
X82708646Y-34967657D02*
X82756265Y-34920038D01*
X82756265Y-34920038D02*
X82851503Y-34872419D01*
X82851503Y-34872419D02*
X83041979Y-34872419D01*
X83041979Y-34872419D02*
X83137217Y-34920038D01*
X83137217Y-34920038D02*
X83184836Y-34967657D01*
X83184836Y-34967657D02*
X83232455Y-35062895D01*
X83232455Y-35062895D02*
X83232455Y-35110514D01*
X83232455Y-35110514D02*
X83184836Y-35205752D01*
X83184836Y-35205752D02*
X83137217Y-35253371D01*
X83137217Y-35253371D02*
X83041979Y-35300990D01*
X83041979Y-35300990D02*
X82851503Y-35300990D01*
X82851503Y-35300990D02*
X82756265Y-35348609D01*
X82756265Y-35348609D02*
X82708646Y-35396228D01*
X82708646Y-35396228D02*
X82661027Y-35491466D01*
X82661027Y-35491466D02*
X82661027Y-35681942D01*
X82661027Y-35681942D02*
X82708646Y-35777180D01*
X82708646Y-35777180D02*
X82756265Y-35824800D01*
X82756265Y-35824800D02*
X82851503Y-35872419D01*
X82851503Y-35872419D02*
X83041979Y-35872419D01*
X83041979Y-35872419D02*
X83137217Y-35824800D01*
X83137217Y-35824800D02*
X83184836Y-35777180D01*
X83184836Y-35777180D02*
X83232455Y-35681942D01*
X83232455Y-35681942D02*
X83232455Y-35491466D01*
X83232455Y-35491466D02*
X83184836Y-35396228D01*
X83184836Y-35396228D02*
X83137217Y-35348609D01*
X83137217Y-35348609D02*
X83041979Y-35300990D01*
X83994360Y-35348609D02*
X84137217Y-35396228D01*
X84137217Y-35396228D02*
X84184836Y-35443847D01*
X84184836Y-35443847D02*
X84232455Y-35539085D01*
X84232455Y-35539085D02*
X84232455Y-35681942D01*
X84232455Y-35681942D02*
X84184836Y-35777180D01*
X84184836Y-35777180D02*
X84137217Y-35824800D01*
X84137217Y-35824800D02*
X84041979Y-35872419D01*
X84041979Y-35872419D02*
X83661027Y-35872419D01*
X83661027Y-35872419D02*
X83661027Y-34872419D01*
X83661027Y-34872419D02*
X83994360Y-34872419D01*
X83994360Y-34872419D02*
X84089598Y-34920038D01*
X84089598Y-34920038D02*
X84137217Y-34967657D01*
X84137217Y-34967657D02*
X84184836Y-35062895D01*
X84184836Y-35062895D02*
X84184836Y-35158133D01*
X84184836Y-35158133D02*
X84137217Y-35253371D01*
X84137217Y-35253371D02*
X84089598Y-35300990D01*
X84089598Y-35300990D02*
X83994360Y-35348609D01*
X83994360Y-35348609D02*
X83661027Y-35348609D01*
X84613408Y-34967657D02*
X84661027Y-34920038D01*
X84661027Y-34920038D02*
X84756265Y-34872419D01*
X84756265Y-34872419D02*
X84994360Y-34872419D01*
X84994360Y-34872419D02*
X85089598Y-34920038D01*
X85089598Y-34920038D02*
X85137217Y-34967657D01*
X85137217Y-34967657D02*
X85184836Y-35062895D01*
X85184836Y-35062895D02*
X85184836Y-35158133D01*
X85184836Y-35158133D02*
X85137217Y-35300990D01*
X85137217Y-35300990D02*
X84565789Y-35872419D01*
X84565789Y-35872419D02*
X85184836Y-35872419D01*
X85803884Y-34872419D02*
X85899122Y-34872419D01*
X85899122Y-34872419D02*
X85994360Y-34920038D01*
X85994360Y-34920038D02*
X86041979Y-34967657D01*
X86041979Y-34967657D02*
X86089598Y-35062895D01*
X86089598Y-35062895D02*
X86137217Y-35253371D01*
X86137217Y-35253371D02*
X86137217Y-35491466D01*
X86137217Y-35491466D02*
X86089598Y-35681942D01*
X86089598Y-35681942D02*
X86041979Y-35777180D01*
X86041979Y-35777180D02*
X85994360Y-35824800D01*
X85994360Y-35824800D02*
X85899122Y-35872419D01*
X85899122Y-35872419D02*
X85803884Y-35872419D01*
X85803884Y-35872419D02*
X85708646Y-35824800D01*
X85708646Y-35824800D02*
X85661027Y-35777180D01*
X85661027Y-35777180D02*
X85613408Y-35681942D01*
X85613408Y-35681942D02*
X85565789Y-35491466D01*
X85565789Y-35491466D02*
X85565789Y-35253371D01*
X85565789Y-35253371D02*
X85613408Y-35062895D01*
X85613408Y-35062895D02*
X85661027Y-34967657D01*
X85661027Y-34967657D02*
X85708646Y-34920038D01*
X85708646Y-34920038D02*
X85803884Y-34872419D01*
D11*
X33779673Y-79826266D02*
X34541578Y-79826266D01*
X34160625Y-80207219D02*
X34160625Y-79445314D01*
D10*
X45637217Y-51738665D02*
X45303884Y-51738665D01*
X45303884Y-52262475D02*
X45303884Y-51262475D01*
X45303884Y-51262475D02*
X45780074Y-51262475D01*
X46589598Y-51595808D02*
X46589598Y-52262475D01*
X46161027Y-51595808D02*
X46161027Y-52119617D01*
X46161027Y-52119617D02*
X46208646Y-52214856D01*
X46208646Y-52214856D02*
X46303884Y-52262475D01*
X46303884Y-52262475D02*
X46446741Y-52262475D01*
X46446741Y-52262475D02*
X46541979Y-52214856D01*
X46541979Y-52214856D02*
X46589598Y-52167236D01*
X47018170Y-52214856D02*
X47113408Y-52262475D01*
X47113408Y-52262475D02*
X47303884Y-52262475D01*
X47303884Y-52262475D02*
X47399122Y-52214856D01*
X47399122Y-52214856D02*
X47446741Y-52119617D01*
X47446741Y-52119617D02*
X47446741Y-52071998D01*
X47446741Y-52071998D02*
X47399122Y-51976760D01*
X47399122Y-51976760D02*
X47303884Y-51929141D01*
X47303884Y-51929141D02*
X47161027Y-51929141D01*
X47161027Y-51929141D02*
X47065789Y-51881522D01*
X47065789Y-51881522D02*
X47018170Y-51786284D01*
X47018170Y-51786284D02*
X47018170Y-51738665D01*
X47018170Y-51738665D02*
X47065789Y-51643427D01*
X47065789Y-51643427D02*
X47161027Y-51595808D01*
X47161027Y-51595808D02*
X47303884Y-51595808D01*
X47303884Y-51595808D02*
X47399122Y-51643427D01*
X47875313Y-52262475D02*
X47875313Y-51595808D01*
X47875313Y-51262475D02*
X47827694Y-51310094D01*
X47827694Y-51310094D02*
X47875313Y-51357713D01*
X47875313Y-51357713D02*
X47922932Y-51310094D01*
X47922932Y-51310094D02*
X47875313Y-51262475D01*
X47875313Y-51262475D02*
X47875313Y-51357713D01*
X48351503Y-52262475D02*
X48351503Y-51262475D01*
X48351503Y-51643427D02*
X48446741Y-51595808D01*
X48446741Y-51595808D02*
X48637217Y-51595808D01*
X48637217Y-51595808D02*
X48732455Y-51643427D01*
X48732455Y-51643427D02*
X48780074Y-51691046D01*
X48780074Y-51691046D02*
X48827693Y-51786284D01*
X48827693Y-51786284D02*
X48827693Y-52071998D01*
X48827693Y-52071998D02*
X48780074Y-52167236D01*
X48780074Y-52167236D02*
X48732455Y-52214856D01*
X48732455Y-52214856D02*
X48637217Y-52262475D01*
X48637217Y-52262475D02*
X48446741Y-52262475D01*
X48446741Y-52262475D02*
X48351503Y-52214856D01*
X49399122Y-52262475D02*
X49303884Y-52214856D01*
X49303884Y-52214856D02*
X49256265Y-52119617D01*
X49256265Y-52119617D02*
X49256265Y-51262475D01*
X50161027Y-52214856D02*
X50065789Y-52262475D01*
X50065789Y-52262475D02*
X49875313Y-52262475D01*
X49875313Y-52262475D02*
X49780075Y-52214856D01*
X49780075Y-52214856D02*
X49732456Y-52119617D01*
X49732456Y-52119617D02*
X49732456Y-51738665D01*
X49732456Y-51738665D02*
X49780075Y-51643427D01*
X49780075Y-51643427D02*
X49875313Y-51595808D01*
X49875313Y-51595808D02*
X50065789Y-51595808D01*
X50065789Y-51595808D02*
X50161027Y-51643427D01*
X50161027Y-51643427D02*
X50208646Y-51738665D01*
X50208646Y-51738665D02*
X50208646Y-51833903D01*
X50208646Y-51833903D02*
X49732456Y-51929141D01*
X45208646Y-52872419D02*
X45827693Y-52872419D01*
X45827693Y-52872419D02*
X45494360Y-53253371D01*
X45494360Y-53253371D02*
X45637217Y-53253371D01*
X45637217Y-53253371D02*
X45732455Y-53300990D01*
X45732455Y-53300990D02*
X45780074Y-53348609D01*
X45780074Y-53348609D02*
X45827693Y-53443847D01*
X45827693Y-53443847D02*
X45827693Y-53681942D01*
X45827693Y-53681942D02*
X45780074Y-53777180D01*
X45780074Y-53777180D02*
X45732455Y-53824800D01*
X45732455Y-53824800D02*
X45637217Y-53872419D01*
X45637217Y-53872419D02*
X45351503Y-53872419D01*
X45351503Y-53872419D02*
X45256265Y-53824800D01*
X45256265Y-53824800D02*
X45208646Y-53777180D01*
X46446741Y-52872419D02*
X46541979Y-52872419D01*
X46541979Y-52872419D02*
X46637217Y-52920038D01*
X46637217Y-52920038D02*
X46684836Y-52967657D01*
X46684836Y-52967657D02*
X46732455Y-53062895D01*
X46732455Y-53062895D02*
X46780074Y-53253371D01*
X46780074Y-53253371D02*
X46780074Y-53491466D01*
X46780074Y-53491466D02*
X46732455Y-53681942D01*
X46732455Y-53681942D02*
X46684836Y-53777180D01*
X46684836Y-53777180D02*
X46637217Y-53824800D01*
X46637217Y-53824800D02*
X46541979Y-53872419D01*
X46541979Y-53872419D02*
X46446741Y-53872419D01*
X46446741Y-53872419D02*
X46351503Y-53824800D01*
X46351503Y-53824800D02*
X46303884Y-53777180D01*
X46303884Y-53777180D02*
X46256265Y-53681942D01*
X46256265Y-53681942D02*
X46208646Y-53491466D01*
X46208646Y-53491466D02*
X46208646Y-53253371D01*
X46208646Y-53253371D02*
X46256265Y-53062895D01*
X46256265Y-53062895D02*
X46303884Y-52967657D01*
X46303884Y-52967657D02*
X46351503Y-52920038D01*
X46351503Y-52920038D02*
X46446741Y-52872419D01*
X47161027Y-53586704D02*
X47637217Y-53586704D01*
X47065789Y-53872419D02*
X47399122Y-52872419D01*
X47399122Y-52872419D02*
X47732455Y-53872419D01*
X68303884Y-35872419D02*
X68303884Y-34872419D01*
X68303884Y-34872419D02*
X68637217Y-35586704D01*
X68637217Y-35586704D02*
X68970550Y-34872419D01*
X68970550Y-34872419D02*
X68970550Y-35872419D01*
X70113407Y-35967657D02*
X70018169Y-35920038D01*
X70018169Y-35920038D02*
X69922931Y-35824800D01*
X69922931Y-35824800D02*
X69780074Y-35681942D01*
X69780074Y-35681942D02*
X69684836Y-35634323D01*
X69684836Y-35634323D02*
X69589598Y-35634323D01*
X69637217Y-35872419D02*
X69541979Y-35824800D01*
X69541979Y-35824800D02*
X69446741Y-35729561D01*
X69446741Y-35729561D02*
X69399122Y-35539085D01*
X69399122Y-35539085D02*
X69399122Y-35205752D01*
X69399122Y-35205752D02*
X69446741Y-35015276D01*
X69446741Y-35015276D02*
X69541979Y-34920038D01*
X69541979Y-34920038D02*
X69637217Y-34872419D01*
X69637217Y-34872419D02*
X69827693Y-34872419D01*
X69827693Y-34872419D02*
X69922931Y-34920038D01*
X69922931Y-34920038D02*
X70018169Y-35015276D01*
X70018169Y-35015276D02*
X70065788Y-35205752D01*
X70065788Y-35205752D02*
X70065788Y-35539085D01*
X70065788Y-35539085D02*
X70018169Y-35729561D01*
X70018169Y-35729561D02*
X69922931Y-35824800D01*
X69922931Y-35824800D02*
X69827693Y-35872419D01*
X69827693Y-35872419D02*
X69637217Y-35872419D01*
X70399122Y-34872419D02*
X71065788Y-34872419D01*
X71065788Y-34872419D02*
X70637217Y-35872419D01*
X83242455Y-86205752D02*
X83242455Y-86872419D01*
X83004360Y-85824800D02*
X82766265Y-86539085D01*
X82766265Y-86539085D02*
X83385312Y-86539085D01*
X83671027Y-85872419D02*
X84337693Y-85872419D01*
X84337693Y-85872419D02*
X83909122Y-86872419D01*
X84718646Y-86205752D02*
X84718646Y-87205752D01*
X85194836Y-86729561D02*
X85242455Y-86824800D01*
X85242455Y-86824800D02*
X85337693Y-86872419D01*
X84718646Y-86729561D02*
X84766265Y-86824800D01*
X84766265Y-86824800D02*
X84861503Y-86872419D01*
X84861503Y-86872419D02*
X85051979Y-86872419D01*
X85051979Y-86872419D02*
X85147217Y-86824800D01*
X85147217Y-86824800D02*
X85194836Y-86729561D01*
X85194836Y-86729561D02*
X85194836Y-86205752D01*
X86099598Y-86348609D02*
X85766265Y-86348609D01*
X85766265Y-86872419D02*
X85766265Y-85872419D01*
X85766265Y-85872419D02*
X86242455Y-85872419D01*
D11*
X33779673Y-109826266D02*
X34541578Y-109826266D01*
X34160625Y-110207219D02*
X34160625Y-109445314D01*
D10*
X138803884Y-108872419D02*
X138803884Y-107872419D01*
X139280074Y-108872419D02*
X139280074Y-107872419D01*
X139280074Y-107872419D02*
X139851502Y-108872419D01*
X139851502Y-108872419D02*
X139851502Y-107872419D01*
X140280074Y-108586704D02*
X140756264Y-108586704D01*
X140184836Y-108872419D02*
X140518169Y-107872419D01*
X140518169Y-107872419D02*
X140851502Y-108872419D01*
X141137217Y-107967657D02*
X141184836Y-107920038D01*
X141184836Y-107920038D02*
X141280074Y-107872419D01*
X141280074Y-107872419D02*
X141518169Y-107872419D01*
X141518169Y-107872419D02*
X141613407Y-107920038D01*
X141613407Y-107920038D02*
X141661026Y-107967657D01*
X141661026Y-107967657D02*
X141708645Y-108062895D01*
X141708645Y-108062895D02*
X141708645Y-108158133D01*
X141708645Y-108158133D02*
X141661026Y-108300990D01*
X141661026Y-108300990D02*
X141089598Y-108872419D01*
X141089598Y-108872419D02*
X141708645Y-108872419D01*
X142089598Y-107967657D02*
X142137217Y-107920038D01*
X142137217Y-107920038D02*
X142232455Y-107872419D01*
X142232455Y-107872419D02*
X142470550Y-107872419D01*
X142470550Y-107872419D02*
X142565788Y-107920038D01*
X142565788Y-107920038D02*
X142613407Y-107967657D01*
X142613407Y-107967657D02*
X142661026Y-108062895D01*
X142661026Y-108062895D02*
X142661026Y-108158133D01*
X142661026Y-108158133D02*
X142613407Y-108300990D01*
X142613407Y-108300990D02*
X142041979Y-108872419D01*
X142041979Y-108872419D02*
X142661026Y-108872419D01*
X143518169Y-107872419D02*
X143327693Y-107872419D01*
X143327693Y-107872419D02*
X143232455Y-107920038D01*
X143232455Y-107920038D02*
X143184836Y-107967657D01*
X143184836Y-107967657D02*
X143089598Y-108110514D01*
X143089598Y-108110514D02*
X143041979Y-108300990D01*
X143041979Y-108300990D02*
X143041979Y-108681942D01*
X143041979Y-108681942D02*
X143089598Y-108777180D01*
X143089598Y-108777180D02*
X143137217Y-108824800D01*
X143137217Y-108824800D02*
X143232455Y-108872419D01*
X143232455Y-108872419D02*
X143422931Y-108872419D01*
X143422931Y-108872419D02*
X143518169Y-108824800D01*
X143518169Y-108824800D02*
X143565788Y-108777180D01*
X143565788Y-108777180D02*
X143613407Y-108681942D01*
X143613407Y-108681942D02*
X143613407Y-108443847D01*
X143613407Y-108443847D02*
X143565788Y-108348609D01*
X143565788Y-108348609D02*
X143518169Y-108300990D01*
X143518169Y-108300990D02*
X143422931Y-108253371D01*
X143422931Y-108253371D02*
X143232455Y-108253371D01*
X143232455Y-108253371D02*
X143137217Y-108300990D01*
X143137217Y-108300990D02*
X143089598Y-108348609D01*
X143089598Y-108348609D02*
X143041979Y-108443847D01*
X143803884Y-108967657D02*
X144565788Y-108967657D01*
X145280074Y-107872419D02*
X144803884Y-107872419D01*
X144803884Y-107872419D02*
X144756265Y-108348609D01*
X144756265Y-108348609D02*
X144803884Y-108300990D01*
X144803884Y-108300990D02*
X144899122Y-108253371D01*
X144899122Y-108253371D02*
X145137217Y-108253371D01*
X145137217Y-108253371D02*
X145232455Y-108300990D01*
X145232455Y-108300990D02*
X145280074Y-108348609D01*
X145280074Y-108348609D02*
X145327693Y-108443847D01*
X145327693Y-108443847D02*
X145327693Y-108681942D01*
X145327693Y-108681942D02*
X145280074Y-108777180D01*
X145280074Y-108777180D02*
X145232455Y-108824800D01*
X145232455Y-108824800D02*
X145137217Y-108872419D01*
X145137217Y-108872419D02*
X144899122Y-108872419D01*
X144899122Y-108872419D02*
X144803884Y-108824800D01*
X144803884Y-108824800D02*
X144756265Y-108777180D01*
X145613408Y-107872419D02*
X145946741Y-108872419D01*
X145946741Y-108872419D02*
X146280074Y-107872419D01*
X108803884Y-114372419D02*
X108803884Y-113372419D01*
X109280074Y-114372419D02*
X109280074Y-113372419D01*
X109280074Y-113372419D02*
X109851502Y-114372419D01*
X109851502Y-114372419D02*
X109851502Y-113372419D01*
X110280074Y-114086704D02*
X110756264Y-114086704D01*
X110184836Y-114372419D02*
X110518169Y-113372419D01*
X110518169Y-113372419D02*
X110851502Y-114372419D01*
X111137217Y-113467657D02*
X111184836Y-113420038D01*
X111184836Y-113420038D02*
X111280074Y-113372419D01*
X111280074Y-113372419D02*
X111518169Y-113372419D01*
X111518169Y-113372419D02*
X111613407Y-113420038D01*
X111613407Y-113420038D02*
X111661026Y-113467657D01*
X111661026Y-113467657D02*
X111708645Y-113562895D01*
X111708645Y-113562895D02*
X111708645Y-113658133D01*
X111708645Y-113658133D02*
X111661026Y-113800990D01*
X111661026Y-113800990D02*
X111089598Y-114372419D01*
X111089598Y-114372419D02*
X111708645Y-114372419D01*
X112089598Y-113467657D02*
X112137217Y-113420038D01*
X112137217Y-113420038D02*
X112232455Y-113372419D01*
X112232455Y-113372419D02*
X112470550Y-113372419D01*
X112470550Y-113372419D02*
X112565788Y-113420038D01*
X112565788Y-113420038D02*
X112613407Y-113467657D01*
X112613407Y-113467657D02*
X112661026Y-113562895D01*
X112661026Y-113562895D02*
X112661026Y-113658133D01*
X112661026Y-113658133D02*
X112613407Y-113800990D01*
X112613407Y-113800990D02*
X112041979Y-114372419D01*
X112041979Y-114372419D02*
X112661026Y-114372419D01*
X113518169Y-113372419D02*
X113327693Y-113372419D01*
X113327693Y-113372419D02*
X113232455Y-113420038D01*
X113232455Y-113420038D02*
X113184836Y-113467657D01*
X113184836Y-113467657D02*
X113089598Y-113610514D01*
X113089598Y-113610514D02*
X113041979Y-113800990D01*
X113041979Y-113800990D02*
X113041979Y-114181942D01*
X113041979Y-114181942D02*
X113089598Y-114277180D01*
X113089598Y-114277180D02*
X113137217Y-114324800D01*
X113137217Y-114324800D02*
X113232455Y-114372419D01*
X113232455Y-114372419D02*
X113422931Y-114372419D01*
X113422931Y-114372419D02*
X113518169Y-114324800D01*
X113518169Y-114324800D02*
X113565788Y-114277180D01*
X113565788Y-114277180D02*
X113613407Y-114181942D01*
X113613407Y-114181942D02*
X113613407Y-113943847D01*
X113613407Y-113943847D02*
X113565788Y-113848609D01*
X113565788Y-113848609D02*
X113518169Y-113800990D01*
X113518169Y-113800990D02*
X113422931Y-113753371D01*
X113422931Y-113753371D02*
X113232455Y-113753371D01*
X113232455Y-113753371D02*
X113137217Y-113800990D01*
X113137217Y-113800990D02*
X113089598Y-113848609D01*
X113089598Y-113848609D02*
X113041979Y-113943847D01*
X113803884Y-114467657D02*
X114565788Y-114467657D01*
X115327693Y-114372419D02*
X114756265Y-114372419D01*
X115041979Y-114372419D02*
X115041979Y-113372419D01*
X115041979Y-113372419D02*
X114946741Y-113515276D01*
X114946741Y-113515276D02*
X114851503Y-113610514D01*
X114851503Y-113610514D02*
X114756265Y-113658133D01*
X115708646Y-113467657D02*
X115756265Y-113420038D01*
X115756265Y-113420038D02*
X115851503Y-113372419D01*
X115851503Y-113372419D02*
X116089598Y-113372419D01*
X116089598Y-113372419D02*
X116184836Y-113420038D01*
X116184836Y-113420038D02*
X116232455Y-113467657D01*
X116232455Y-113467657D02*
X116280074Y-113562895D01*
X116280074Y-113562895D02*
X116280074Y-113658133D01*
X116280074Y-113658133D02*
X116232455Y-113800990D01*
X116232455Y-113800990D02*
X115661027Y-114372419D01*
X115661027Y-114372419D02*
X116280074Y-114372419D01*
X116565789Y-113372419D02*
X116899122Y-114372419D01*
X116899122Y-114372419D02*
X117232455Y-113372419D01*
X38827693Y-69372419D02*
X38256265Y-69372419D01*
X38541979Y-69372419D02*
X38541979Y-68372419D01*
X38541979Y-68372419D02*
X38446741Y-68515276D01*
X38446741Y-68515276D02*
X38351503Y-68610514D01*
X38351503Y-68610514D02*
X38256265Y-68658133D01*
X39446741Y-68372419D02*
X39541979Y-68372419D01*
X39541979Y-68372419D02*
X39637217Y-68420038D01*
X39637217Y-68420038D02*
X39684836Y-68467657D01*
X39684836Y-68467657D02*
X39732455Y-68562895D01*
X39732455Y-68562895D02*
X39780074Y-68753371D01*
X39780074Y-68753371D02*
X39780074Y-68991466D01*
X39780074Y-68991466D02*
X39732455Y-69181942D01*
X39732455Y-69181942D02*
X39684836Y-69277180D01*
X39684836Y-69277180D02*
X39637217Y-69324800D01*
X39637217Y-69324800D02*
X39541979Y-69372419D01*
X39541979Y-69372419D02*
X39446741Y-69372419D01*
X39446741Y-69372419D02*
X39351503Y-69324800D01*
X39351503Y-69324800D02*
X39303884Y-69277180D01*
X39303884Y-69277180D02*
X39256265Y-69181942D01*
X39256265Y-69181942D02*
X39208646Y-68991466D01*
X39208646Y-68991466D02*
X39208646Y-68753371D01*
X39208646Y-68753371D02*
X39256265Y-68562895D01*
X39256265Y-68562895D02*
X39303884Y-68467657D01*
X39303884Y-68467657D02*
X39351503Y-68420038D01*
X39351503Y-68420038D02*
X39446741Y-68372419D01*
X40399122Y-68372419D02*
X40494360Y-68372419D01*
X40494360Y-68372419D02*
X40589598Y-68420038D01*
X40589598Y-68420038D02*
X40637217Y-68467657D01*
X40637217Y-68467657D02*
X40684836Y-68562895D01*
X40684836Y-68562895D02*
X40732455Y-68753371D01*
X40732455Y-68753371D02*
X40732455Y-68991466D01*
X40732455Y-68991466D02*
X40684836Y-69181942D01*
X40684836Y-69181942D02*
X40637217Y-69277180D01*
X40637217Y-69277180D02*
X40589598Y-69324800D01*
X40589598Y-69324800D02*
X40494360Y-69372419D01*
X40494360Y-69372419D02*
X40399122Y-69372419D01*
X40399122Y-69372419D02*
X40303884Y-69324800D01*
X40303884Y-69324800D02*
X40256265Y-69277180D01*
X40256265Y-69277180D02*
X40208646Y-69181942D01*
X40208646Y-69181942D02*
X40161027Y-68991466D01*
X40161027Y-68991466D02*
X40161027Y-68753371D01*
X40161027Y-68753371D02*
X40208646Y-68562895D01*
X40208646Y-68562895D02*
X40256265Y-68467657D01*
X40256265Y-68467657D02*
X40303884Y-68420038D01*
X40303884Y-68420038D02*
X40399122Y-68372419D01*
X41161027Y-68705752D02*
X41161027Y-69705752D01*
X41637217Y-69229561D02*
X41684836Y-69324800D01*
X41684836Y-69324800D02*
X41780074Y-69372419D01*
X41161027Y-69229561D02*
X41208646Y-69324800D01*
X41208646Y-69324800D02*
X41303884Y-69372419D01*
X41303884Y-69372419D02*
X41494360Y-69372419D01*
X41494360Y-69372419D02*
X41589598Y-69324800D01*
X41589598Y-69324800D02*
X41637217Y-69229561D01*
X41637217Y-69229561D02*
X41637217Y-68705752D01*
X42541979Y-68848609D02*
X42208646Y-68848609D01*
X42208646Y-69372419D02*
X42208646Y-68372419D01*
X42208646Y-68372419D02*
X42684836Y-68372419D01*
X137137217Y-69348609D02*
X137280074Y-69396228D01*
X137280074Y-69396228D02*
X137327693Y-69443847D01*
X137327693Y-69443847D02*
X137375312Y-69539085D01*
X137375312Y-69539085D02*
X137375312Y-69681942D01*
X137375312Y-69681942D02*
X137327693Y-69777180D01*
X137327693Y-69777180D02*
X137280074Y-69824800D01*
X137280074Y-69824800D02*
X137184836Y-69872419D01*
X137184836Y-69872419D02*
X136803884Y-69872419D01*
X136803884Y-69872419D02*
X136803884Y-68872419D01*
X136803884Y-68872419D02*
X137137217Y-68872419D01*
X137137217Y-68872419D02*
X137232455Y-68920038D01*
X137232455Y-68920038D02*
X137280074Y-68967657D01*
X137280074Y-68967657D02*
X137327693Y-69062895D01*
X137327693Y-69062895D02*
X137327693Y-69158133D01*
X137327693Y-69158133D02*
X137280074Y-69253371D01*
X137280074Y-69253371D02*
X137232455Y-69300990D01*
X137232455Y-69300990D02*
X137137217Y-69348609D01*
X137137217Y-69348609D02*
X136803884Y-69348609D01*
X137803884Y-68872419D02*
X137803884Y-69681942D01*
X137803884Y-69681942D02*
X137851503Y-69777180D01*
X137851503Y-69777180D02*
X137899122Y-69824800D01*
X137899122Y-69824800D02*
X137994360Y-69872419D01*
X137994360Y-69872419D02*
X138184836Y-69872419D01*
X138184836Y-69872419D02*
X138280074Y-69824800D01*
X138280074Y-69824800D02*
X138327693Y-69777180D01*
X138327693Y-69777180D02*
X138375312Y-69681942D01*
X138375312Y-69681942D02*
X138375312Y-68872419D01*
X138756265Y-68872419D02*
X139422931Y-68872419D01*
X139422931Y-68872419D02*
X138756265Y-69872419D01*
X138756265Y-69872419D02*
X139422931Y-69872419D01*
X139708646Y-68872419D02*
X140375312Y-68872419D01*
X140375312Y-68872419D02*
X139708646Y-69872419D01*
X139708646Y-69872419D02*
X140375312Y-69872419D01*
X140756265Y-69348609D02*
X141089598Y-69348609D01*
X141232455Y-69872419D02*
X140756265Y-69872419D01*
X140756265Y-69872419D02*
X140756265Y-68872419D01*
X140756265Y-68872419D02*
X141232455Y-68872419D01*
X142232455Y-69872419D02*
X141899122Y-69396228D01*
X141661027Y-69872419D02*
X141661027Y-68872419D01*
X141661027Y-68872419D02*
X142041979Y-68872419D01*
X142041979Y-68872419D02*
X142137217Y-68920038D01*
X142137217Y-68920038D02*
X142184836Y-68967657D01*
X142184836Y-68967657D02*
X142232455Y-69062895D01*
X142232455Y-69062895D02*
X142232455Y-69205752D01*
X142232455Y-69205752D02*
X142184836Y-69300990D01*
X142184836Y-69300990D02*
X142137217Y-69348609D01*
X142137217Y-69348609D02*
X142041979Y-69396228D01*
X142041979Y-69396228D02*
X141661027Y-69396228D01*
D12*
X118333333Y-80084819D02*
X118000000Y-79608628D01*
X117761905Y-80084819D02*
X117761905Y-79084819D01*
X117761905Y-79084819D02*
X118142857Y-79084819D01*
X118142857Y-79084819D02*
X118238095Y-79132438D01*
X118238095Y-79132438D02*
X118285714Y-79180057D01*
X118285714Y-79180057D02*
X118333333Y-79275295D01*
X118333333Y-79275295D02*
X118333333Y-79418152D01*
X118333333Y-79418152D02*
X118285714Y-79513390D01*
X118285714Y-79513390D02*
X118238095Y-79561009D01*
X118238095Y-79561009D02*
X118142857Y-79608628D01*
X118142857Y-79608628D02*
X117761905Y-79608628D01*
X119190476Y-79084819D02*
X119000000Y-79084819D01*
X119000000Y-79084819D02*
X118904762Y-79132438D01*
X118904762Y-79132438D02*
X118857143Y-79180057D01*
X118857143Y-79180057D02*
X118761905Y-79322914D01*
X118761905Y-79322914D02*
X118714286Y-79513390D01*
X118714286Y-79513390D02*
X118714286Y-79894342D01*
X118714286Y-79894342D02*
X118761905Y-79989580D01*
X118761905Y-79989580D02*
X118809524Y-80037200D01*
X118809524Y-80037200D02*
X118904762Y-80084819D01*
X118904762Y-80084819D02*
X119095238Y-80084819D01*
X119095238Y-80084819D02*
X119190476Y-80037200D01*
X119190476Y-80037200D02*
X119238095Y-79989580D01*
X119238095Y-79989580D02*
X119285714Y-79894342D01*
X119285714Y-79894342D02*
X119285714Y-79656247D01*
X119285714Y-79656247D02*
X119238095Y-79561009D01*
X119238095Y-79561009D02*
X119190476Y-79513390D01*
X119190476Y-79513390D02*
X119095238Y-79465771D01*
X119095238Y-79465771D02*
X118904762Y-79465771D01*
X118904762Y-79465771D02*
X118809524Y-79513390D01*
X118809524Y-79513390D02*
X118761905Y-79561009D01*
X118761905Y-79561009D02*
X118714286Y-79656247D01*
D10*
X40650476Y-110357419D02*
X40650476Y-111071704D01*
X40650476Y-111071704D02*
X40602857Y-111214561D01*
X40602857Y-111214561D02*
X40507619Y-111309800D01*
X40507619Y-111309800D02*
X40364762Y-111357419D01*
X40364762Y-111357419D02*
X40269524Y-111357419D01*
X41650476Y-111357419D02*
X41079048Y-111357419D01*
X41364762Y-111357419D02*
X41364762Y-110357419D01*
X41364762Y-110357419D02*
X41269524Y-110500276D01*
X41269524Y-110500276D02*
X41174286Y-110595514D01*
X41174286Y-110595514D02*
X41079048Y-110643133D01*
X42507619Y-110690752D02*
X42507619Y-111357419D01*
X42269524Y-110309800D02*
X42031429Y-111024085D01*
X42031429Y-111024085D02*
X42650476Y-111024085D01*
D12*
X128126722Y-59212018D02*
X128031484Y-59164399D01*
X128031484Y-59164399D02*
X127936246Y-59069161D01*
X127936246Y-59069161D02*
X127793389Y-58926303D01*
X127793389Y-58926303D02*
X127698151Y-58878684D01*
X127698151Y-58878684D02*
X127602913Y-58878684D01*
X127650532Y-59116780D02*
X127555294Y-59069161D01*
X127555294Y-59069161D02*
X127460056Y-58973922D01*
X127460056Y-58973922D02*
X127412437Y-58783446D01*
X127412437Y-58783446D02*
X127412437Y-58450113D01*
X127412437Y-58450113D02*
X127460056Y-58259637D01*
X127460056Y-58259637D02*
X127555294Y-58164399D01*
X127555294Y-58164399D02*
X127650532Y-58116780D01*
X127650532Y-58116780D02*
X127841008Y-58116780D01*
X127841008Y-58116780D02*
X127936246Y-58164399D01*
X127936246Y-58164399D02*
X128031484Y-58259637D01*
X128031484Y-58259637D02*
X128079103Y-58450113D01*
X128079103Y-58450113D02*
X128079103Y-58783446D01*
X128079103Y-58783446D02*
X128031484Y-58973922D01*
X128031484Y-58973922D02*
X127936246Y-59069161D01*
X127936246Y-59069161D02*
X127841008Y-59116780D01*
X127841008Y-59116780D02*
X127650532Y-59116780D01*
X128460056Y-58212018D02*
X128507675Y-58164399D01*
X128507675Y-58164399D02*
X128602913Y-58116780D01*
X128602913Y-58116780D02*
X128841008Y-58116780D01*
X128841008Y-58116780D02*
X128936246Y-58164399D01*
X128936246Y-58164399D02*
X128983865Y-58212018D01*
X128983865Y-58212018D02*
X129031484Y-58307256D01*
X129031484Y-58307256D02*
X129031484Y-58402494D01*
X129031484Y-58402494D02*
X128983865Y-58545351D01*
X128983865Y-58545351D02*
X128412437Y-59116780D01*
X128412437Y-59116780D02*
X129031484Y-59116780D01*
D10*
X50650476Y-110457419D02*
X50650476Y-111171704D01*
X50650476Y-111171704D02*
X50602857Y-111314561D01*
X50602857Y-111314561D02*
X50507619Y-111409800D01*
X50507619Y-111409800D02*
X50364762Y-111457419D01*
X50364762Y-111457419D02*
X50269524Y-111457419D01*
X51650476Y-111457419D02*
X51079048Y-111457419D01*
X51364762Y-111457419D02*
X51364762Y-110457419D01*
X51364762Y-110457419D02*
X51269524Y-110600276D01*
X51269524Y-110600276D02*
X51174286Y-110695514D01*
X51174286Y-110695514D02*
X51079048Y-110743133D01*
X52555238Y-110457419D02*
X52079048Y-110457419D01*
X52079048Y-110457419D02*
X52031429Y-110933609D01*
X52031429Y-110933609D02*
X52079048Y-110885990D01*
X52079048Y-110885990D02*
X52174286Y-110838371D01*
X52174286Y-110838371D02*
X52412381Y-110838371D01*
X52412381Y-110838371D02*
X52507619Y-110885990D01*
X52507619Y-110885990D02*
X52555238Y-110933609D01*
X52555238Y-110933609D02*
X52602857Y-111028847D01*
X52602857Y-111028847D02*
X52602857Y-111266942D01*
X52602857Y-111266942D02*
X52555238Y-111362180D01*
X52555238Y-111362180D02*
X52507619Y-111409800D01*
X52507619Y-111409800D02*
X52412381Y-111457419D01*
X52412381Y-111457419D02*
X52174286Y-111457419D01*
X52174286Y-111457419D02*
X52079048Y-111409800D01*
X52079048Y-111409800D02*
X52031429Y-111362180D01*
D12*
X64285714Y-41169104D02*
X64761904Y-41169104D01*
X64190476Y-41454819D02*
X64523809Y-40454819D01*
X64523809Y-40454819D02*
X64857142Y-41454819D01*
X65714285Y-41454819D02*
X65142857Y-41454819D01*
X65428571Y-41454819D02*
X65428571Y-40454819D01*
X65428571Y-40454819D02*
X65333333Y-40597676D01*
X65333333Y-40597676D02*
X65238095Y-40692914D01*
X65238095Y-40692914D02*
X65142857Y-40740533D01*
X116297000Y-55615580D02*
X116344619Y-55663200D01*
X116344619Y-55663200D02*
X116297000Y-55710819D01*
X116297000Y-55710819D02*
X116249381Y-55663200D01*
X116249381Y-55663200D02*
X116297000Y-55615580D01*
X116297000Y-55615580D02*
X116297000Y-55710819D01*
D10*
X28542580Y-91650476D02*
X27828295Y-91650476D01*
X27828295Y-91650476D02*
X27685438Y-91602857D01*
X27685438Y-91602857D02*
X27590200Y-91507619D01*
X27590200Y-91507619D02*
X27542580Y-91364762D01*
X27542580Y-91364762D02*
X27542580Y-91269524D01*
X27542580Y-92650476D02*
X27542580Y-92079048D01*
X27542580Y-92364762D02*
X28542580Y-92364762D01*
X28542580Y-92364762D02*
X28399723Y-92269524D01*
X28399723Y-92269524D02*
X28304485Y-92174286D01*
X28304485Y-92174286D02*
X28256866Y-92079048D01*
X27542580Y-93602857D02*
X27542580Y-93031429D01*
X27542580Y-93317143D02*
X28542580Y-93317143D01*
X28542580Y-93317143D02*
X28399723Y-93221905D01*
X28399723Y-93221905D02*
X28304485Y-93126667D01*
X28304485Y-93126667D02*
X28256866Y-93031429D01*
D12*
X144166666Y-31954819D02*
X144166666Y-32669104D01*
X144166666Y-32669104D02*
X144119047Y-32811961D01*
X144119047Y-32811961D02*
X144023809Y-32907200D01*
X144023809Y-32907200D02*
X143880952Y-32954819D01*
X143880952Y-32954819D02*
X143785714Y-32954819D01*
X144595238Y-32050057D02*
X144642857Y-32002438D01*
X144642857Y-32002438D02*
X144738095Y-31954819D01*
X144738095Y-31954819D02*
X144976190Y-31954819D01*
X144976190Y-31954819D02*
X145071428Y-32002438D01*
X145071428Y-32002438D02*
X145119047Y-32050057D01*
X145119047Y-32050057D02*
X145166666Y-32145295D01*
X145166666Y-32145295D02*
X145166666Y-32240533D01*
X145166666Y-32240533D02*
X145119047Y-32383390D01*
X145119047Y-32383390D02*
X144547619Y-32954819D01*
X144547619Y-32954819D02*
X145166666Y-32954819D01*
D10*
X91582580Y-98738095D02*
X90773057Y-98738095D01*
X90773057Y-98738095D02*
X90677819Y-98785714D01*
X90677819Y-98785714D02*
X90630200Y-98833333D01*
X90630200Y-98833333D02*
X90582580Y-98928571D01*
X90582580Y-98928571D02*
X90582580Y-99119047D01*
X90582580Y-99119047D02*
X90630200Y-99214285D01*
X90630200Y-99214285D02*
X90677819Y-99261904D01*
X90677819Y-99261904D02*
X90773057Y-99309523D01*
X90773057Y-99309523D02*
X91582580Y-99309523D01*
X91487342Y-99738095D02*
X91534961Y-99785714D01*
X91534961Y-99785714D02*
X91582580Y-99880952D01*
X91582580Y-99880952D02*
X91582580Y-100119047D01*
X91582580Y-100119047D02*
X91534961Y-100214285D01*
X91534961Y-100214285D02*
X91487342Y-100261904D01*
X91487342Y-100261904D02*
X91392104Y-100309523D01*
X91392104Y-100309523D02*
X91296866Y-100309523D01*
X91296866Y-100309523D02*
X91154009Y-100261904D01*
X91154009Y-100261904D02*
X90582580Y-99690476D01*
X90582580Y-99690476D02*
X90582580Y-100309523D01*
D12*
X37430682Y-59609580D02*
X37383063Y-59657200D01*
X37383063Y-59657200D02*
X37240206Y-59704819D01*
X37240206Y-59704819D02*
X37144968Y-59704819D01*
X37144968Y-59704819D02*
X37002111Y-59657200D01*
X37002111Y-59657200D02*
X36906873Y-59561961D01*
X36906873Y-59561961D02*
X36859254Y-59466723D01*
X36859254Y-59466723D02*
X36811635Y-59276247D01*
X36811635Y-59276247D02*
X36811635Y-59133390D01*
X36811635Y-59133390D02*
X36859254Y-58942914D01*
X36859254Y-58942914D02*
X36906873Y-58847676D01*
X36906873Y-58847676D02*
X37002111Y-58752438D01*
X37002111Y-58752438D02*
X37144968Y-58704819D01*
X37144968Y-58704819D02*
X37240206Y-58704819D01*
X37240206Y-58704819D02*
X37383063Y-58752438D01*
X37383063Y-58752438D02*
X37430682Y-58800057D01*
X38383063Y-59704819D02*
X37811635Y-59704819D01*
X38097349Y-59704819D02*
X38097349Y-58704819D01*
X38097349Y-58704819D02*
X38002111Y-58847676D01*
X38002111Y-58847676D02*
X37906873Y-58942914D01*
X37906873Y-58942914D02*
X37811635Y-58990533D01*
D10*
X28542580Y-81650476D02*
X27828295Y-81650476D01*
X27828295Y-81650476D02*
X27685438Y-81602857D01*
X27685438Y-81602857D02*
X27590200Y-81507619D01*
X27590200Y-81507619D02*
X27542580Y-81364762D01*
X27542580Y-81364762D02*
X27542580Y-81269524D01*
X27542580Y-82650476D02*
X27542580Y-82079048D01*
X27542580Y-82364762D02*
X28542580Y-82364762D01*
X28542580Y-82364762D02*
X28399723Y-82269524D01*
X28399723Y-82269524D02*
X28304485Y-82174286D01*
X28304485Y-82174286D02*
X28256866Y-82079048D01*
X28542580Y-83269524D02*
X28542580Y-83364762D01*
X28542580Y-83364762D02*
X28494961Y-83460000D01*
X28494961Y-83460000D02*
X28447342Y-83507619D01*
X28447342Y-83507619D02*
X28352104Y-83555238D01*
X28352104Y-83555238D02*
X28161628Y-83602857D01*
X28161628Y-83602857D02*
X27923533Y-83602857D01*
X27923533Y-83602857D02*
X27733057Y-83555238D01*
X27733057Y-83555238D02*
X27637819Y-83507619D01*
X27637819Y-83507619D02*
X27590200Y-83460000D01*
X27590200Y-83460000D02*
X27542580Y-83364762D01*
X27542580Y-83364762D02*
X27542580Y-83269524D01*
X27542580Y-83269524D02*
X27590200Y-83174286D01*
X27590200Y-83174286D02*
X27637819Y-83126667D01*
X27637819Y-83126667D02*
X27733057Y-83079048D01*
X27733057Y-83079048D02*
X27923533Y-83031429D01*
X27923533Y-83031429D02*
X28161628Y-83031429D01*
X28161628Y-83031429D02*
X28352104Y-83079048D01*
X28352104Y-83079048D02*
X28447342Y-83126667D01*
X28447342Y-83126667D02*
X28494961Y-83174286D01*
X28494961Y-83174286D02*
X28542580Y-83269524D01*
D12*
X112238095Y-108788152D02*
X112238095Y-109454819D01*
X111809524Y-108788152D02*
X111809524Y-109311961D01*
X111809524Y-109311961D02*
X111857143Y-109407200D01*
X111857143Y-109407200D02*
X111952381Y-109454819D01*
X111952381Y-109454819D02*
X112095238Y-109454819D01*
X112095238Y-109454819D02*
X112190476Y-109407200D01*
X112190476Y-109407200D02*
X112238095Y-109359580D01*
X112619048Y-108454819D02*
X113238095Y-108454819D01*
X113238095Y-108454819D02*
X112904762Y-108835771D01*
X112904762Y-108835771D02*
X113047619Y-108835771D01*
X113047619Y-108835771D02*
X113142857Y-108883390D01*
X113142857Y-108883390D02*
X113190476Y-108931009D01*
X113190476Y-108931009D02*
X113238095Y-109026247D01*
X113238095Y-109026247D02*
X113238095Y-109264342D01*
X113238095Y-109264342D02*
X113190476Y-109359580D01*
X113190476Y-109359580D02*
X113142857Y-109407200D01*
X113142857Y-109407200D02*
X113047619Y-109454819D01*
X113047619Y-109454819D02*
X112761905Y-109454819D01*
X112761905Y-109454819D02*
X112666667Y-109407200D01*
X112666667Y-109407200D02*
X112619048Y-109359580D01*
X30904761Y-71400057D02*
X30809523Y-71352438D01*
X30809523Y-71352438D02*
X30714285Y-71257200D01*
X30714285Y-71257200D02*
X30571428Y-71114342D01*
X30571428Y-71114342D02*
X30476190Y-71066723D01*
X30476190Y-71066723D02*
X30380952Y-71066723D01*
X30428571Y-71304819D02*
X30333333Y-71257200D01*
X30333333Y-71257200D02*
X30238095Y-71161961D01*
X30238095Y-71161961D02*
X30190476Y-70971485D01*
X30190476Y-70971485D02*
X30190476Y-70638152D01*
X30190476Y-70638152D02*
X30238095Y-70447676D01*
X30238095Y-70447676D02*
X30333333Y-70352438D01*
X30333333Y-70352438D02*
X30428571Y-70304819D01*
X30428571Y-70304819D02*
X30619047Y-70304819D01*
X30619047Y-70304819D02*
X30714285Y-70352438D01*
X30714285Y-70352438D02*
X30809523Y-70447676D01*
X30809523Y-70447676D02*
X30857142Y-70638152D01*
X30857142Y-70638152D02*
X30857142Y-70971485D01*
X30857142Y-70971485D02*
X30809523Y-71161961D01*
X30809523Y-71161961D02*
X30714285Y-71257200D01*
X30714285Y-71257200D02*
X30619047Y-71304819D01*
X30619047Y-71304819D02*
X30428571Y-71304819D01*
X31809523Y-71304819D02*
X31238095Y-71304819D01*
X31523809Y-71304819D02*
X31523809Y-70304819D01*
X31523809Y-70304819D02*
X31428571Y-70447676D01*
X31428571Y-70447676D02*
X31333333Y-70542914D01*
X31333333Y-70542914D02*
X31238095Y-70590533D01*
X131333333Y-43159580D02*
X131285714Y-43207200D01*
X131285714Y-43207200D02*
X131142857Y-43254819D01*
X131142857Y-43254819D02*
X131047619Y-43254819D01*
X131047619Y-43254819D02*
X130904762Y-43207200D01*
X130904762Y-43207200D02*
X130809524Y-43111961D01*
X130809524Y-43111961D02*
X130761905Y-43016723D01*
X130761905Y-43016723D02*
X130714286Y-42826247D01*
X130714286Y-42826247D02*
X130714286Y-42683390D01*
X130714286Y-42683390D02*
X130761905Y-42492914D01*
X130761905Y-42492914D02*
X130809524Y-42397676D01*
X130809524Y-42397676D02*
X130904762Y-42302438D01*
X130904762Y-42302438D02*
X131047619Y-42254819D01*
X131047619Y-42254819D02*
X131142857Y-42254819D01*
X131142857Y-42254819D02*
X131285714Y-42302438D01*
X131285714Y-42302438D02*
X131333333Y-42350057D01*
X132190476Y-42588152D02*
X132190476Y-43254819D01*
X131952381Y-42207200D02*
X131714286Y-42921485D01*
X131714286Y-42921485D02*
X132333333Y-42921485D01*
X77126666Y-32454819D02*
X77126666Y-33169104D01*
X77126666Y-33169104D02*
X77079047Y-33311961D01*
X77079047Y-33311961D02*
X76983809Y-33407200D01*
X76983809Y-33407200D02*
X76840952Y-33454819D01*
X76840952Y-33454819D02*
X76745714Y-33454819D01*
X77650476Y-33454819D02*
X77840952Y-33454819D01*
X77840952Y-33454819D02*
X77936190Y-33407200D01*
X77936190Y-33407200D02*
X77983809Y-33359580D01*
X77983809Y-33359580D02*
X78079047Y-33216723D01*
X78079047Y-33216723D02*
X78126666Y-33026247D01*
X78126666Y-33026247D02*
X78126666Y-32645295D01*
X78126666Y-32645295D02*
X78079047Y-32550057D01*
X78079047Y-32550057D02*
X78031428Y-32502438D01*
X78031428Y-32502438D02*
X77936190Y-32454819D01*
X77936190Y-32454819D02*
X77745714Y-32454819D01*
X77745714Y-32454819D02*
X77650476Y-32502438D01*
X77650476Y-32502438D02*
X77602857Y-32550057D01*
X77602857Y-32550057D02*
X77555238Y-32645295D01*
X77555238Y-32645295D02*
X77555238Y-32883390D01*
X77555238Y-32883390D02*
X77602857Y-32978628D01*
X77602857Y-32978628D02*
X77650476Y-33026247D01*
X77650476Y-33026247D02*
X77745714Y-33073866D01*
X77745714Y-33073866D02*
X77936190Y-33073866D01*
X77936190Y-33073866D02*
X78031428Y-33026247D01*
X78031428Y-33026247D02*
X78079047Y-32978628D01*
X78079047Y-32978628D02*
X78126666Y-32883390D01*
D10*
X28542580Y-111650476D02*
X27828295Y-111650476D01*
X27828295Y-111650476D02*
X27685438Y-111602857D01*
X27685438Y-111602857D02*
X27590200Y-111507619D01*
X27590200Y-111507619D02*
X27542580Y-111364762D01*
X27542580Y-111364762D02*
X27542580Y-111269524D01*
X27542580Y-112650476D02*
X27542580Y-112079048D01*
X27542580Y-112364762D02*
X28542580Y-112364762D01*
X28542580Y-112364762D02*
X28399723Y-112269524D01*
X28399723Y-112269524D02*
X28304485Y-112174286D01*
X28304485Y-112174286D02*
X28256866Y-112079048D01*
X28542580Y-112983810D02*
X28542580Y-113602857D01*
X28542580Y-113602857D02*
X28161628Y-113269524D01*
X28161628Y-113269524D02*
X28161628Y-113412381D01*
X28161628Y-113412381D02*
X28114009Y-113507619D01*
X28114009Y-113507619D02*
X28066390Y-113555238D01*
X28066390Y-113555238D02*
X27971152Y-113602857D01*
X27971152Y-113602857D02*
X27733057Y-113602857D01*
X27733057Y-113602857D02*
X27637819Y-113555238D01*
X27637819Y-113555238D02*
X27590200Y-113507619D01*
X27590200Y-113507619D02*
X27542580Y-113412381D01*
X27542580Y-113412381D02*
X27542580Y-113126667D01*
X27542580Y-113126667D02*
X27590200Y-113031429D01*
X27590200Y-113031429D02*
X27637819Y-112983810D01*
D12*
X40324819Y-88246666D02*
X39848628Y-88579999D01*
X40324819Y-88818094D02*
X39324819Y-88818094D01*
X39324819Y-88818094D02*
X39324819Y-88437142D01*
X39324819Y-88437142D02*
X39372438Y-88341904D01*
X39372438Y-88341904D02*
X39420057Y-88294285D01*
X39420057Y-88294285D02*
X39515295Y-88246666D01*
X39515295Y-88246666D02*
X39658152Y-88246666D01*
X39658152Y-88246666D02*
X39753390Y-88294285D01*
X39753390Y-88294285D02*
X39801009Y-88341904D01*
X39801009Y-88341904D02*
X39848628Y-88437142D01*
X39848628Y-88437142D02*
X39848628Y-88818094D01*
X40324819Y-87294285D02*
X40324819Y-87865713D01*
X40324819Y-87579999D02*
X39324819Y-87579999D01*
X39324819Y-87579999D02*
X39467676Y-87675237D01*
X39467676Y-87675237D02*
X39562914Y-87770475D01*
X39562914Y-87770475D02*
X39610533Y-87865713D01*
D10*
X57692580Y-81738095D02*
X56883057Y-81738095D01*
X56883057Y-81738095D02*
X56787819Y-81785714D01*
X56787819Y-81785714D02*
X56740200Y-81833333D01*
X56740200Y-81833333D02*
X56692580Y-81928571D01*
X56692580Y-81928571D02*
X56692580Y-82119047D01*
X56692580Y-82119047D02*
X56740200Y-82214285D01*
X56740200Y-82214285D02*
X56787819Y-82261904D01*
X56787819Y-82261904D02*
X56883057Y-82309523D01*
X56883057Y-82309523D02*
X57692580Y-82309523D01*
X56692580Y-83309523D02*
X56692580Y-82738095D01*
X56692580Y-83023809D02*
X57692580Y-83023809D01*
X57692580Y-83023809D02*
X57549723Y-82928571D01*
X57549723Y-82928571D02*
X57454485Y-82833333D01*
X57454485Y-82833333D02*
X57406866Y-82738095D01*
D12*
X49896666Y-32454819D02*
X49896666Y-33169104D01*
X49896666Y-33169104D02*
X49849047Y-33311961D01*
X49849047Y-33311961D02*
X49753809Y-33407200D01*
X49753809Y-33407200D02*
X49610952Y-33454819D01*
X49610952Y-33454819D02*
X49515714Y-33454819D01*
X50277619Y-32454819D02*
X50944285Y-32454819D01*
X50944285Y-32454819D02*
X50515714Y-33454819D01*
D10*
X60690476Y-110457419D02*
X60690476Y-111171704D01*
X60690476Y-111171704D02*
X60642857Y-111314561D01*
X60642857Y-111314561D02*
X60547619Y-111409800D01*
X60547619Y-111409800D02*
X60404762Y-111457419D01*
X60404762Y-111457419D02*
X60309524Y-111457419D01*
X61690476Y-111457419D02*
X61119048Y-111457419D01*
X61404762Y-111457419D02*
X61404762Y-110457419D01*
X61404762Y-110457419D02*
X61309524Y-110600276D01*
X61309524Y-110600276D02*
X61214286Y-110695514D01*
X61214286Y-110695514D02*
X61119048Y-110743133D01*
X62547619Y-110457419D02*
X62357143Y-110457419D01*
X62357143Y-110457419D02*
X62261905Y-110505038D01*
X62261905Y-110505038D02*
X62214286Y-110552657D01*
X62214286Y-110552657D02*
X62119048Y-110695514D01*
X62119048Y-110695514D02*
X62071429Y-110885990D01*
X62071429Y-110885990D02*
X62071429Y-111266942D01*
X62071429Y-111266942D02*
X62119048Y-111362180D01*
X62119048Y-111362180D02*
X62166667Y-111409800D01*
X62166667Y-111409800D02*
X62261905Y-111457419D01*
X62261905Y-111457419D02*
X62452381Y-111457419D01*
X62452381Y-111457419D02*
X62547619Y-111409800D01*
X62547619Y-111409800D02*
X62595238Y-111362180D01*
X62595238Y-111362180D02*
X62642857Y-111266942D01*
X62642857Y-111266942D02*
X62642857Y-111028847D01*
X62642857Y-111028847D02*
X62595238Y-110933609D01*
X62595238Y-110933609D02*
X62547619Y-110885990D01*
X62547619Y-110885990D02*
X62452381Y-110838371D01*
X62452381Y-110838371D02*
X62261905Y-110838371D01*
X62261905Y-110838371D02*
X62166667Y-110885990D01*
X62166667Y-110885990D02*
X62119048Y-110933609D01*
X62119048Y-110933609D02*
X62071429Y-111028847D01*
X28542580Y-101690476D02*
X27828295Y-101690476D01*
X27828295Y-101690476D02*
X27685438Y-101642857D01*
X27685438Y-101642857D02*
X27590200Y-101547619D01*
X27590200Y-101547619D02*
X27542580Y-101404762D01*
X27542580Y-101404762D02*
X27542580Y-101309524D01*
X27542580Y-102690476D02*
X27542580Y-102119048D01*
X27542580Y-102404762D02*
X28542580Y-102404762D01*
X28542580Y-102404762D02*
X28399723Y-102309524D01*
X28399723Y-102309524D02*
X28304485Y-102214286D01*
X28304485Y-102214286D02*
X28256866Y-102119048D01*
X28447342Y-103071429D02*
X28494961Y-103119048D01*
X28494961Y-103119048D02*
X28542580Y-103214286D01*
X28542580Y-103214286D02*
X28542580Y-103452381D01*
X28542580Y-103452381D02*
X28494961Y-103547619D01*
X28494961Y-103547619D02*
X28447342Y-103595238D01*
X28447342Y-103595238D02*
X28352104Y-103642857D01*
X28352104Y-103642857D02*
X28256866Y-103642857D01*
X28256866Y-103642857D02*
X28114009Y-103595238D01*
X28114009Y-103595238D02*
X27542580Y-103023810D01*
X27542580Y-103023810D02*
X27542580Y-103642857D01*
D12*
X126362858Y-74174705D02*
X125886667Y-74508038D01*
X126362858Y-74746133D02*
X125362858Y-74746133D01*
X125362858Y-74746133D02*
X125362858Y-74365181D01*
X125362858Y-74365181D02*
X125410477Y-74269943D01*
X125410477Y-74269943D02*
X125458096Y-74222324D01*
X125458096Y-74222324D02*
X125553334Y-74174705D01*
X125553334Y-74174705D02*
X125696191Y-74174705D01*
X125696191Y-74174705D02*
X125791429Y-74222324D01*
X125791429Y-74222324D02*
X125839048Y-74269943D01*
X125839048Y-74269943D02*
X125886667Y-74365181D01*
X125886667Y-74365181D02*
X125886667Y-74746133D01*
X125362858Y-73269943D02*
X125362858Y-73746133D01*
X125362858Y-73746133D02*
X125839048Y-73793752D01*
X125839048Y-73793752D02*
X125791429Y-73746133D01*
X125791429Y-73746133D02*
X125743810Y-73650895D01*
X125743810Y-73650895D02*
X125743810Y-73412800D01*
X125743810Y-73412800D02*
X125791429Y-73317562D01*
X125791429Y-73317562D02*
X125839048Y-73269943D01*
X125839048Y-73269943D02*
X125934286Y-73222324D01*
X125934286Y-73222324D02*
X126172381Y-73222324D01*
X126172381Y-73222324D02*
X126267619Y-73269943D01*
X126267619Y-73269943D02*
X126315239Y-73317562D01*
X126315239Y-73317562D02*
X126362858Y-73412800D01*
X126362858Y-73412800D02*
X126362858Y-73650895D01*
X126362858Y-73650895D02*
X126315239Y-73746133D01*
X126315239Y-73746133D02*
X126267619Y-73793752D01*
X96253333Y-31084819D02*
X95920000Y-30608628D01*
X95681905Y-31084819D02*
X95681905Y-30084819D01*
X95681905Y-30084819D02*
X96062857Y-30084819D01*
X96062857Y-30084819D02*
X96158095Y-30132438D01*
X96158095Y-30132438D02*
X96205714Y-30180057D01*
X96205714Y-30180057D02*
X96253333Y-30275295D01*
X96253333Y-30275295D02*
X96253333Y-30418152D01*
X96253333Y-30418152D02*
X96205714Y-30513390D01*
X96205714Y-30513390D02*
X96158095Y-30561009D01*
X96158095Y-30561009D02*
X96062857Y-30608628D01*
X96062857Y-30608628D02*
X95681905Y-30608628D01*
X97110476Y-30418152D02*
X97110476Y-31084819D01*
X96872381Y-30037200D02*
X96634286Y-30751485D01*
X96634286Y-30751485D02*
X97253333Y-30751485D01*
X144166666Y-48534819D02*
X144166666Y-49249104D01*
X144166666Y-49249104D02*
X144119047Y-49391961D01*
X144119047Y-49391961D02*
X144023809Y-49487200D01*
X144023809Y-49487200D02*
X143880952Y-49534819D01*
X143880952Y-49534819D02*
X143785714Y-49534819D01*
X145166666Y-49534819D02*
X144595238Y-49534819D01*
X144880952Y-49534819D02*
X144880952Y-48534819D01*
X144880952Y-48534819D02*
X144785714Y-48677676D01*
X144785714Y-48677676D02*
X144690476Y-48772914D01*
X144690476Y-48772914D02*
X144595238Y-48820533D01*
X63896666Y-32454819D02*
X63896666Y-33169104D01*
X63896666Y-33169104D02*
X63849047Y-33311961D01*
X63849047Y-33311961D02*
X63753809Y-33407200D01*
X63753809Y-33407200D02*
X63610952Y-33454819D01*
X63610952Y-33454819D02*
X63515714Y-33454819D01*
X64515714Y-32883390D02*
X64420476Y-32835771D01*
X64420476Y-32835771D02*
X64372857Y-32788152D01*
X64372857Y-32788152D02*
X64325238Y-32692914D01*
X64325238Y-32692914D02*
X64325238Y-32645295D01*
X64325238Y-32645295D02*
X64372857Y-32550057D01*
X64372857Y-32550057D02*
X64420476Y-32502438D01*
X64420476Y-32502438D02*
X64515714Y-32454819D01*
X64515714Y-32454819D02*
X64706190Y-32454819D01*
X64706190Y-32454819D02*
X64801428Y-32502438D01*
X64801428Y-32502438D02*
X64849047Y-32550057D01*
X64849047Y-32550057D02*
X64896666Y-32645295D01*
X64896666Y-32645295D02*
X64896666Y-32692914D01*
X64896666Y-32692914D02*
X64849047Y-32788152D01*
X64849047Y-32788152D02*
X64801428Y-32835771D01*
X64801428Y-32835771D02*
X64706190Y-32883390D01*
X64706190Y-32883390D02*
X64515714Y-32883390D01*
X64515714Y-32883390D02*
X64420476Y-32931009D01*
X64420476Y-32931009D02*
X64372857Y-32978628D01*
X64372857Y-32978628D02*
X64325238Y-33073866D01*
X64325238Y-33073866D02*
X64325238Y-33264342D01*
X64325238Y-33264342D02*
X64372857Y-33359580D01*
X64372857Y-33359580D02*
X64420476Y-33407200D01*
X64420476Y-33407200D02*
X64515714Y-33454819D01*
X64515714Y-33454819D02*
X64706190Y-33454819D01*
X64706190Y-33454819D02*
X64801428Y-33407200D01*
X64801428Y-33407200D02*
X64849047Y-33359580D01*
X64849047Y-33359580D02*
X64896666Y-33264342D01*
X64896666Y-33264342D02*
X64896666Y-33073866D01*
X64896666Y-33073866D02*
X64849047Y-32978628D01*
X64849047Y-32978628D02*
X64801428Y-32931009D01*
X64801428Y-32931009D02*
X64706190Y-32883390D01*
X131583333Y-83109580D02*
X131535714Y-83157200D01*
X131535714Y-83157200D02*
X131392857Y-83204819D01*
X131392857Y-83204819D02*
X131297619Y-83204819D01*
X131297619Y-83204819D02*
X131154762Y-83157200D01*
X131154762Y-83157200D02*
X131059524Y-83061961D01*
X131059524Y-83061961D02*
X131011905Y-82966723D01*
X131011905Y-82966723D02*
X130964286Y-82776247D01*
X130964286Y-82776247D02*
X130964286Y-82633390D01*
X130964286Y-82633390D02*
X131011905Y-82442914D01*
X131011905Y-82442914D02*
X131059524Y-82347676D01*
X131059524Y-82347676D02*
X131154762Y-82252438D01*
X131154762Y-82252438D02*
X131297619Y-82204819D01*
X131297619Y-82204819D02*
X131392857Y-82204819D01*
X131392857Y-82204819D02*
X131535714Y-82252438D01*
X131535714Y-82252438D02*
X131583333Y-82300057D01*
X132440476Y-82204819D02*
X132250000Y-82204819D01*
X132250000Y-82204819D02*
X132154762Y-82252438D01*
X132154762Y-82252438D02*
X132107143Y-82300057D01*
X132107143Y-82300057D02*
X132011905Y-82442914D01*
X132011905Y-82442914D02*
X131964286Y-82633390D01*
X131964286Y-82633390D02*
X131964286Y-83014342D01*
X131964286Y-83014342D02*
X132011905Y-83109580D01*
X132011905Y-83109580D02*
X132059524Y-83157200D01*
X132059524Y-83157200D02*
X132154762Y-83204819D01*
X132154762Y-83204819D02*
X132345238Y-83204819D01*
X132345238Y-83204819D02*
X132440476Y-83157200D01*
X132440476Y-83157200D02*
X132488095Y-83109580D01*
X132488095Y-83109580D02*
X132535714Y-83014342D01*
X132535714Y-83014342D02*
X132535714Y-82776247D01*
X132535714Y-82776247D02*
X132488095Y-82681009D01*
X132488095Y-82681009D02*
X132440476Y-82633390D01*
X132440476Y-82633390D02*
X132345238Y-82585771D01*
X132345238Y-82585771D02*
X132154762Y-82585771D01*
X132154762Y-82585771D02*
X132059524Y-82633390D01*
X132059524Y-82633390D02*
X132011905Y-82681009D01*
X132011905Y-82681009D02*
X131964286Y-82776247D01*
X131333333Y-39159580D02*
X131285714Y-39207200D01*
X131285714Y-39207200D02*
X131142857Y-39254819D01*
X131142857Y-39254819D02*
X131047619Y-39254819D01*
X131047619Y-39254819D02*
X130904762Y-39207200D01*
X130904762Y-39207200D02*
X130809524Y-39111961D01*
X130809524Y-39111961D02*
X130761905Y-39016723D01*
X130761905Y-39016723D02*
X130714286Y-38826247D01*
X130714286Y-38826247D02*
X130714286Y-38683390D01*
X130714286Y-38683390D02*
X130761905Y-38492914D01*
X130761905Y-38492914D02*
X130809524Y-38397676D01*
X130809524Y-38397676D02*
X130904762Y-38302438D01*
X130904762Y-38302438D02*
X131047619Y-38254819D01*
X131047619Y-38254819D02*
X131142857Y-38254819D01*
X131142857Y-38254819D02*
X131285714Y-38302438D01*
X131285714Y-38302438D02*
X131333333Y-38350057D01*
X132238095Y-38254819D02*
X131761905Y-38254819D01*
X131761905Y-38254819D02*
X131714286Y-38731009D01*
X131714286Y-38731009D02*
X131761905Y-38683390D01*
X131761905Y-38683390D02*
X131857143Y-38635771D01*
X131857143Y-38635771D02*
X132095238Y-38635771D01*
X132095238Y-38635771D02*
X132190476Y-38683390D01*
X132190476Y-38683390D02*
X132238095Y-38731009D01*
X132238095Y-38731009D02*
X132285714Y-38826247D01*
X132285714Y-38826247D02*
X132285714Y-39064342D01*
X132285714Y-39064342D02*
X132238095Y-39159580D01*
X132238095Y-39159580D02*
X132190476Y-39207200D01*
X132190476Y-39207200D02*
X132095238Y-39254819D01*
X132095238Y-39254819D02*
X131857143Y-39254819D01*
X131857143Y-39254819D02*
X131761905Y-39207200D01*
X131761905Y-39207200D02*
X131714286Y-39159580D01*
D10*
X70690476Y-110457419D02*
X70690476Y-111171704D01*
X70690476Y-111171704D02*
X70642857Y-111314561D01*
X70642857Y-111314561D02*
X70547619Y-111409800D01*
X70547619Y-111409800D02*
X70404762Y-111457419D01*
X70404762Y-111457419D02*
X70309524Y-111457419D01*
X71690476Y-111457419D02*
X71119048Y-111457419D01*
X71404762Y-111457419D02*
X71404762Y-110457419D01*
X71404762Y-110457419D02*
X71309524Y-110600276D01*
X71309524Y-110600276D02*
X71214286Y-110695514D01*
X71214286Y-110695514D02*
X71119048Y-110743133D01*
X72023810Y-110457419D02*
X72690476Y-110457419D01*
X72690476Y-110457419D02*
X72261905Y-111457419D01*
D12*
X110563333Y-101544819D02*
X110230000Y-101068628D01*
X109991905Y-101544819D02*
X109991905Y-100544819D01*
X109991905Y-100544819D02*
X110372857Y-100544819D01*
X110372857Y-100544819D02*
X110468095Y-100592438D01*
X110468095Y-100592438D02*
X110515714Y-100640057D01*
X110515714Y-100640057D02*
X110563333Y-100735295D01*
X110563333Y-100735295D02*
X110563333Y-100878152D01*
X110563333Y-100878152D02*
X110515714Y-100973390D01*
X110515714Y-100973390D02*
X110468095Y-101021009D01*
X110468095Y-101021009D02*
X110372857Y-101068628D01*
X110372857Y-101068628D02*
X109991905Y-101068628D01*
X110944286Y-100640057D02*
X110991905Y-100592438D01*
X110991905Y-100592438D02*
X111087143Y-100544819D01*
X111087143Y-100544819D02*
X111325238Y-100544819D01*
X111325238Y-100544819D02*
X111420476Y-100592438D01*
X111420476Y-100592438D02*
X111468095Y-100640057D01*
X111468095Y-100640057D02*
X111515714Y-100735295D01*
X111515714Y-100735295D02*
X111515714Y-100830533D01*
X111515714Y-100830533D02*
X111468095Y-100973390D01*
X111468095Y-100973390D02*
X110896667Y-101544819D01*
X110896667Y-101544819D02*
X111515714Y-101544819D01*
X119896666Y-32454819D02*
X119896666Y-33169104D01*
X119896666Y-33169104D02*
X119849047Y-33311961D01*
X119849047Y-33311961D02*
X119753809Y-33407200D01*
X119753809Y-33407200D02*
X119610952Y-33454819D01*
X119610952Y-33454819D02*
X119515714Y-33454819D01*
X120801428Y-32454819D02*
X120610952Y-32454819D01*
X120610952Y-32454819D02*
X120515714Y-32502438D01*
X120515714Y-32502438D02*
X120468095Y-32550057D01*
X120468095Y-32550057D02*
X120372857Y-32692914D01*
X120372857Y-32692914D02*
X120325238Y-32883390D01*
X120325238Y-32883390D02*
X120325238Y-33264342D01*
X120325238Y-33264342D02*
X120372857Y-33359580D01*
X120372857Y-33359580D02*
X120420476Y-33407200D01*
X120420476Y-33407200D02*
X120515714Y-33454819D01*
X120515714Y-33454819D02*
X120706190Y-33454819D01*
X120706190Y-33454819D02*
X120801428Y-33407200D01*
X120801428Y-33407200D02*
X120849047Y-33359580D01*
X120849047Y-33359580D02*
X120896666Y-33264342D01*
X120896666Y-33264342D02*
X120896666Y-33026247D01*
X120896666Y-33026247D02*
X120849047Y-32931009D01*
X120849047Y-32931009D02*
X120801428Y-32883390D01*
X120801428Y-32883390D02*
X120706190Y-32835771D01*
X120706190Y-32835771D02*
X120515714Y-32835771D01*
X120515714Y-32835771D02*
X120420476Y-32883390D01*
X120420476Y-32883390D02*
X120372857Y-32931009D01*
X120372857Y-32931009D02*
X120325238Y-33026247D01*
X25261905Y-59454819D02*
X25261905Y-58454819D01*
X25261905Y-58454819D02*
X25500000Y-58454819D01*
X25500000Y-58454819D02*
X25642857Y-58502438D01*
X25642857Y-58502438D02*
X25738095Y-58597676D01*
X25738095Y-58597676D02*
X25785714Y-58692914D01*
X25785714Y-58692914D02*
X25833333Y-58883390D01*
X25833333Y-58883390D02*
X25833333Y-59026247D01*
X25833333Y-59026247D02*
X25785714Y-59216723D01*
X25785714Y-59216723D02*
X25738095Y-59311961D01*
X25738095Y-59311961D02*
X25642857Y-59407200D01*
X25642857Y-59407200D02*
X25500000Y-59454819D01*
X25500000Y-59454819D02*
X25261905Y-59454819D01*
X26785714Y-59454819D02*
X26214286Y-59454819D01*
X26500000Y-59454819D02*
X26500000Y-58454819D01*
X26500000Y-58454819D02*
X26404762Y-58597676D01*
X26404762Y-58597676D02*
X26309524Y-58692914D01*
X26309524Y-58692914D02*
X26214286Y-58740533D01*
X79583333Y-79959580D02*
X79535714Y-80007200D01*
X79535714Y-80007200D02*
X79392857Y-80054819D01*
X79392857Y-80054819D02*
X79297619Y-80054819D01*
X79297619Y-80054819D02*
X79154762Y-80007200D01*
X79154762Y-80007200D02*
X79059524Y-79911961D01*
X79059524Y-79911961D02*
X79011905Y-79816723D01*
X79011905Y-79816723D02*
X78964286Y-79626247D01*
X78964286Y-79626247D02*
X78964286Y-79483390D01*
X78964286Y-79483390D02*
X79011905Y-79292914D01*
X79011905Y-79292914D02*
X79059524Y-79197676D01*
X79059524Y-79197676D02*
X79154762Y-79102438D01*
X79154762Y-79102438D02*
X79297619Y-79054819D01*
X79297619Y-79054819D02*
X79392857Y-79054819D01*
X79392857Y-79054819D02*
X79535714Y-79102438D01*
X79535714Y-79102438D02*
X79583333Y-79150057D01*
X79964286Y-79150057D02*
X80011905Y-79102438D01*
X80011905Y-79102438D02*
X80107143Y-79054819D01*
X80107143Y-79054819D02*
X80345238Y-79054819D01*
X80345238Y-79054819D02*
X80440476Y-79102438D01*
X80440476Y-79102438D02*
X80488095Y-79150057D01*
X80488095Y-79150057D02*
X80535714Y-79245295D01*
X80535714Y-79245295D02*
X80535714Y-79340533D01*
X80535714Y-79340533D02*
X80488095Y-79483390D01*
X80488095Y-79483390D02*
X79916667Y-80054819D01*
X79916667Y-80054819D02*
X80535714Y-80054819D01*
X104626666Y-32454819D02*
X104626666Y-33169104D01*
X104626666Y-33169104D02*
X104579047Y-33311961D01*
X104579047Y-33311961D02*
X104483809Y-33407200D01*
X104483809Y-33407200D02*
X104340952Y-33454819D01*
X104340952Y-33454819D02*
X104245714Y-33454819D01*
X105579047Y-32454819D02*
X105102857Y-32454819D01*
X105102857Y-32454819D02*
X105055238Y-32931009D01*
X105055238Y-32931009D02*
X105102857Y-32883390D01*
X105102857Y-32883390D02*
X105198095Y-32835771D01*
X105198095Y-32835771D02*
X105436190Y-32835771D01*
X105436190Y-32835771D02*
X105531428Y-32883390D01*
X105531428Y-32883390D02*
X105579047Y-32931009D01*
X105579047Y-32931009D02*
X105626666Y-33026247D01*
X105626666Y-33026247D02*
X105626666Y-33264342D01*
X105626666Y-33264342D02*
X105579047Y-33359580D01*
X105579047Y-33359580D02*
X105531428Y-33407200D01*
X105531428Y-33407200D02*
X105436190Y-33454819D01*
X105436190Y-33454819D02*
X105198095Y-33454819D01*
X105198095Y-33454819D02*
X105102857Y-33407200D01*
X105102857Y-33407200D02*
X105055238Y-33359580D01*
X144166666Y-62534819D02*
X144166666Y-63249104D01*
X144166666Y-63249104D02*
X144119047Y-63391961D01*
X144119047Y-63391961D02*
X144023809Y-63487200D01*
X144023809Y-63487200D02*
X143880952Y-63534819D01*
X143880952Y-63534819D02*
X143785714Y-63534819D01*
X144547619Y-62534819D02*
X145166666Y-62534819D01*
X145166666Y-62534819D02*
X144833333Y-62915771D01*
X144833333Y-62915771D02*
X144976190Y-62915771D01*
X144976190Y-62915771D02*
X145071428Y-62963390D01*
X145071428Y-62963390D02*
X145119047Y-63011009D01*
X145119047Y-63011009D02*
X145166666Y-63106247D01*
X145166666Y-63106247D02*
X145166666Y-63344342D01*
X145166666Y-63344342D02*
X145119047Y-63439580D01*
X145119047Y-63439580D02*
X145071428Y-63487200D01*
X145071428Y-63487200D02*
X144976190Y-63534819D01*
X144976190Y-63534819D02*
X144690476Y-63534819D01*
X144690476Y-63534819D02*
X144595238Y-63487200D01*
X144595238Y-63487200D02*
X144547619Y-63439580D01*
X136238095Y-108288152D02*
X136238095Y-108954819D01*
X135809524Y-108288152D02*
X135809524Y-108811961D01*
X135809524Y-108811961D02*
X135857143Y-108907200D01*
X135857143Y-108907200D02*
X135952381Y-108954819D01*
X135952381Y-108954819D02*
X136095238Y-108954819D01*
X136095238Y-108954819D02*
X136190476Y-108907200D01*
X136190476Y-108907200D02*
X136238095Y-108859580D01*
X137142857Y-108288152D02*
X137142857Y-108954819D01*
X136904762Y-107907200D02*
X136666667Y-108621485D01*
X136666667Y-108621485D02*
X137285714Y-108621485D01*
D10*
X28042580Y-42559523D02*
X27328295Y-42559523D01*
X27328295Y-42559523D02*
X27185438Y-42511904D01*
X27185438Y-42511904D02*
X27090200Y-42416666D01*
X27090200Y-42416666D02*
X27042580Y-42273809D01*
X27042580Y-42273809D02*
X27042580Y-42178571D01*
X26947342Y-42797619D02*
X26947342Y-43559523D01*
X27042580Y-44321428D02*
X27042580Y-43750000D01*
X27042580Y-44035714D02*
X28042580Y-44035714D01*
X28042580Y-44035714D02*
X27899723Y-43940476D01*
X27899723Y-43940476D02*
X27804485Y-43845238D01*
X27804485Y-43845238D02*
X27756866Y-43750000D01*
X27042580Y-45273809D02*
X27042580Y-44702381D01*
X27042580Y-44988095D02*
X28042580Y-44988095D01*
X28042580Y-44988095D02*
X27899723Y-44892857D01*
X27899723Y-44892857D02*
X27804485Y-44797619D01*
X27804485Y-44797619D02*
X27756866Y-44702381D01*
D12*
X32566666Y-49431009D02*
X32233333Y-49431009D01*
X32233333Y-49954819D02*
X32233333Y-48954819D01*
X32233333Y-48954819D02*
X32709523Y-48954819D01*
X33614285Y-49954819D02*
X33042857Y-49954819D01*
X33328571Y-49954819D02*
X33328571Y-48954819D01*
X33328571Y-48954819D02*
X33233333Y-49097676D01*
X33233333Y-49097676D02*
X33138095Y-49192914D01*
X33138095Y-49192914D02*
X33042857Y-49240533D01*
X135563333Y-101544819D02*
X135230000Y-101068628D01*
X134991905Y-101544819D02*
X134991905Y-100544819D01*
X134991905Y-100544819D02*
X135372857Y-100544819D01*
X135372857Y-100544819D02*
X135468095Y-100592438D01*
X135468095Y-100592438D02*
X135515714Y-100640057D01*
X135515714Y-100640057D02*
X135563333Y-100735295D01*
X135563333Y-100735295D02*
X135563333Y-100878152D01*
X135563333Y-100878152D02*
X135515714Y-100973390D01*
X135515714Y-100973390D02*
X135468095Y-101021009D01*
X135468095Y-101021009D02*
X135372857Y-101068628D01*
X135372857Y-101068628D02*
X134991905Y-101068628D01*
X135896667Y-100544819D02*
X136515714Y-100544819D01*
X136515714Y-100544819D02*
X136182381Y-100925771D01*
X136182381Y-100925771D02*
X136325238Y-100925771D01*
X136325238Y-100925771D02*
X136420476Y-100973390D01*
X136420476Y-100973390D02*
X136468095Y-101021009D01*
X136468095Y-101021009D02*
X136515714Y-101116247D01*
X136515714Y-101116247D02*
X136515714Y-101354342D01*
X136515714Y-101354342D02*
X136468095Y-101449580D01*
X136468095Y-101449580D02*
X136420476Y-101497200D01*
X136420476Y-101497200D02*
X136325238Y-101544819D01*
X136325238Y-101544819D02*
X136039524Y-101544819D01*
X136039524Y-101544819D02*
X135944286Y-101497200D01*
X135944286Y-101497200D02*
X135896667Y-101449580D01*
X144166666Y-71574819D02*
X144166666Y-72289104D01*
X144166666Y-72289104D02*
X144119047Y-72431961D01*
X144119047Y-72431961D02*
X144023809Y-72527200D01*
X144023809Y-72527200D02*
X143880952Y-72574819D01*
X143880952Y-72574819D02*
X143785714Y-72574819D01*
X145071428Y-71908152D02*
X145071428Y-72574819D01*
X144833333Y-71527200D02*
X144595238Y-72241485D01*
X144595238Y-72241485D02*
X145214285Y-72241485D01*
X71583333Y-91959580D02*
X71535714Y-92007200D01*
X71535714Y-92007200D02*
X71392857Y-92054819D01*
X71392857Y-92054819D02*
X71297619Y-92054819D01*
X71297619Y-92054819D02*
X71154762Y-92007200D01*
X71154762Y-92007200D02*
X71059524Y-91911961D01*
X71059524Y-91911961D02*
X71011905Y-91816723D01*
X71011905Y-91816723D02*
X70964286Y-91626247D01*
X70964286Y-91626247D02*
X70964286Y-91483390D01*
X70964286Y-91483390D02*
X71011905Y-91292914D01*
X71011905Y-91292914D02*
X71059524Y-91197676D01*
X71059524Y-91197676D02*
X71154762Y-91102438D01*
X71154762Y-91102438D02*
X71297619Y-91054819D01*
X71297619Y-91054819D02*
X71392857Y-91054819D01*
X71392857Y-91054819D02*
X71535714Y-91102438D01*
X71535714Y-91102438D02*
X71583333Y-91150057D01*
X71916667Y-91054819D02*
X72535714Y-91054819D01*
X72535714Y-91054819D02*
X72202381Y-91435771D01*
X72202381Y-91435771D02*
X72345238Y-91435771D01*
X72345238Y-91435771D02*
X72440476Y-91483390D01*
X72440476Y-91483390D02*
X72488095Y-91531009D01*
X72488095Y-91531009D02*
X72535714Y-91626247D01*
X72535714Y-91626247D02*
X72535714Y-91864342D01*
X72535714Y-91864342D02*
X72488095Y-91959580D01*
X72488095Y-91959580D02*
X72440476Y-92007200D01*
X72440476Y-92007200D02*
X72345238Y-92054819D01*
X72345238Y-92054819D02*
X72059524Y-92054819D01*
X72059524Y-92054819D02*
X71964286Y-92007200D01*
X71964286Y-92007200D02*
X71916667Y-91959580D01*
D13*
%TO.C,R6*%
X114460000Y-82000000D02*
X115230000Y-82000000D01*
X122540000Y-82000000D02*
X121770000Y-82000000D01*
X115230000Y-80630000D02*
X121770000Y-80630000D01*
X121770000Y-83370000D01*
X115230000Y-83370000D01*
X115230000Y-80630000D01*
%TO.C,J14*%
X36960000Y-106290000D02*
X36960000Y-118510000D01*
X36960000Y-115210000D02*
X46460000Y-115210000D01*
X36960000Y-117010000D02*
X36960000Y-115210000D01*
X36960000Y-118510000D02*
X46460000Y-118510000D01*
X38000000Y-118510000D02*
X40000000Y-118510000D01*
X38250000Y-117010000D02*
X38000000Y-118510000D01*
X38700000Y-105490000D02*
X39300000Y-105490000D01*
X39000000Y-106090000D02*
X38700000Y-105490000D01*
X39300000Y-105490000D02*
X39000000Y-106090000D01*
X39750000Y-117010000D02*
X38250000Y-117010000D01*
X40000000Y-118510000D02*
X39750000Y-117010000D01*
X43080000Y-118510000D02*
X45080000Y-118510000D01*
X43330000Y-117010000D02*
X43080000Y-118510000D01*
X44830000Y-117010000D02*
X43330000Y-117010000D01*
X45080000Y-118510000D02*
X44830000Y-117010000D01*
X46460000Y-106290000D02*
X36960000Y-106290000D01*
X46460000Y-115210000D02*
X46460000Y-117010000D01*
X46460000Y-117010000D02*
X36960000Y-117010000D01*
X46460000Y-118510000D02*
X46460000Y-106290000D01*
%TO.C,Q2*%
X126421961Y-64071961D02*
X130021961Y-64071961D01*
X126383483Y-64060439D02*
G75*
G02*
X128221961Y-59621960I1838478J1838478D01*
G01*
X128221961Y-59621961D02*
G75*
G02*
X130060439Y-64060439I0J-2600000D01*
G01*
%TO.C,J15*%
X46960000Y-106390000D02*
X46960000Y-118610000D01*
X46960000Y-115310000D02*
X56460000Y-115310000D01*
X46960000Y-117110000D02*
X46960000Y-115310000D01*
X46960000Y-118610000D02*
X56460000Y-118610000D01*
X48000000Y-118610000D02*
X50000000Y-118610000D01*
X48250000Y-117110000D02*
X48000000Y-118610000D01*
X48700000Y-105590000D02*
X49300000Y-105590000D01*
X49000000Y-106190000D02*
X48700000Y-105590000D01*
X49300000Y-105590000D02*
X49000000Y-106190000D01*
X49750000Y-117110000D02*
X48250000Y-117110000D01*
X50000000Y-118610000D02*
X49750000Y-117110000D01*
X53080000Y-118610000D02*
X55080000Y-118610000D01*
X53330000Y-117110000D02*
X53080000Y-118610000D01*
X54830000Y-117110000D02*
X53330000Y-117110000D01*
X55080000Y-118610000D02*
X54830000Y-117110000D01*
X56460000Y-106390000D02*
X46960000Y-106390000D01*
X56460000Y-115310000D02*
X56460000Y-117110000D01*
X56460000Y-117110000D02*
X46960000Y-117110000D01*
X56460000Y-118610000D02*
X56460000Y-106390000D01*
D12*
%TO.C,A1*%
X67275000Y-37730000D02*
X67275000Y-75830000D01*
X67275000Y-37730000D02*
X121885000Y-37730000D01*
X67275000Y-75830000D02*
X121885000Y-75830000D01*
X121885000Y-37730000D02*
X121885000Y-75830000D01*
D13*
%TO.C,J11*%
X20390000Y-87960000D02*
X20390000Y-97460000D01*
X20390000Y-89000000D02*
X20390000Y-91000000D01*
X20390000Y-91000000D02*
X21890000Y-90750000D01*
X20390000Y-94080000D02*
X20390000Y-96080000D01*
X20390000Y-96080000D02*
X21890000Y-95830000D01*
X20390000Y-97460000D02*
X32610000Y-97460000D01*
X21890000Y-87960000D02*
X23690000Y-87960000D01*
X21890000Y-89250000D02*
X20390000Y-89000000D01*
X21890000Y-90750000D02*
X21890000Y-89250000D01*
X21890000Y-94330000D02*
X20390000Y-94080000D01*
X21890000Y-95830000D02*
X21890000Y-94330000D01*
X21890000Y-97460000D02*
X21890000Y-87960000D01*
X23690000Y-87960000D02*
X23690000Y-97460000D01*
X23690000Y-97460000D02*
X21890000Y-97460000D01*
X32610000Y-87960000D02*
X20390000Y-87960000D01*
X32610000Y-97460000D02*
X32610000Y-87960000D01*
X32810000Y-90000000D02*
X33410000Y-89700000D01*
X33410000Y-89700000D02*
X33410000Y-90300000D01*
X33410000Y-90300000D02*
X32810000Y-90000000D01*
%TO.C,J2*%
X143120000Y-33500000D02*
X144500000Y-33500000D01*
X143120000Y-34880000D02*
X143120000Y-33500000D01*
X143120000Y-36150000D02*
X143120000Y-46420000D01*
X143120000Y-36150000D02*
X145880000Y-36150000D01*
X143120000Y-46420000D02*
X145880000Y-46420000D01*
X145880000Y-36150000D02*
X145880000Y-46420000D01*
%TO.C,C1*%
X33187651Y-62185000D02*
X33987651Y-62185000D01*
X33587651Y-61785000D02*
X33587651Y-62585000D01*
X37597349Y-60420000D02*
X37597349Y-68580000D01*
X37637349Y-60420000D02*
X37637349Y-68580000D01*
X37677349Y-60421000D02*
X37677349Y-68579000D01*
X37717349Y-60422000D02*
X37717349Y-68578000D01*
X37757349Y-60423000D02*
X37757349Y-68577000D01*
X37797349Y-60425000D02*
X37797349Y-68575000D01*
X37837349Y-60427000D02*
X37837349Y-68573000D01*
X37877349Y-60430000D02*
X37877349Y-68570000D01*
X37917349Y-60432000D02*
X37917349Y-68568000D01*
X37957349Y-60436000D02*
X37957349Y-68564000D01*
X37997349Y-60439000D02*
X37997349Y-68561000D01*
X38037349Y-60444000D02*
X38037349Y-68556000D01*
X38077349Y-60448000D02*
X38077349Y-68552000D01*
X38117349Y-60453000D02*
X38117349Y-68547000D01*
X38157349Y-60458000D02*
X38157349Y-68542000D01*
X38197349Y-60464000D02*
X38197349Y-68536000D01*
X38237349Y-60470000D02*
X38237349Y-68530000D01*
X38277349Y-60477000D02*
X38277349Y-68523000D01*
X38317349Y-60483000D02*
X38317349Y-63460000D01*
X38317349Y-65540000D02*
X38317349Y-68517000D01*
X38357349Y-60491000D02*
X38357349Y-63460000D01*
X38357349Y-65540000D02*
X38357349Y-68509000D01*
X38397349Y-60498000D02*
X38397349Y-63460000D01*
X38397349Y-65540000D02*
X38397349Y-68502000D01*
X38437349Y-60507000D02*
X38437349Y-63460000D01*
X38437349Y-65540000D02*
X38437349Y-68493000D01*
X38477349Y-60515000D02*
X38477349Y-63460000D01*
X38477349Y-65540000D02*
X38477349Y-68485000D01*
X38517349Y-60524000D02*
X38517349Y-63460000D01*
X38517349Y-65540000D02*
X38517349Y-68476000D01*
X38557349Y-60533000D02*
X38557349Y-63460000D01*
X38557349Y-65540000D02*
X38557349Y-68467000D01*
X38597349Y-60543000D02*
X38597349Y-63460000D01*
X38597349Y-65540000D02*
X38597349Y-68457000D01*
X38637349Y-60553000D02*
X38637349Y-63460000D01*
X38637349Y-65540000D02*
X38637349Y-68447000D01*
X38677349Y-60564000D02*
X38677349Y-63460000D01*
X38677349Y-65540000D02*
X38677349Y-68436000D01*
X38717349Y-60575000D02*
X38717349Y-63460000D01*
X38717349Y-65540000D02*
X38717349Y-68425000D01*
X38757349Y-60587000D02*
X38757349Y-63460000D01*
X38757349Y-65540000D02*
X38757349Y-68413000D01*
X38797349Y-60599000D02*
X38797349Y-63460000D01*
X38797349Y-65540000D02*
X38797349Y-68401000D01*
X38837349Y-60611000D02*
X38837349Y-63460000D01*
X38837349Y-65540000D02*
X38837349Y-68389000D01*
X38877349Y-60624000D02*
X38877349Y-63460000D01*
X38877349Y-65540000D02*
X38877349Y-68376000D01*
X38917349Y-60637000D02*
X38917349Y-63460000D01*
X38917349Y-65540000D02*
X38917349Y-68363000D01*
X38957349Y-60651000D02*
X38957349Y-63460000D01*
X38957349Y-65540000D02*
X38957349Y-68349000D01*
X38997349Y-60665000D02*
X38997349Y-63460000D01*
X38997349Y-65540000D02*
X38997349Y-68335000D01*
X39037349Y-60680000D02*
X39037349Y-63460000D01*
X39037349Y-65540000D02*
X39037349Y-68320000D01*
X39077349Y-60695000D02*
X39077349Y-63460000D01*
X39077349Y-65540000D02*
X39077349Y-68305000D01*
X39117349Y-60711000D02*
X39117349Y-63460000D01*
X39117349Y-65540000D02*
X39117349Y-68289000D01*
X39157349Y-60727000D02*
X39157349Y-63460000D01*
X39157349Y-65540000D02*
X39157349Y-68273000D01*
X39197349Y-60743000D02*
X39197349Y-63460000D01*
X39197349Y-65540000D02*
X39197349Y-68257000D01*
X39237349Y-60760000D02*
X39237349Y-63460000D01*
X39237349Y-65540000D02*
X39237349Y-68240000D01*
X39277349Y-60778000D02*
X39277349Y-63460000D01*
X39277349Y-65540000D02*
X39277349Y-68222000D01*
X39317349Y-60796000D02*
X39317349Y-63460000D01*
X39317349Y-65540000D02*
X39317349Y-68204000D01*
X39357349Y-60815000D02*
X39357349Y-63460000D01*
X39357349Y-65540000D02*
X39357349Y-68185000D01*
X39397349Y-60834000D02*
X39397349Y-63460000D01*
X39397349Y-65540000D02*
X39397349Y-68166000D01*
X39437349Y-60854000D02*
X39437349Y-63460000D01*
X39437349Y-65540000D02*
X39437349Y-68146000D01*
X39477349Y-60874000D02*
X39477349Y-63460000D01*
X39477349Y-65540000D02*
X39477349Y-68126000D01*
X39517349Y-60895000D02*
X39517349Y-63460000D01*
X39517349Y-65540000D02*
X39517349Y-68105000D01*
X39557349Y-60916000D02*
X39557349Y-63460000D01*
X39557349Y-65540000D02*
X39557349Y-68084000D01*
X39597349Y-60938000D02*
X39597349Y-63460000D01*
X39597349Y-65540000D02*
X39597349Y-68062000D01*
X39637349Y-60961000D02*
X39637349Y-63460000D01*
X39637349Y-65540000D02*
X39637349Y-68039000D01*
X39677349Y-60984000D02*
X39677349Y-63460000D01*
X39677349Y-65540000D02*
X39677349Y-68016000D01*
X39717349Y-61007000D02*
X39717349Y-63460000D01*
X39717349Y-65540000D02*
X39717349Y-67993000D01*
X39757349Y-61032000D02*
X39757349Y-63460000D01*
X39757349Y-65540000D02*
X39757349Y-67968000D01*
X39797349Y-61057000D02*
X39797349Y-63460000D01*
X39797349Y-65540000D02*
X39797349Y-67943000D01*
X39837349Y-61082000D02*
X39837349Y-63460000D01*
X39837349Y-65540000D02*
X39837349Y-67918000D01*
X39877349Y-61108000D02*
X39877349Y-63460000D01*
X39877349Y-65540000D02*
X39877349Y-67892000D01*
X39917349Y-61135000D02*
X39917349Y-63460000D01*
X39917349Y-65540000D02*
X39917349Y-67865000D01*
X39957349Y-61163000D02*
X39957349Y-63460000D01*
X39957349Y-65540000D02*
X39957349Y-67837000D01*
X39997349Y-61191000D02*
X39997349Y-63460000D01*
X39997349Y-65540000D02*
X39997349Y-67809000D01*
X40037349Y-61220000D02*
X40037349Y-63460000D01*
X40037349Y-65540000D02*
X40037349Y-67780000D01*
X40077349Y-61250000D02*
X40077349Y-63460000D01*
X40077349Y-65540000D02*
X40077349Y-67750000D01*
X40117349Y-61281000D02*
X40117349Y-63460000D01*
X40117349Y-65540000D02*
X40117349Y-67719000D01*
X40157349Y-61312000D02*
X40157349Y-63460000D01*
X40157349Y-65540000D02*
X40157349Y-67688000D01*
X40197349Y-61344000D02*
X40197349Y-63460000D01*
X40197349Y-65540000D02*
X40197349Y-67656000D01*
X40237349Y-61377000D02*
X40237349Y-63460000D01*
X40237349Y-65540000D02*
X40237349Y-67623000D01*
X40277349Y-61411000D02*
X40277349Y-63460000D01*
X40277349Y-65540000D02*
X40277349Y-67589000D01*
X40317349Y-61445000D02*
X40317349Y-63460000D01*
X40317349Y-65540000D02*
X40317349Y-67555000D01*
X40357349Y-61481000D02*
X40357349Y-63460000D01*
X40357349Y-65540000D02*
X40357349Y-67519000D01*
X40397349Y-61518000D02*
X40397349Y-67482000D01*
X40437349Y-61555000D02*
X40437349Y-67445000D01*
X40477349Y-61594000D02*
X40477349Y-67406000D01*
X40517349Y-61633000D02*
X40517349Y-67367000D01*
X40557349Y-61674000D02*
X40557349Y-67326000D01*
X40597349Y-61716000D02*
X40597349Y-67284000D01*
X40637349Y-61759000D02*
X40637349Y-67241000D01*
X40677349Y-61804000D02*
X40677349Y-67196000D01*
X40717349Y-61849000D02*
X40717349Y-67151000D01*
X40757349Y-61896000D02*
X40757349Y-67104000D01*
X40797349Y-61945000D02*
X40797349Y-67055000D01*
X40837349Y-61995000D02*
X40837349Y-67005000D01*
X40877349Y-62047000D02*
X40877349Y-66953000D01*
X40917349Y-62100000D02*
X40917349Y-66900000D01*
X40957349Y-62156000D02*
X40957349Y-66844000D01*
X40997349Y-62213000D02*
X40997349Y-66787000D01*
X41037349Y-62273000D02*
X41037349Y-66727000D01*
X41077349Y-62335000D02*
X41077349Y-66665000D01*
X41117349Y-62399000D02*
X41117349Y-66601000D01*
X41157349Y-62466000D02*
X41157349Y-66534000D01*
X41197349Y-62536000D02*
X41197349Y-66464000D01*
X41237349Y-62610000D02*
X41237349Y-66390000D01*
X41277349Y-62687000D02*
X41277349Y-66313000D01*
X41317349Y-62769000D02*
X41317349Y-66231000D01*
X41357349Y-62856000D02*
X41357349Y-66144000D01*
X41397349Y-62948000D02*
X41397349Y-66052000D01*
X41437349Y-63047000D02*
X41437349Y-65953000D01*
X41477349Y-63154000D02*
X41477349Y-65846000D01*
X41517349Y-63272000D02*
X41517349Y-65728000D01*
X41557349Y-63403000D02*
X41557349Y-65597000D01*
X41597349Y-63553000D02*
X41597349Y-65447000D01*
X41637349Y-63732000D02*
X41637349Y-65268000D01*
X41677349Y-63967000D02*
X41677349Y-65033000D01*
X41717349Y-64500000D02*
G75*
G02*
X33477349Y-64500000I-4120000J0D01*
G01*
X33477349Y-64500000D02*
G75*
G02*
X41717349Y-64500000I4120000J0D01*
G01*
%TO.C,J10*%
X20390000Y-77960000D02*
X20390000Y-87460000D01*
X20390000Y-79000000D02*
X20390000Y-81000000D01*
X20390000Y-81000000D02*
X21890000Y-80750000D01*
X20390000Y-84080000D02*
X20390000Y-86080000D01*
X20390000Y-86080000D02*
X21890000Y-85830000D01*
X20390000Y-87460000D02*
X32610000Y-87460000D01*
X21890000Y-77960000D02*
X23690000Y-77960000D01*
X21890000Y-79250000D02*
X20390000Y-79000000D01*
X21890000Y-80750000D02*
X21890000Y-79250000D01*
X21890000Y-84330000D02*
X20390000Y-84080000D01*
X21890000Y-85830000D02*
X21890000Y-84330000D01*
X21890000Y-87460000D02*
X21890000Y-77960000D01*
X23690000Y-77960000D02*
X23690000Y-87460000D01*
X23690000Y-87460000D02*
X21890000Y-87460000D01*
X32610000Y-77960000D02*
X20390000Y-77960000D01*
X32610000Y-87460000D02*
X32610000Y-77960000D01*
X32810000Y-80000000D02*
X33410000Y-79700000D01*
X33410000Y-79700000D02*
X33410000Y-80300000D01*
X33410000Y-80300000D02*
X32810000Y-80000000D01*
%TO.C,u3*%
X100460000Y-110120000D02*
X100460000Y-112880000D01*
X118350000Y-110120000D02*
X100460000Y-110120000D01*
X118350000Y-110120000D02*
X118350000Y-112880000D01*
X118350000Y-112880000D02*
X100460000Y-112880000D01*
X119620000Y-110120000D02*
X121000000Y-110120000D01*
X121000000Y-110120000D02*
X121000000Y-111500000D01*
%TO.C,Q1*%
X25890000Y-71690000D02*
X36110000Y-71690000D01*
X25890000Y-73070000D02*
X36110000Y-73070000D01*
X25890000Y-76310000D02*
X25890000Y-71690000D01*
X29150000Y-71690000D02*
X29150000Y-73070000D01*
X32850000Y-71690000D02*
X32850000Y-73070000D01*
X36110000Y-71690000D02*
X36110000Y-76310000D01*
X36110000Y-76310000D02*
X25890000Y-76310000D01*
%TO.C,C4*%
X129230000Y-43930000D02*
X133770000Y-43930000D01*
X129230000Y-43986000D02*
X129230000Y-43930000D01*
X133770000Y-46014000D02*
X133770000Y-46070000D01*
X133770000Y-46070000D02*
X129230000Y-46070000D01*
%TO.C,J9*%
X79040000Y-34380000D02*
X79040000Y-33000000D01*
X80420000Y-34380000D02*
X79040000Y-34380000D01*
X81690000Y-31620000D02*
X86880000Y-31620000D01*
X81690000Y-34380000D02*
X81690000Y-31620000D01*
X81690000Y-34380000D02*
X86880000Y-34380000D01*
X86880000Y-34380000D02*
X86880000Y-31620000D01*
%TO.C,J13*%
X20390000Y-107960000D02*
X20390000Y-117460000D01*
X20390000Y-109000000D02*
X20390000Y-111000000D01*
X20390000Y-111000000D02*
X21890000Y-110750000D01*
X20390000Y-114080000D02*
X20390000Y-116080000D01*
X20390000Y-116080000D02*
X21890000Y-115830000D01*
X20390000Y-117460000D02*
X32610000Y-117460000D01*
X21890000Y-107960000D02*
X23690000Y-107960000D01*
X21890000Y-109250000D02*
X20390000Y-109000000D01*
X21890000Y-110750000D02*
X21890000Y-109250000D01*
X21890000Y-114330000D02*
X20390000Y-114080000D01*
X21890000Y-115830000D02*
X21890000Y-114330000D01*
X21890000Y-117460000D02*
X21890000Y-107960000D01*
X23690000Y-107960000D02*
X23690000Y-117460000D01*
X23690000Y-117460000D02*
X21890000Y-117460000D01*
X32610000Y-107960000D02*
X20390000Y-107960000D01*
X32610000Y-117460000D02*
X32610000Y-107960000D01*
X32810000Y-110000000D02*
X33410000Y-109700000D01*
X33410000Y-109700000D02*
X33410000Y-110300000D01*
X33410000Y-110300000D02*
X32810000Y-110000000D01*
%TO.C,R1*%
X37500000Y-84040000D02*
X37500000Y-84810000D01*
X37500000Y-92120000D02*
X37500000Y-91350000D01*
X38870000Y-84810000D02*
X36130000Y-84810000D01*
X36130000Y-91350000D01*
X38870000Y-91350000D01*
X38870000Y-84810000D01*
%TO.C,J7*%
X51810000Y-34380000D02*
X51810000Y-33000000D01*
X53190000Y-34380000D02*
X51810000Y-34380000D01*
X54460000Y-31620000D02*
X59650000Y-31620000D01*
X54460000Y-34380000D02*
X54460000Y-31620000D01*
X54460000Y-34380000D02*
X59650000Y-34380000D01*
X59650000Y-34380000D02*
X59650000Y-31620000D01*
%TO.C,J16*%
X57000000Y-106390000D02*
X57000000Y-118610000D01*
X57000000Y-115310000D02*
X66500000Y-115310000D01*
X57000000Y-117110000D02*
X57000000Y-115310000D01*
X57000000Y-118610000D02*
X66500000Y-118610000D01*
X58040000Y-118610000D02*
X60040000Y-118610000D01*
X58290000Y-117110000D02*
X58040000Y-118610000D01*
X58740000Y-105590000D02*
X59340000Y-105590000D01*
X59040000Y-106190000D02*
X58740000Y-105590000D01*
X59340000Y-105590000D02*
X59040000Y-106190000D01*
X59790000Y-117110000D02*
X58290000Y-117110000D01*
X60040000Y-118610000D02*
X59790000Y-117110000D01*
X63120000Y-118610000D02*
X65120000Y-118610000D01*
X63370000Y-117110000D02*
X63120000Y-118610000D01*
X64870000Y-117110000D02*
X63370000Y-117110000D01*
X65120000Y-118610000D02*
X64870000Y-117110000D01*
X66500000Y-106390000D02*
X57000000Y-106390000D01*
X66500000Y-115310000D02*
X66500000Y-117110000D01*
X66500000Y-117110000D02*
X57000000Y-117110000D01*
X66500000Y-118610000D02*
X66500000Y-106390000D01*
%TO.C,J12*%
X20390000Y-98000000D02*
X20390000Y-107500000D01*
X20390000Y-99040000D02*
X20390000Y-101040000D01*
X20390000Y-101040000D02*
X21890000Y-100790000D01*
X20390000Y-104120000D02*
X20390000Y-106120000D01*
X20390000Y-106120000D02*
X21890000Y-105870000D01*
X20390000Y-107500000D02*
X32610000Y-107500000D01*
X21890000Y-98000000D02*
X23690000Y-98000000D01*
X21890000Y-99290000D02*
X20390000Y-99040000D01*
X21890000Y-100790000D02*
X21890000Y-99290000D01*
X21890000Y-104370000D02*
X20390000Y-104120000D01*
X21890000Y-105870000D02*
X21890000Y-104370000D01*
X21890000Y-107500000D02*
X21890000Y-98000000D01*
X23690000Y-98000000D02*
X23690000Y-107500000D01*
X23690000Y-107500000D02*
X21890000Y-107500000D01*
X32610000Y-98000000D02*
X20390000Y-98000000D01*
X32610000Y-107500000D02*
X32610000Y-98000000D01*
X32810000Y-100040000D02*
X33410000Y-99740000D01*
X33410000Y-99740000D02*
X33410000Y-100340000D01*
X33410000Y-100340000D02*
X32810000Y-100040000D01*
%TO.C,R5*%
X128278039Y-69968039D02*
X128278039Y-70738039D01*
X128278039Y-78048039D02*
X128278039Y-77278039D01*
X126908039Y-77278039D02*
X129648039Y-77278039D01*
X129648039Y-70738039D01*
X126908039Y-70738039D01*
X126908039Y-77278039D01*
%TO.C,R4*%
X92380000Y-33000000D02*
X93150000Y-33000000D01*
X100460000Y-33000000D02*
X99690000Y-33000000D01*
X93150000Y-31630000D02*
X99690000Y-31630000D01*
X99690000Y-34370000D01*
X93150000Y-34370000D01*
X93150000Y-31630000D01*
%TO.C,J1*%
X143120000Y-50080000D02*
X144500000Y-50080000D01*
X143120000Y-51460000D02*
X143120000Y-50080000D01*
X143120000Y-52730000D02*
X143120000Y-60460000D01*
X143120000Y-52730000D02*
X145880000Y-52730000D01*
X143120000Y-60460000D02*
X145880000Y-60460000D01*
X145880000Y-52730000D02*
X145880000Y-60460000D01*
%TO.C,J8*%
X65770000Y-34380000D02*
X65770000Y-33000000D01*
X67150000Y-34380000D02*
X65770000Y-34380000D01*
X68420000Y-31620000D02*
X73610000Y-31620000D01*
X68420000Y-34380000D02*
X68420000Y-31620000D01*
X68420000Y-34380000D02*
X73610000Y-34380000D01*
X73610000Y-34380000D02*
X73610000Y-31620000D01*
%TO.C,C6*%
X127340302Y-85685000D02*
X128140302Y-85685000D01*
X127740302Y-85285000D02*
X127740302Y-86085000D01*
X131750000Y-83920000D02*
X131750000Y-92080000D01*
X131790000Y-83920000D02*
X131790000Y-92080000D01*
X131830000Y-83921000D02*
X131830000Y-92079000D01*
X131870000Y-83922000D02*
X131870000Y-92078000D01*
X131910000Y-83923000D02*
X131910000Y-92077000D01*
X131950000Y-83925000D02*
X131950000Y-92075000D01*
X131990000Y-83927000D02*
X131990000Y-92073000D01*
X132030000Y-83930000D02*
X132030000Y-92070000D01*
X132070000Y-83932000D02*
X132070000Y-92068000D01*
X132110000Y-83936000D02*
X132110000Y-92064000D01*
X132150000Y-83939000D02*
X132150000Y-92061000D01*
X132190000Y-83944000D02*
X132190000Y-92056000D01*
X132230000Y-83948000D02*
X132230000Y-92052000D01*
X132270000Y-83953000D02*
X132270000Y-92047000D01*
X132310000Y-83958000D02*
X132310000Y-92042000D01*
X132350000Y-83964000D02*
X132350000Y-92036000D01*
X132390000Y-83970000D02*
X132390000Y-92030000D01*
X132430000Y-83977000D02*
X132430000Y-92023000D01*
X132470000Y-83983000D02*
X132470000Y-86960000D01*
X132470000Y-89040000D02*
X132470000Y-92017000D01*
X132510000Y-83991000D02*
X132510000Y-86960000D01*
X132510000Y-89040000D02*
X132510000Y-92009000D01*
X132550000Y-83998000D02*
X132550000Y-86960000D01*
X132550000Y-89040000D02*
X132550000Y-92002000D01*
X132590000Y-84007000D02*
X132590000Y-86960000D01*
X132590000Y-89040000D02*
X132590000Y-91993000D01*
X132630000Y-84015000D02*
X132630000Y-86960000D01*
X132630000Y-89040000D02*
X132630000Y-91985000D01*
X132670000Y-84024000D02*
X132670000Y-86960000D01*
X132670000Y-89040000D02*
X132670000Y-91976000D01*
X132710000Y-84033000D02*
X132710000Y-86960000D01*
X132710000Y-89040000D02*
X132710000Y-91967000D01*
X132750000Y-84043000D02*
X132750000Y-86960000D01*
X132750000Y-89040000D02*
X132750000Y-91957000D01*
X132790000Y-84053000D02*
X132790000Y-86960000D01*
X132790000Y-89040000D02*
X132790000Y-91947000D01*
X132830000Y-84064000D02*
X132830000Y-86960000D01*
X132830000Y-89040000D02*
X132830000Y-91936000D01*
X132870000Y-84075000D02*
X132870000Y-86960000D01*
X132870000Y-89040000D02*
X132870000Y-91925000D01*
X132910000Y-84087000D02*
X132910000Y-86960000D01*
X132910000Y-89040000D02*
X132910000Y-91913000D01*
X132950000Y-84099000D02*
X132950000Y-86960000D01*
X132950000Y-89040000D02*
X132950000Y-91901000D01*
X132990000Y-84111000D02*
X132990000Y-86960000D01*
X132990000Y-89040000D02*
X132990000Y-91889000D01*
X133030000Y-84124000D02*
X133030000Y-86960000D01*
X133030000Y-89040000D02*
X133030000Y-91876000D01*
X133070000Y-84137000D02*
X133070000Y-86960000D01*
X133070000Y-89040000D02*
X133070000Y-91863000D01*
X133110000Y-84151000D02*
X133110000Y-86960000D01*
X133110000Y-89040000D02*
X133110000Y-91849000D01*
X133150000Y-84165000D02*
X133150000Y-86960000D01*
X133150000Y-89040000D02*
X133150000Y-91835000D01*
X133190000Y-84180000D02*
X133190000Y-86960000D01*
X133190000Y-89040000D02*
X133190000Y-91820000D01*
X133230000Y-84195000D02*
X133230000Y-86960000D01*
X133230000Y-89040000D02*
X133230000Y-91805000D01*
X133270000Y-84211000D02*
X133270000Y-86960000D01*
X133270000Y-89040000D02*
X133270000Y-91789000D01*
X133310000Y-84227000D02*
X133310000Y-86960000D01*
X133310000Y-89040000D02*
X133310000Y-91773000D01*
X133350000Y-84243000D02*
X133350000Y-86960000D01*
X133350000Y-89040000D02*
X133350000Y-91757000D01*
X133390000Y-84260000D02*
X133390000Y-86960000D01*
X133390000Y-89040000D02*
X133390000Y-91740000D01*
X133430000Y-84278000D02*
X133430000Y-86960000D01*
X133430000Y-89040000D02*
X133430000Y-91722000D01*
X133470000Y-84296000D02*
X133470000Y-86960000D01*
X133470000Y-89040000D02*
X133470000Y-91704000D01*
X133510000Y-84315000D02*
X133510000Y-86960000D01*
X133510000Y-89040000D02*
X133510000Y-91685000D01*
X133550000Y-84334000D02*
X133550000Y-86960000D01*
X133550000Y-89040000D02*
X133550000Y-91666000D01*
X133590000Y-84354000D02*
X133590000Y-86960000D01*
X133590000Y-89040000D02*
X133590000Y-91646000D01*
X133630000Y-84374000D02*
X133630000Y-86960000D01*
X133630000Y-89040000D02*
X133630000Y-91626000D01*
X133670000Y-84395000D02*
X133670000Y-86960000D01*
X133670000Y-89040000D02*
X133670000Y-91605000D01*
X133710000Y-84416000D02*
X133710000Y-86960000D01*
X133710000Y-89040000D02*
X133710000Y-91584000D01*
X133750000Y-84438000D02*
X133750000Y-86960000D01*
X133750000Y-89040000D02*
X133750000Y-91562000D01*
X133790000Y-84461000D02*
X133790000Y-86960000D01*
X133790000Y-89040000D02*
X133790000Y-91539000D01*
X133830000Y-84484000D02*
X133830000Y-86960000D01*
X133830000Y-89040000D02*
X133830000Y-91516000D01*
X133870000Y-84507000D02*
X133870000Y-86960000D01*
X133870000Y-89040000D02*
X133870000Y-91493000D01*
X133910000Y-84532000D02*
X133910000Y-86960000D01*
X133910000Y-89040000D02*
X133910000Y-91468000D01*
X133950000Y-84557000D02*
X133950000Y-86960000D01*
X133950000Y-89040000D02*
X133950000Y-91443000D01*
X133990000Y-84582000D02*
X133990000Y-86960000D01*
X133990000Y-89040000D02*
X133990000Y-91418000D01*
X134030000Y-84608000D02*
X134030000Y-86960000D01*
X134030000Y-89040000D02*
X134030000Y-91392000D01*
X134070000Y-84635000D02*
X134070000Y-86960000D01*
X134070000Y-89040000D02*
X134070000Y-91365000D01*
X134110000Y-84663000D02*
X134110000Y-86960000D01*
X134110000Y-89040000D02*
X134110000Y-91337000D01*
X134150000Y-84691000D02*
X134150000Y-86960000D01*
X134150000Y-89040000D02*
X134150000Y-91309000D01*
X134190000Y-84720000D02*
X134190000Y-86960000D01*
X134190000Y-89040000D02*
X134190000Y-91280000D01*
X134230000Y-84750000D02*
X134230000Y-86960000D01*
X134230000Y-89040000D02*
X134230000Y-91250000D01*
X134270000Y-84781000D02*
X134270000Y-86960000D01*
X134270000Y-89040000D02*
X134270000Y-91219000D01*
X134310000Y-84812000D02*
X134310000Y-86960000D01*
X134310000Y-89040000D02*
X134310000Y-91188000D01*
X134350000Y-84844000D02*
X134350000Y-86960000D01*
X134350000Y-89040000D02*
X134350000Y-91156000D01*
X134390000Y-84877000D02*
X134390000Y-86960000D01*
X134390000Y-89040000D02*
X134390000Y-91123000D01*
X134430000Y-84911000D02*
X134430000Y-86960000D01*
X134430000Y-89040000D02*
X134430000Y-91089000D01*
X134470000Y-84945000D02*
X134470000Y-86960000D01*
X134470000Y-89040000D02*
X134470000Y-91055000D01*
X134510000Y-84981000D02*
X134510000Y-86960000D01*
X134510000Y-89040000D02*
X134510000Y-91019000D01*
X134550000Y-85018000D02*
X134550000Y-90982000D01*
X134590000Y-85055000D02*
X134590000Y-90945000D01*
X134630000Y-85094000D02*
X134630000Y-90906000D01*
X134670000Y-85133000D02*
X134670000Y-90867000D01*
X134710000Y-85174000D02*
X134710000Y-90826000D01*
X134750000Y-85216000D02*
X134750000Y-90784000D01*
X134790000Y-85259000D02*
X134790000Y-90741000D01*
X134830000Y-85304000D02*
X134830000Y-90696000D01*
X134870000Y-85349000D02*
X134870000Y-90651000D01*
X134910000Y-85396000D02*
X134910000Y-90604000D01*
X134950000Y-85445000D02*
X134950000Y-90555000D01*
X134990000Y-85495000D02*
X134990000Y-90505000D01*
X135030000Y-85547000D02*
X135030000Y-90453000D01*
X135070000Y-85600000D02*
X135070000Y-90400000D01*
X135110000Y-85656000D02*
X135110000Y-90344000D01*
X135150000Y-85713000D02*
X135150000Y-90287000D01*
X135190000Y-85773000D02*
X135190000Y-90227000D01*
X135230000Y-85835000D02*
X135230000Y-90165000D01*
X135270000Y-85899000D02*
X135270000Y-90101000D01*
X135310000Y-85966000D02*
X135310000Y-90034000D01*
X135350000Y-86036000D02*
X135350000Y-89964000D01*
X135390000Y-86110000D02*
X135390000Y-89890000D01*
X135430000Y-86187000D02*
X135430000Y-89813000D01*
X135470000Y-86269000D02*
X135470000Y-89731000D01*
X135510000Y-86356000D02*
X135510000Y-89644000D01*
X135550000Y-86448000D02*
X135550000Y-89552000D01*
X135590000Y-86547000D02*
X135590000Y-89453000D01*
X135630000Y-86654000D02*
X135630000Y-89346000D01*
X135670000Y-86772000D02*
X135670000Y-89228000D01*
X135710000Y-86903000D02*
X135710000Y-89097000D01*
X135750000Y-87053000D02*
X135750000Y-88947000D01*
X135790000Y-87232000D02*
X135790000Y-88768000D01*
X135830000Y-87467000D02*
X135830000Y-88533000D01*
X135870000Y-88000000D02*
G75*
G02*
X127630000Y-88000000I-4120000J0D01*
G01*
X127630000Y-88000000D02*
G75*
G02*
X135870000Y-88000000I4120000J0D01*
G01*
%TO.C,C5*%
X129230000Y-39930000D02*
X133770000Y-39930000D01*
X129230000Y-39986000D02*
X129230000Y-39930000D01*
X133770000Y-42014000D02*
X133770000Y-42070000D01*
X133770000Y-42070000D02*
X129230000Y-42070000D01*
%TO.C,J17*%
X67000000Y-106390000D02*
X67000000Y-118610000D01*
X67000000Y-115310000D02*
X76500000Y-115310000D01*
X67000000Y-117110000D02*
X67000000Y-115310000D01*
X67000000Y-118610000D02*
X76500000Y-118610000D01*
X68040000Y-118610000D02*
X70040000Y-118610000D01*
X68290000Y-117110000D02*
X68040000Y-118610000D01*
X68740000Y-105590000D02*
X69340000Y-105590000D01*
X69040000Y-106190000D02*
X68740000Y-105590000D01*
X69340000Y-105590000D02*
X69040000Y-106190000D01*
X69790000Y-117110000D02*
X68290000Y-117110000D01*
X70040000Y-118610000D02*
X69790000Y-117110000D01*
X73120000Y-118610000D02*
X75120000Y-118610000D01*
X73370000Y-117110000D02*
X73120000Y-118610000D01*
X74870000Y-117110000D02*
X73370000Y-117110000D01*
X75120000Y-118610000D02*
X74870000Y-117110000D01*
X76500000Y-106390000D02*
X67000000Y-106390000D01*
X76500000Y-115310000D02*
X76500000Y-117110000D01*
X76500000Y-117110000D02*
X67000000Y-117110000D01*
X76500000Y-118610000D02*
X76500000Y-106390000D01*
%TO.C,R2*%
X112907064Y-96750000D02*
X108552936Y-96750000D01*
X112907064Y-100170000D02*
X108552936Y-100170000D01*
%TO.C,J6*%
X121540000Y-34380000D02*
X121540000Y-33000000D01*
X122920000Y-34380000D02*
X121540000Y-34380000D01*
X124190000Y-31620000D02*
X131920000Y-31620000D01*
X124190000Y-34380000D02*
X124190000Y-31620000D01*
X124190000Y-34380000D02*
X131920000Y-34380000D01*
X131920000Y-34380000D02*
X131920000Y-31620000D01*
%TO.C,D1*%
X24350000Y-59940000D02*
X24350000Y-67600000D01*
X28650000Y-59940000D02*
X24350000Y-59940000D01*
X28650000Y-59940000D02*
X28650000Y-67600000D01*
%TO.C,C2*%
X76249759Y-82161000D02*
X76879759Y-82161000D01*
X76564759Y-81846000D02*
X76564759Y-82476000D01*
X79750000Y-80770000D02*
X79750000Y-87230000D01*
X79790000Y-80770000D02*
X79790000Y-87230000D01*
X79830000Y-80771000D02*
X79830000Y-87229000D01*
X79870000Y-80772000D02*
X79870000Y-87228000D01*
X79910000Y-80774000D02*
X79910000Y-87226000D01*
X79950000Y-80776000D02*
X79950000Y-87224000D01*
X79990000Y-80779000D02*
X79990000Y-82960000D01*
X79990000Y-85040000D02*
X79990000Y-87221000D01*
X80030000Y-80782000D02*
X80030000Y-82960000D01*
X80030000Y-85040000D02*
X80030000Y-87218000D01*
X80070000Y-80786000D02*
X80070000Y-82960000D01*
X80070000Y-85040000D02*
X80070000Y-87214000D01*
X80110000Y-80790000D02*
X80110000Y-82960000D01*
X80110000Y-85040000D02*
X80110000Y-87210000D01*
X80150000Y-80795000D02*
X80150000Y-82960000D01*
X80150000Y-85040000D02*
X80150000Y-87205000D01*
X80190000Y-80800000D02*
X80190000Y-82960000D01*
X80190000Y-85040000D02*
X80190000Y-87200000D01*
X80230000Y-80805000D02*
X80230000Y-82960000D01*
X80230000Y-85040000D02*
X80230000Y-87195000D01*
X80270000Y-80812000D02*
X80270000Y-82960000D01*
X80270000Y-85040000D02*
X80270000Y-87188000D01*
X80310000Y-80818000D02*
X80310000Y-82960000D01*
X80310000Y-85040000D02*
X80310000Y-87182000D01*
X80350000Y-80826000D02*
X80350000Y-82960000D01*
X80350000Y-85040000D02*
X80350000Y-87174000D01*
X80390000Y-80833000D02*
X80390000Y-82960000D01*
X80390000Y-85040000D02*
X80390000Y-87167000D01*
X80430000Y-80841000D02*
X80430000Y-82960000D01*
X80430000Y-85040000D02*
X80430000Y-87159000D01*
X80470000Y-80850000D02*
X80470000Y-82960000D01*
X80470000Y-85040000D02*
X80470000Y-87150000D01*
X80510000Y-80860000D02*
X80510000Y-82960000D01*
X80510000Y-85040000D02*
X80510000Y-87140000D01*
X80550000Y-80869000D02*
X80550000Y-82960000D01*
X80550000Y-85040000D02*
X80550000Y-87131000D01*
X80590000Y-80880000D02*
X80590000Y-82960000D01*
X80590000Y-85040000D02*
X80590000Y-87120000D01*
X80630000Y-80891000D02*
X80630000Y-82960000D01*
X80630000Y-85040000D02*
X80630000Y-87109000D01*
X80670000Y-80902000D02*
X80670000Y-82960000D01*
X80670000Y-85040000D02*
X80670000Y-87098000D01*
X80710000Y-80914000D02*
X80710000Y-82960000D01*
X80710000Y-85040000D02*
X80710000Y-87086000D01*
X80750000Y-80927000D02*
X80750000Y-82960000D01*
X80750000Y-85040000D02*
X80750000Y-87073000D01*
X80790000Y-80940000D02*
X80790000Y-82960000D01*
X80790000Y-85040000D02*
X80790000Y-87060000D01*
X80830000Y-80953000D02*
X80830000Y-82960000D01*
X80830000Y-85040000D02*
X80830000Y-87047000D01*
X80870000Y-80968000D02*
X80870000Y-82960000D01*
X80870000Y-85040000D02*
X80870000Y-87032000D01*
X80910000Y-80983000D02*
X80910000Y-82960000D01*
X80910000Y-85040000D02*
X80910000Y-87017000D01*
X80950000Y-80998000D02*
X80950000Y-82960000D01*
X80950000Y-85040000D02*
X80950000Y-87002000D01*
X80990000Y-81014000D02*
X80990000Y-82960000D01*
X80990000Y-85040000D02*
X80990000Y-86986000D01*
X81030000Y-81031000D02*
X81030000Y-82960000D01*
X81030000Y-85040000D02*
X81030000Y-86969000D01*
X81070000Y-81048000D02*
X81070000Y-82960000D01*
X81070000Y-85040000D02*
X81070000Y-86952000D01*
X81110000Y-81066000D02*
X81110000Y-82960000D01*
X81110000Y-85040000D02*
X81110000Y-86934000D01*
X81150000Y-81085000D02*
X81150000Y-82960000D01*
X81150000Y-85040000D02*
X81150000Y-86915000D01*
X81190000Y-81104000D02*
X81190000Y-82960000D01*
X81190000Y-85040000D02*
X81190000Y-86896000D01*
X81230000Y-81124000D02*
X81230000Y-82960000D01*
X81230000Y-85040000D02*
X81230000Y-86876000D01*
X81270000Y-81145000D02*
X81270000Y-82960000D01*
X81270000Y-85040000D02*
X81270000Y-86855000D01*
X81310000Y-81166000D02*
X81310000Y-82960000D01*
X81310000Y-85040000D02*
X81310000Y-86834000D01*
X81350000Y-81188000D02*
X81350000Y-82960000D01*
X81350000Y-85040000D02*
X81350000Y-86812000D01*
X81390000Y-81211000D02*
X81390000Y-82960000D01*
X81390000Y-85040000D02*
X81390000Y-86789000D01*
X81430000Y-81235000D02*
X81430000Y-82960000D01*
X81430000Y-85040000D02*
X81430000Y-86765000D01*
X81470000Y-81259000D02*
X81470000Y-82960000D01*
X81470000Y-85040000D02*
X81470000Y-86741000D01*
X81510000Y-81284000D02*
X81510000Y-82960000D01*
X81510000Y-85040000D02*
X81510000Y-86716000D01*
X81550000Y-81310000D02*
X81550000Y-82960000D01*
X81550000Y-85040000D02*
X81550000Y-86690000D01*
X81590000Y-81337000D02*
X81590000Y-82960000D01*
X81590000Y-85040000D02*
X81590000Y-86663000D01*
X81630000Y-81364000D02*
X81630000Y-82960000D01*
X81630000Y-85040000D02*
X81630000Y-86636000D01*
X81670000Y-81393000D02*
X81670000Y-82960000D01*
X81670000Y-85040000D02*
X81670000Y-86607000D01*
X81710000Y-81423000D02*
X81710000Y-82960000D01*
X81710000Y-85040000D02*
X81710000Y-86577000D01*
X81750000Y-81453000D02*
X81750000Y-82960000D01*
X81750000Y-85040000D02*
X81750000Y-86547000D01*
X81790000Y-81484000D02*
X81790000Y-82960000D01*
X81790000Y-85040000D02*
X81790000Y-86516000D01*
X81830000Y-81517000D02*
X81830000Y-82960000D01*
X81830000Y-85040000D02*
X81830000Y-86483000D01*
X81870000Y-81550000D02*
X81870000Y-82960000D01*
X81870000Y-85040000D02*
X81870000Y-86450000D01*
X81910000Y-81585000D02*
X81910000Y-82960000D01*
X81910000Y-85040000D02*
X81910000Y-86415000D01*
X81950000Y-81621000D02*
X81950000Y-82960000D01*
X81950000Y-85040000D02*
X81950000Y-86379000D01*
X81990000Y-81658000D02*
X81990000Y-82960000D01*
X81990000Y-85040000D02*
X81990000Y-86342000D01*
X82030000Y-81696000D02*
X82030000Y-82960000D01*
X82030000Y-85040000D02*
X82030000Y-86304000D01*
X82070000Y-81736000D02*
X82070000Y-86264000D01*
X82110000Y-81777000D02*
X82110000Y-86223000D01*
X82150000Y-81819000D02*
X82150000Y-86181000D01*
X82190000Y-81863000D02*
X82190000Y-86137000D01*
X82230000Y-81909000D02*
X82230000Y-86091000D01*
X82270000Y-81956000D02*
X82270000Y-86044000D01*
X82310000Y-82005000D02*
X82310000Y-85995000D01*
X82350000Y-82057000D02*
X82350000Y-85943000D01*
X82390000Y-82110000D02*
X82390000Y-85890000D01*
X82430000Y-82166000D02*
X82430000Y-85834000D01*
X82470000Y-82225000D02*
X82470000Y-85775000D01*
X82510000Y-82286000D02*
X82510000Y-85714000D01*
X82550000Y-82351000D02*
X82550000Y-85649000D01*
X82590000Y-82419000D02*
X82590000Y-85581000D01*
X82630000Y-82491000D02*
X82630000Y-85509000D01*
X82670000Y-82568000D02*
X82670000Y-85432000D01*
X82710000Y-82650000D02*
X82710000Y-85350000D01*
X82750000Y-82739000D02*
X82750000Y-85261000D01*
X82790000Y-82835000D02*
X82790000Y-85165000D01*
X82830000Y-82942000D02*
X82830000Y-85058000D01*
X82870000Y-83061000D02*
X82870000Y-84939000D01*
X82910000Y-83199000D02*
X82910000Y-84801000D01*
X82950000Y-83367000D02*
X82950000Y-84633000D01*
X82990000Y-83598000D02*
X82990000Y-84402000D01*
X83020000Y-84000000D02*
G75*
G02*
X76480000Y-84000000I-3270000J0D01*
G01*
X76480000Y-84000000D02*
G75*
G02*
X83020000Y-84000000I3270000J0D01*
G01*
%TO.C,J5*%
X106500000Y-34380000D02*
X106500000Y-33000000D01*
X107880000Y-34380000D02*
X106500000Y-34380000D01*
X109150000Y-31620000D02*
X116880000Y-31620000D01*
X109150000Y-34380000D02*
X109150000Y-31620000D01*
X109150000Y-34380000D02*
X116880000Y-34380000D01*
X116880000Y-34380000D02*
X116880000Y-31620000D01*
%TO.C,J3*%
X143120000Y-64080000D02*
X144500000Y-64080000D01*
X143120000Y-65460000D02*
X143120000Y-64080000D01*
X143120000Y-66730000D02*
X143120000Y-69380000D01*
X143120000Y-66730000D02*
X145880000Y-66730000D01*
X143120000Y-69380000D02*
X145880000Y-69380000D01*
X145880000Y-66730000D02*
X145880000Y-69380000D01*
%TO.C,u4*%
X125270000Y-109580000D02*
X125270000Y-112340000D01*
X143160000Y-109580000D02*
X125270000Y-109580000D01*
X143160000Y-109580000D02*
X143160000Y-112340000D01*
X143160000Y-112340000D02*
X125270000Y-112340000D01*
X144430000Y-109580000D02*
X145810000Y-109580000D01*
X145810000Y-109580000D02*
X145810000Y-110960000D01*
%TO.C,J_11*%
X19890000Y-39250000D02*
X19890000Y-48750000D01*
X19890000Y-40290000D02*
X19890000Y-42290000D01*
X19890000Y-42290000D02*
X21390000Y-42040000D01*
X19890000Y-45370000D02*
X19890000Y-47370000D01*
X19890000Y-47370000D02*
X21390000Y-47120000D01*
X19890000Y-48750000D02*
X32110000Y-48750000D01*
X21390000Y-39250000D02*
X23190000Y-39250000D01*
X21390000Y-40540000D02*
X19890000Y-40290000D01*
X21390000Y-42040000D02*
X21390000Y-40540000D01*
X21390000Y-45620000D02*
X19890000Y-45370000D01*
X21390000Y-47120000D02*
X21390000Y-45620000D01*
X21390000Y-48750000D02*
X21390000Y-39250000D01*
X23190000Y-39250000D02*
X23190000Y-48750000D01*
X23190000Y-48750000D02*
X21390000Y-48750000D01*
X32110000Y-39250000D02*
X19890000Y-39250000D01*
X32110000Y-48750000D02*
X32110000Y-39250000D01*
X32310000Y-41290000D02*
X32910000Y-40990000D01*
X32910000Y-40990000D02*
X32910000Y-41590000D01*
X32910000Y-41590000D02*
X32310000Y-41290000D01*
%TO.C,F1*%
X21930000Y-56540000D02*
X21930000Y-51460000D01*
X22700000Y-51460000D02*
X21930000Y-51460000D01*
X22700000Y-56540000D02*
X21930000Y-56540000D01*
X26930000Y-51460000D02*
X25300000Y-51460000D01*
X26930000Y-51460000D02*
X26930000Y-56540000D01*
X26930000Y-56540000D02*
X25300000Y-56540000D01*
X38870000Y-51460000D02*
X38870000Y-56540000D01*
X38870000Y-51500000D02*
X26930000Y-51500000D01*
X38870000Y-56500000D02*
X26930000Y-56500000D01*
X40500000Y-51460000D02*
X38870000Y-51460000D01*
X40500000Y-56540000D02*
X38870000Y-56540000D01*
X43100000Y-51460000D02*
X43870000Y-51460000D01*
X43100000Y-56540000D02*
X43870000Y-56540000D01*
X43870000Y-51460000D02*
X43870000Y-56540000D01*
%TO.C,R3*%
X137907064Y-96750000D02*
X133552936Y-96750000D01*
X137907064Y-100170000D02*
X133552936Y-100170000D01*
%TO.C,J4*%
X143120000Y-73120000D02*
X144500000Y-73120000D01*
X143120000Y-74500000D02*
X143120000Y-73120000D01*
X143120000Y-75770000D02*
X143120000Y-80960000D01*
X143120000Y-75770000D02*
X145880000Y-75770000D01*
X143120000Y-80960000D02*
X145880000Y-80960000D01*
X145880000Y-75770000D02*
X145880000Y-80960000D01*
%TO.C,C3*%
X68249759Y-94161000D02*
X68879759Y-94161000D01*
X68564759Y-93846000D02*
X68564759Y-94476000D01*
X71750000Y-92770000D02*
X71750000Y-99230000D01*
X71790000Y-92770000D02*
X71790000Y-99230000D01*
X71830000Y-92771000D02*
X71830000Y-99229000D01*
X71870000Y-92772000D02*
X71870000Y-99228000D01*
X71910000Y-92774000D02*
X71910000Y-99226000D01*
X71950000Y-92776000D02*
X71950000Y-99224000D01*
X71990000Y-92779000D02*
X71990000Y-94960000D01*
X71990000Y-97040000D02*
X71990000Y-99221000D01*
X72030000Y-92782000D02*
X72030000Y-94960000D01*
X72030000Y-97040000D02*
X72030000Y-99218000D01*
X72070000Y-92786000D02*
X72070000Y-94960000D01*
X72070000Y-97040000D02*
X72070000Y-99214000D01*
X72110000Y-92790000D02*
X72110000Y-94960000D01*
X72110000Y-97040000D02*
X72110000Y-99210000D01*
X72150000Y-92795000D02*
X72150000Y-94960000D01*
X72150000Y-97040000D02*
X72150000Y-99205000D01*
X72190000Y-92800000D02*
X72190000Y-94960000D01*
X72190000Y-97040000D02*
X72190000Y-99200000D01*
X72230000Y-92805000D02*
X72230000Y-94960000D01*
X72230000Y-97040000D02*
X72230000Y-99195000D01*
X72270000Y-92812000D02*
X72270000Y-94960000D01*
X72270000Y-97040000D02*
X72270000Y-99188000D01*
X72310000Y-92818000D02*
X72310000Y-94960000D01*
X72310000Y-97040000D02*
X72310000Y-99182000D01*
X72350000Y-92826000D02*
X72350000Y-94960000D01*
X72350000Y-97040000D02*
X72350000Y-99174000D01*
X72390000Y-92833000D02*
X72390000Y-94960000D01*
X72390000Y-97040000D02*
X72390000Y-99167000D01*
X72430000Y-92841000D02*
X72430000Y-94960000D01*
X72430000Y-97040000D02*
X72430000Y-99159000D01*
X72470000Y-92850000D02*
X72470000Y-94960000D01*
X72470000Y-97040000D02*
X72470000Y-99150000D01*
X72510000Y-92860000D02*
X72510000Y-94960000D01*
X72510000Y-97040000D02*
X72510000Y-99140000D01*
X72550000Y-92869000D02*
X72550000Y-94960000D01*
X72550000Y-97040000D02*
X72550000Y-99131000D01*
X72590000Y-92880000D02*
X72590000Y-94960000D01*
X72590000Y-97040000D02*
X72590000Y-99120000D01*
X72630000Y-92891000D02*
X72630000Y-94960000D01*
X72630000Y-97040000D02*
X72630000Y-99109000D01*
X72670000Y-92902000D02*
X72670000Y-94960000D01*
X72670000Y-97040000D02*
X72670000Y-99098000D01*
X72710000Y-92914000D02*
X72710000Y-94960000D01*
X72710000Y-97040000D02*
X72710000Y-99086000D01*
X72750000Y-92927000D02*
X72750000Y-94960000D01*
X72750000Y-97040000D02*
X72750000Y-99073000D01*
X72790000Y-92940000D02*
X72790000Y-94960000D01*
X72790000Y-97040000D02*
X72790000Y-99060000D01*
X72830000Y-92953000D02*
X72830000Y-94960000D01*
X72830000Y-97040000D02*
X72830000Y-99047000D01*
X72870000Y-92968000D02*
X72870000Y-94960000D01*
X72870000Y-97040000D02*
X72870000Y-99032000D01*
X72910000Y-92983000D02*
X72910000Y-94960000D01*
X72910000Y-97040000D02*
X72910000Y-99017000D01*
X72950000Y-92998000D02*
X72950000Y-94960000D01*
X72950000Y-97040000D02*
X72950000Y-99002000D01*
X72990000Y-93014000D02*
X72990000Y-94960000D01*
X72990000Y-97040000D02*
X72990000Y-98986000D01*
X73030000Y-93031000D02*
X73030000Y-94960000D01*
X73030000Y-97040000D02*
X73030000Y-98969000D01*
X73070000Y-93048000D02*
X73070000Y-94960000D01*
X73070000Y-97040000D02*
X73070000Y-98952000D01*
X73110000Y-93066000D02*
X73110000Y-94960000D01*
X73110000Y-97040000D02*
X73110000Y-98934000D01*
X73150000Y-93085000D02*
X73150000Y-94960000D01*
X73150000Y-97040000D02*
X73150000Y-98915000D01*
X73190000Y-93104000D02*
X73190000Y-94960000D01*
X73190000Y-97040000D02*
X73190000Y-98896000D01*
X73230000Y-93124000D02*
X73230000Y-94960000D01*
X73230000Y-97040000D02*
X73230000Y-98876000D01*
X73270000Y-93145000D02*
X73270000Y-94960000D01*
X73270000Y-97040000D02*
X73270000Y-98855000D01*
X73310000Y-93166000D02*
X73310000Y-94960000D01*
X73310000Y-97040000D02*
X73310000Y-98834000D01*
X73350000Y-93188000D02*
X73350000Y-94960000D01*
X73350000Y-97040000D02*
X73350000Y-98812000D01*
X73390000Y-93211000D02*
X73390000Y-94960000D01*
X73390000Y-97040000D02*
X73390000Y-98789000D01*
X73430000Y-93235000D02*
X73430000Y-94960000D01*
X73430000Y-97040000D02*
X73430000Y-98765000D01*
X73470000Y-93259000D02*
X73470000Y-94960000D01*
X73470000Y-97040000D02*
X73470000Y-98741000D01*
X73510000Y-93284000D02*
X73510000Y-94960000D01*
X73510000Y-97040000D02*
X73510000Y-98716000D01*
X73550000Y-93310000D02*
X73550000Y-94960000D01*
X73550000Y-97040000D02*
X73550000Y-98690000D01*
X73590000Y-93337000D02*
X73590000Y-94960000D01*
X73590000Y-97040000D02*
X73590000Y-98663000D01*
X73630000Y-93364000D02*
X73630000Y-94960000D01*
X73630000Y-97040000D02*
X73630000Y-98636000D01*
X73670000Y-93393000D02*
X73670000Y-94960000D01*
X73670000Y-97040000D02*
X73670000Y-98607000D01*
X73710000Y-93423000D02*
X73710000Y-94960000D01*
X73710000Y-97040000D02*
X73710000Y-98577000D01*
X73750000Y-93453000D02*
X73750000Y-94960000D01*
X73750000Y-97040000D02*
X73750000Y-98547000D01*
X73790000Y-93484000D02*
X73790000Y-94960000D01*
X73790000Y-97040000D02*
X73790000Y-98516000D01*
X73830000Y-93517000D02*
X73830000Y-94960000D01*
X73830000Y-97040000D02*
X73830000Y-98483000D01*
X73870000Y-93550000D02*
X73870000Y-94960000D01*
X73870000Y-97040000D02*
X73870000Y-98450000D01*
X73910000Y-93585000D02*
X73910000Y-94960000D01*
X73910000Y-97040000D02*
X73910000Y-98415000D01*
X73950000Y-93621000D02*
X73950000Y-94960000D01*
X73950000Y-97040000D02*
X73950000Y-98379000D01*
X73990000Y-93658000D02*
X73990000Y-94960000D01*
X73990000Y-97040000D02*
X73990000Y-98342000D01*
X74030000Y-93696000D02*
X74030000Y-94960000D01*
X74030000Y-97040000D02*
X74030000Y-98304000D01*
X74070000Y-93736000D02*
X74070000Y-98264000D01*
X74110000Y-93777000D02*
X74110000Y-98223000D01*
X74150000Y-93819000D02*
X74150000Y-98181000D01*
X74190000Y-93863000D02*
X74190000Y-98137000D01*
X74230000Y-93909000D02*
X74230000Y-98091000D01*
X74270000Y-93956000D02*
X74270000Y-98044000D01*
X74310000Y-94005000D02*
X74310000Y-97995000D01*
X74350000Y-94057000D02*
X74350000Y-97943000D01*
X74390000Y-94110000D02*
X74390000Y-97890000D01*
X74430000Y-94166000D02*
X74430000Y-97834000D01*
X74470000Y-94225000D02*
X74470000Y-97775000D01*
X74510000Y-94286000D02*
X74510000Y-97714000D01*
X74550000Y-94351000D02*
X74550000Y-97649000D01*
X74590000Y-94419000D02*
X74590000Y-97581000D01*
X74630000Y-94491000D02*
X74630000Y-97509000D01*
X74670000Y-94568000D02*
X74670000Y-97432000D01*
X74710000Y-94650000D02*
X74710000Y-97350000D01*
X74750000Y-94739000D02*
X74750000Y-97261000D01*
X74790000Y-94835000D02*
X74790000Y-97165000D01*
X74830000Y-94942000D02*
X74830000Y-97058000D01*
X74870000Y-95061000D02*
X74870000Y-96939000D01*
X74910000Y-95199000D02*
X74910000Y-96801000D01*
X74950000Y-95367000D02*
X74950000Y-96633000D01*
X74990000Y-95598000D02*
X74990000Y-96402000D01*
X75020000Y-96000000D02*
G75*
G02*
X68480000Y-96000000I-3270000J0D01*
G01*
X68480000Y-96000000D02*
G75*
G02*
X75020000Y-96000000I3270000J0D01*
G01*
%TD*%
M02*
